<?xml version="1.0" encoding="utf-8"?>
<!-- Generator: Adobe Illustrator 27.5.0, SVG Export Plug-In . SVG Version: 6.00 Build 0)  -->
<svg version="1.1" xmlns="http://www.w3.org/2000/svg" xmlns:xlink="http://www.w3.org/1999/xlink" x="0px" y="0px"
	 viewBox="0 0 500 500" style="enable-background:blue" xml:space="preserve">
<g id="BACKGROUND">
	<rect style="fill:#FFFFFF;" width="500" height="500"/>
</g>
<g id="OBJECTS">
	<path style="fill:#F0FBFF;" d="M414.61,199.665c0,0,26.338-59.957,9.776-101.643c-16.562-41.686-79.643-42.563-100.319-15.797
		c-20.676,26.767-80.768,35.981-102.061,14.48c-21.293-21.501-94.918-13.046-91.893,34.066c3.025,47.112,8.387,90.04-21.628,98.274
		c-30.015,8.234-71.005,63.946-49.942,110.826s118.568,25.626,150.334,43.054c31.766,17.428,177.138,40.049,205.548-36.494
		C442.834,269.888,395.507,254.796,414.61,199.665z"/>
	<g>
		
			<linearGradient id="SVGID_1_" gradientUnits="userSpaceOnUse" x1="141.1319" y1="362.1266" x2="141.1319" y2="254.6423" gradientTransform="matrix(0.8266 -0.5627 0.5627 0.8266 -161.1696 15.0159)">
			<stop  offset="0" style="stop-color:#C97198"/>
			<stop  offset="1" style="stop-color:#FCF4C0"/>
		</linearGradient>
		<path style="fill:url(#SVGID_1_);" d="M136.798,245.399c0,0-19.448-4.807-24.914-18.472c0,0,9.754-1.788,6.636-13.008
			c-3.118-11.22-13.393-7.865-13.393-7.865s-4.584-25.587,0.625-33.176c0,0,11.338-1.653,9.123-7.828
			c-2.215-6.174-7.828-6.801-7.828-6.801s9.548-23.886,19.307-30.933c0,0,9.522,6.861,17.303,25.419c0,0-5.645,5.46-4.66,9.237
			c0.985,3.777,6.668,4.356,9.032,0.725c0,0,9.3,4.182,12.184,24.457c0,0-10.587,6.802-6.588,13.38
			c3.999,6.577,12.555,1.562,12.555,1.562s3.337,22.255-10.288,34.429C142.267,248.699,136.798,245.399,136.798,245.399z"/>
		
			<linearGradient id="SVGID_00000124873153160671926480000002054724726745325749_" gradientUnits="userSpaceOnUse" x1="141.6309" y1="368.6992" x2="141.6309" y2="258.0963" gradientTransform="matrix(0.8266 -0.5627 0.5627 0.8266 -161.1696 15.0159)">
			<stop  offset="0" style="stop-color:#C97198"/>
			<stop  offset="1" style="stop-color:#FCF4C0"/>
		</linearGradient>
		<path style="fill:url(#SVGID_00000124873153160671926480000002054724726745325749_);" d="M140.098,251.254l-3.702-18.505
			l-19.026-5.378l2.579-1.755l15.613,3.928l-4.317-16.739l-11.428-2.733l-1.101-3.294l11.8,2.48l-3.602-13.182l-20.623-2.404
			l1.181-3.499l9.46,2.725l-8.401-12.341l1.171-1.875l9.279,13.631l8.312,1.081l-3.631-13.432l-10.412-7.198l1.263-0.86
			l10.286,5.937l-2.63-20.852l-9.055-4.888l0.334-1.845l9.847,3.456l0.398-20.403l2.958-2.014l-0.721,20.623l6.995-9.799
			l2.343,3.442l-8.889,9.909l1.388,21.428l15.851-9.173l2.669,1.148l-18.005,11.717l2.471,12.469l12.154-8.273l3.678-10.725
			l2.653-0.458l-3.591,12.148l9.566-1.39l-1.482,4.783l-9.994-0.475l-11.188,7.077l2.518,12.303l11.5-13.489l1.776,3.913
			l-11.897,11.603l4.216,16.269l15.991-18.703l2.508,3.684l-16.628,18.058l3.27,22.329
			C145.8,251.711,143.291,255.549,140.098,251.254z"/>
	</g>
	<g>
		
			<linearGradient id="SVGID_00000029761358212975354680000007560035900777074589_" gradientUnits="userSpaceOnUse" x1="146.189" y1="260.9453" x2="146.189" y2="153.4616" gradientTransform="matrix(0.5377 -0.8431 0.8431 0.5377 -133.5617 271.4699)">
			<stop  offset="0" style="stop-color:#C97198"/>
			<stop  offset="1" style="stop-color:#FCF4C0"/>
		</linearGradient>
		<path style="fill:url(#SVGID_00000029761358212975354680000007560035900777074589_);" d="M148.535,307.001
			c0,0-19.767,3.253-30.18-7.149c0,0,8.258-5.49,0.967-14.571c-7.291-9.081-15.409-1.945-15.409-1.945s-14.304-21.705-12.51-30.734
			c0,0,9.767-5.991,5.296-10.791c-4.471-4.8-9.876-3.162-9.876-3.162s-0.647-25.715,5.542-36.04c0,0,11.456,2.549,25.926,16.534
			c0,0-3.034,7.243-0.639,10.326c2.395,3.083,7.846,1.373,8.586-2.896c0,0,10.195,0.175,20.842,17.669
			c0,0-7.046,10.427-0.777,14.893c6.269,4.467,12.153-3.517,12.153-3.517s11.844,19.135,4.125,35.696
			C154.863,307.876,148.535,307.001,148.535,307.001z"/>
		
			<linearGradient id="SVGID_00000121267429323710270280000003619948161098140052_" gradientUnits="userSpaceOnUse" x1="146.6879" y1="267.5182" x2="146.6879" y2="156.9156" gradientTransform="matrix(0.5377 -0.8431 0.8431 0.5377 -133.5617 271.4699)">
			<stop  offset="0" style="stop-color:#C97198"/>
			<stop  offset="1" style="stop-color:#FCF4C0"/>
		</linearGradient>
		<path style="fill:url(#SVGID_00000121267429323710270280000003619948161098140052_);" d="M153.877,311.079l-10.7-15.545
			l-19.605,2.561l1.677-2.63l15.896-2.548l-10.569-13.679l-11.58,1.995l-2.311-2.593l11.821-2.374l-8.509-10.692l-19.899,5.924
			l-0.295-3.681l9.768-1.227l-12.587-8.027l0.336-2.185l13.903,8.866l8.064-2.285l-8.634-10.911l-12.407-2.508l0.822-1.288
			l11.794,1.399l-10.641-18.125l-10.249-0.92l-0.421-1.827l10.412-0.708l-7.682-18.906l1.924-3.018l7.471,19.236l2.563-11.763
			l3.511,2.239l-4.26,12.611l9.726,19.144l10.948-14.681l2.905,0.003l-11.924,17.869l7.189,10.484l7.905-12.396l-0.85-11.306
			l2.257-1.468l1.492,12.58l8.242-5.051l0.524,4.98l-9.371,3.505l-7.49,10.916l7.166,10.313l5.248-16.931l3.175,2.895l-6.356,15.354
			l10.29,13.287l7.318-23.493l3.757,2.396l-8.158,23.152l11.812,19.229C159.297,309.251,158.506,313.767,153.877,311.079z"/>
	</g>
	<g>
		
			<linearGradient id="SVGID_00000144326359698914724140000006048670162763964573_" gradientUnits="userSpaceOnUse" x1="305.4995" y1="550.37" x2="305.4995" y2="442.8857" gradientTransform="matrix(-0.8266 -0.5627 -0.5627 0.8266 898.0967 15.0159)">
			<stop  offset="0" style="stop-color:#C97198"/>
			<stop  offset="1" style="stop-color:#FCF4C0"/>
		</linearGradient>
		<path style="fill:url(#SVGID_00000144326359698914724140000006048670162763964573_);" d="M358.338,308.511
			c0,0,19.448-4.807,24.914-18.472c0,0-9.754-1.788-6.636-13.008c3.118-11.22,13.393-7.865,13.393-7.865s4.584-25.587-0.625-33.176
			c0,0-11.338-1.653-9.123-7.828c2.215-6.174,7.828-6.801,7.828-6.801s-9.548-23.886-19.307-30.933c0,0-9.522,6.861-17.303,25.419
			c0,0,5.645,5.46,4.66,9.237c-0.985,3.777-6.668,4.356-9.032,0.725c0,0-9.3,4.182-12.184,24.457c0,0,10.587,6.802,6.588,13.38
			c-3.999,6.577-12.555,1.562-12.555,1.562s-3.337,22.255,10.288,34.429C352.869,311.811,358.338,308.511,358.338,308.511z"/>
		
			<linearGradient id="SVGID_00000178887945119257143490000017260218856245236669_" gradientUnits="userSpaceOnUse" x1="305.9986" y1="556.9427" x2="305.9986" y2="446.3397" gradientTransform="matrix(-0.8266 -0.5627 -0.5627 0.8266 898.0967 15.0159)">
			<stop  offset="0" style="stop-color:#C97198"/>
			<stop  offset="1" style="stop-color:#FCF4C0"/>
		</linearGradient>
		<path style="fill:url(#SVGID_00000178887945119257143490000017260218856245236669_);" d="M355.038,314.366l3.702-18.505
			l19.026-5.378l-2.579-1.755l-15.612,3.928l4.317-16.739l11.428-2.733l1.101-3.294l-11.799,2.48l3.602-13.182l20.623-2.404
			l-1.181-3.499l-9.46,2.725l8.401-12.341l-1.171-1.875l-9.279,13.631l-8.312,1.081l3.631-13.432l10.412-7.198l-1.263-0.86
			l-10.286,5.937l2.629-20.852l9.055-4.888l-0.334-1.845l-9.847,3.456l-0.398-20.403l-2.958-2.014l0.721,20.623l-6.995-9.799
			l-2.343,3.442l8.889,9.909l-1.388,21.428l-15.851-9.173l-2.669,1.148l18.005,11.718l-2.471,12.469l-12.154-8.273l-3.678-10.725
			l-2.653-0.458l3.591,12.148l-9.566-1.39l1.482,4.783l9.994-0.475l11.188,7.077l-2.517,12.303l-11.5-13.489l-1.776,3.913
			l11.897,11.602l-4.216,16.269l-15.991-18.703l-2.508,3.684l16.628,18.058l-3.271,22.329
			C349.336,314.824,351.845,318.662,355.038,314.366z"/>
	</g>
	<g>
		
			<linearGradient id="SVGID_00000180357240845741801100000014215591832544763818_" gradientUnits="userSpaceOnUse" x1="222.9947" y1="498.7492" x2="222.9947" y2="391.2656" gradientTransform="matrix(-0.5377 -0.8431 -0.8431 0.5377 870.4888 271.4699)">
			<stop  offset="0" style="stop-color:#C97198"/>
			<stop  offset="1" style="stop-color:#FCF4C0"/>
		</linearGradient>
		<path style="fill:url(#SVGID_00000180357240845741801100000014215591832544763818_);" d="M346.601,370.113
			c0,0,19.767,3.253,30.18-7.149c0,0-8.258-5.49-0.967-14.571c7.291-9.081,15.409-1.945,15.409-1.945s14.304-21.705,12.51-30.734
			c0,0-9.767-5.991-5.296-10.791c4.471-4.8,9.876-3.162,9.876-3.162s0.647-25.715-5.542-36.04c0,0-11.456,2.549-25.926,16.534
			c0,0,3.034,7.243,0.639,10.326c-2.395,3.083-7.846,1.373-8.586-2.896c0,0-10.195,0.175-20.842,17.669
			c0,0,7.046,10.427,0.777,14.893c-6.269,4.467-12.153-3.517-12.153-3.517s-11.844,19.134-4.125,35.696
			C340.274,370.988,346.601,370.113,346.601,370.113z"/>
		
			<linearGradient id="SVGID_00000056390597722766950630000015894226620778107312_" gradientUnits="userSpaceOnUse" x1="223.4936" y1="505.3221" x2="223.4936" y2="394.7195" gradientTransform="matrix(-0.5377 -0.8431 -0.8431 0.5377 870.4888 271.4699)">
			<stop  offset="0" style="stop-color:#C97198"/>
			<stop  offset="1" style="stop-color:#FCF4C0"/>
		</linearGradient>
		<path style="fill:url(#SVGID_00000056390597722766950630000015894226620778107312_);" d="M341.259,374.192l10.7-15.545
			l19.605,2.561l-1.677-2.63l-15.896-2.548l10.569-13.679l11.579,1.995l2.311-2.593l-11.821-2.375l8.509-10.692l19.899,5.924
			l0.295-3.681l-9.768-1.227l12.587-8.027l-0.336-2.185l-13.903,8.866l-8.064-2.285l8.634-10.911l12.408-2.508l-0.822-1.288
			l-11.794,1.399l10.641-18.125l10.249-0.92l0.421-1.827l-10.412-0.708l7.682-18.906l-1.924-3.018l-7.471,19.236l-2.563-11.763
			l-3.511,2.239l4.26,12.611l-9.726,19.144l-10.948-14.681l-2.905,0.003l11.924,17.869l-7.189,10.484l-7.905-12.396l0.851-11.306
			l-2.257-1.468l-1.492,12.58l-8.242-5.051l-0.524,4.98l9.371,3.505l7.49,10.916l-7.166,10.313l-5.248-16.931l-3.175,2.895
			l6.356,15.354l-10.29,13.287l-7.318-23.493l-3.757,2.396l8.158,23.152l-11.812,19.229
			C335.839,372.363,336.631,376.879,341.259,374.192z"/>
	</g>
	<g>
		<g>
			<path style="fill:#F0F0F0;" d="M160.63,332.832H79.359c-7.284,0-13.244-5.96-13.244-13.244v0c0-7.284,5.96-13.244,13.244-13.244
				h81.271c0.488,0,0.883,0.395,0.883,0.883v24.723C161.513,332.437,161.118,332.832,160.63,332.832z"/>
			<path style="fill:none;stroke:#D19740;stroke-width:4.3884;stroke-linecap:round;stroke-miterlimit:10;" d="M160.63,332.832
				H79.359c-7.284,0-13.244-5.96-13.244-13.244v0c0-7.284,5.96-13.244,13.244-13.244h81.271"/>
			<path style="fill:#FFFFFF;" d="M157.359,314.345H75.484c-0.465,0-0.846-0.381-0.846-0.846l0,0c0-0.466,0.381-0.846,0.846-0.846
				h81.876c0.465,0,0.846,0.381,0.846,0.846l0,0C158.205,313.964,157.825,314.345,157.359,314.345z"/>
			<path style="fill:#FFFFFF;" d="M157.359,318.054H75.484c-0.465,0-0.846-0.381-0.846-0.846l0,0c0-0.465,0.381-0.846,0.846-0.846
				h81.876c0.465,0,0.846,0.381,0.846,0.846l0,0C158.205,317.673,157.825,318.054,157.359,318.054z"/>
			<path style="fill:#FFFFFF;" d="M157.359,321.763H75.484c-0.465,0-0.846-0.381-0.846-0.846l0,0c0-0.465,0.381-0.846,0.846-0.846
				h81.876c0.465,0,0.846,0.381,0.846,0.846l0,0C158.205,321.382,157.825,321.763,157.359,321.763z"/>
			<path style="fill:#FFFFFF;" d="M157.359,325.471H75.484c-0.465,0-0.846-0.381-0.846-0.846l0,0c0-0.465,0.381-0.846,0.846-0.846
				h81.876c0.465,0,0.846,0.381,0.846,0.846l0,0C158.205,325.09,157.825,325.471,157.359,325.471z"/>
			<path style="fill:#FFFFFF;" d="M157.359,329.18H75.484c-0.465,0-0.846-0.381-0.846-0.846l0,0c0-0.465,0.381-0.846,0.846-0.846
				h81.876c0.465,0,0.846,0.381,0.846,0.846l0,0C158.205,328.799,157.825,329.18,157.359,329.18z"/>
		</g>
		<g>
			<path style="fill:#F0F0F0;" d="M160.63,391.3H79.359c-7.284,0-13.244-5.96-13.244-13.244l0,0c0-7.284,5.96-13.244,13.244-13.244
				h81.271c0.488,0,0.883,0.395,0.883,0.883v24.722C161.513,390.905,161.118,391.3,160.63,391.3z"/>
			<path style="fill:none;stroke:#D19740;stroke-width:4.3884;stroke-linecap:round;stroke-miterlimit:10;" d="M160.63,391.3H79.359
				c-7.284,0-13.244-5.96-13.244-13.244l0,0c0-7.284,5.96-13.244,13.244-13.244h81.271"/>
			<path style="fill:#FFFFFF;" d="M157.359,372.814H75.484c-0.465,0-0.846-0.381-0.846-0.846l0,0c0-0.466,0.381-0.846,0.846-0.846
				h81.876c0.465,0,0.846,0.381,0.846,0.846l0,0C158.205,372.433,157.825,372.814,157.359,372.814z"/>
			<path style="fill:#FFFFFF;" d="M157.359,376.522H75.484c-0.465,0-0.846-0.381-0.846-0.846l0,0c0-0.465,0.381-0.846,0.846-0.846
				h81.876c0.465,0,0.846,0.381,0.846,0.846l0,0C158.205,376.141,157.825,376.522,157.359,376.522z"/>
			<path style="fill:#FFFFFF;" d="M157.359,380.231H75.484c-0.465,0-0.846-0.381-0.846-0.846l0,0c0-0.465,0.381-0.846,0.846-0.846
				h81.876c0.465,0,0.846,0.381,0.846,0.846l0,0C158.205,379.85,157.825,380.231,157.359,380.231z"/>
			<path style="fill:#FFFFFF;" d="M157.359,383.94H75.484c-0.465,0-0.846-0.381-0.846-0.846l0,0c0-0.465,0.381-0.846,0.846-0.846
				h81.876c0.465,0,0.846,0.381,0.846,0.846l0,0C158.205,383.559,157.825,383.94,157.359,383.94z"/>
			<path style="fill:#FFFFFF;" d="M157.359,387.648H75.484c-0.465,0-0.846-0.381-0.846-0.846l0,0c0-0.465,0.381-0.846,0.846-0.846
				h81.876c0.465,0,0.846,0.381,0.846,0.846l0,0C158.205,387.267,157.825,387.648,157.359,387.648z"/>
		</g>
		<g>
			<path style="fill:#F0F0F0;" d="M74.433,361.63h81.271c7.284,0,13.244-5.96,13.244-13.244l0,0c0-7.284-5.96-13.244-13.244-13.244
				H74.433c-0.488,0-0.883,0.395-0.883,0.883v24.722C73.55,361.234,73.946,361.63,74.433,361.63z"/>
			<path style="fill:none;stroke:#1E4A89;stroke-width:4.3884;stroke-linecap:round;stroke-miterlimit:10;" d="M74.433,361.63
				h81.271c7.284,0,13.244-5.96,13.244-13.244l0,0c0-7.284-5.96-13.244-13.244-13.244H74.433"/>
			<path style="fill:#FFFFFF;" d="M77.704,343.143h81.876c0.465,0,0.846-0.381,0.846-0.846l0,0c0-0.465-0.381-0.846-0.846-0.846
				H77.704c-0.465,0-0.846,0.381-0.846,0.846l0,0C76.858,342.762,77.239,343.143,77.704,343.143z"/>
			<path style="fill:#FFFFFF;" d="M77.704,346.852h81.876c0.465,0,0.846-0.381,0.846-0.846l0,0c0-0.465-0.381-0.846-0.846-0.846
				H77.704c-0.465,0-0.846,0.381-0.846,0.846l0,0C76.858,346.471,77.239,346.852,77.704,346.852z"/>
			<path style="fill:#FFFFFF;" d="M77.704,350.56h81.876c0.465,0,0.846-0.381,0.846-0.846l0,0c0-0.465-0.381-0.846-0.846-0.846
				H77.704c-0.465,0-0.846,0.381-0.846,0.846l0,0C76.858,350.179,77.239,350.56,77.704,350.56z"/>
			<path style="fill:#FFFFFF;" d="M77.704,354.269h81.876c0.465,0,0.846-0.381,0.846-0.846l0,0c0-0.466-0.381-0.846-0.846-0.846
				H77.704c-0.465,0-0.846,0.381-0.846,0.846l0,0C76.858,353.888,77.239,354.269,77.704,354.269z"/>
			<path style="fill:#FFFFFF;" d="M77.704,357.978h81.876c0.465,0,0.846-0.381,0.846-0.846l0,0c0-0.465-0.381-0.846-0.846-0.846
				H77.704c-0.465,0-0.846,0.381-0.846,0.846l0,0C76.858,357.597,77.239,357.978,77.704,357.978z"/>
		</g>
	</g>
	<g>
		<path style="fill:#D1D8DA;" d="M291.497,393.744h-85.992c-5.261,0-9.566-4.305-9.566-9.566v-39.892
			c0-5.261,4.305-9.566,9.566-9.566h85.992c5.261,0,9.566,4.305,9.566,9.566v39.892
			C301.063,389.439,296.759,393.744,291.497,393.744z"/>
		<path style="fill:#E7EDEF;" d="M343.365,358.737H151.64c-5.261,0-9.566-4.305-9.566-9.566V233.973
			c0-5.261,4.305-9.566,9.566-9.566h191.724c5.261,0,9.566,4.305,9.566,9.566v115.197
			C352.93,354.432,348.626,358.737,343.365,358.737z"/>
		<path style="fill:#E7EDEF;" d="M343.365,358.737H151.64c-5.261,0-9.566-4.305-9.566-9.566V233.973
			c0-5.261,4.305-9.566,9.566-9.566h191.724c5.261,0,9.566,4.305,9.566,9.566v115.197
			C352.93,354.432,348.626,358.737,343.365,358.737z"/>
		
			<rect x="200.563" y="189.833" transform="matrix(-1.836970e-16 1 -1 -1.836970e-16 530.8062 35.8013)" style="fill:#FFFFFF;" width="93.878" height="186.941"/>
		<path style="fill:#D1D8DA;" d="M253.837,345.304c0,3.499-2.836,6.335-6.335,6.335c-3.499,0-6.335-2.836-6.335-6.335
			c0-3.499,2.836-6.335,6.335-6.335C251.001,338.969,253.837,341.805,253.837,345.304z"/>
		<path style="fill:#E2F7FF;" d="M281.15,246.796H161.746c-1.791,0-3.257-1.465-3.257-3.257l0,0c0-1.791,1.465-3.257,3.257-3.257
			H281.15c1.791,0,3.256,1.465,3.256,3.257l0,0C284.406,245.33,282.941,246.796,281.15,246.796z"/>
		<path style="fill:#E2F7FF;" d="M259.712,251.138H159.575c-0.597,0-1.086-0.488-1.086-1.085l0,0c0-0.597,0.488-1.086,1.086-1.086
			h100.136c0.597,0,1.086,0.488,1.086,1.086l0,0C260.797,250.649,260.309,251.138,259.712,251.138z"/>
		<path style="fill:#E2F7FF;" d="M259.712,318.482H159.575c-0.597,0-1.086-0.488-1.086-1.085l0,0c0-0.597,0.488-1.085,1.086-1.085
			h100.136c0.597,0,1.086,0.488,1.086,1.085l0,0C260.797,317.993,260.309,318.482,259.712,318.482z"/>
		<path style="fill:#E2F7FF;" d="M259.712,323.008H159.575c-0.597,0-1.086-0.488-1.086-1.085l0,0c0-0.597,0.488-1.086,1.086-1.086
			h100.136c0.597,0,1.086,0.488,1.086,1.086l0,0C260.797,322.519,260.309,323.008,259.712,323.008z"/>
		<path style="fill:#E2F7FF;" d="M274.84,312.611H168.056c-5.261,0-9.566-4.305-9.566-9.566v-39.356
			c0-5.261,4.305-9.566,9.566-9.566H274.84c5.261,0,9.566,4.305,9.566,9.566v39.356C284.406,308.306,280.102,312.611,274.84,312.611
			z"/>
		<path style="fill:#E2F7FF;" d="M334.61,246.796h-38.806c-1.791,0-3.257-1.465-3.257-3.257l0,0c0-1.791,1.465-3.257,3.257-3.257
			h38.806c1.791,0,3.257,1.465,3.257,3.257l0,0C337.867,245.33,336.401,246.796,334.61,246.796z"/>
		<path style="fill:#E2F7FF;" d="M336.781,251.138h-43.148c-0.597,0-1.085-0.488-1.085-1.085l0,0c0-0.597,0.488-1.086,1.085-1.086
			h43.148c0.597,0,1.086,0.488,1.086,1.086l0,0C337.867,250.649,337.378,251.138,336.781,251.138z"/>
		<path style="fill:#E2F7FF;" d="M330.449,271.219h-30.483c-4.08,0-7.418-3.338-7.418-7.418l0,0c0-4.08,3.338-7.418,7.418-7.418
			h30.483c4.08,0,7.418,3.338,7.418,7.418l0,0C337.867,267.881,334.529,271.219,330.449,271.219z"/>
		<path style="fill:#E2F7FF;" d="M326.433,311.133h-22.452c-6.289,0-11.434-5.145-11.434-11.434v-12.379
			c0-6.288,5.145-11.434,11.434-11.434h22.452c6.288,0,11.434,5.145,11.434,11.434v12.379
			C337.867,305.987,332.722,311.133,326.433,311.133z"/>
		<path style="fill:#CAD0D2;" d="M313.268,393.744H183.631c-2.41,0-4.382-1.972-4.382-4.382l0,0c0-2.41,1.972-4.382,4.382-4.382
			h129.636c2.41,0,4.382,1.972,4.382,4.382l0,0C317.65,391.772,315.678,393.744,313.268,393.744z"/>
	</g>
	<g>
		<polygon style="fill:#1F234F;" points="125.127,254.81 122.696,252.119 137.914,216.822 180.398,207.1 181.243,209.374 		"/>
		<path style="fill:#1E4A89;" d="M155.88,233.441l-30.753,21.369c0,0,14.584-35.525,15.377-35.541
			c0.793-0.016,40.74-9.895,40.74-9.895L155.88,233.441z"/>
		<path style="fill:#1F234F;" d="M136.382,244.06c0,0,6.975-25.307,30.436-28.826l6.024,7.758c0,0-10.462,1.806-15.535,14.287
			c0,0-11.413,3.24-14.901,12.616L136.382,244.06z"/>
		<path style="fill:#1F234F;" d="M124.841,247.144v32.029c0,0,1.554,0.634,1.554-0.793s0-31.237,0-31.237H124.841z"/>
		<path style="fill:#1F234F;" d="M125.682,280.415L125.682,280.415c-0.545,0-0.991-0.446-0.991-0.991l0,0
			c0-0.545,0.446-0.991,0.991-0.991l0,0c0.545,0,0.991,0.446,0.991,0.991l0,0C126.673,279.969,126.227,280.415,125.682,280.415z"/>
		<path style="fill:#1F234F;" d="M125.408,278.79c-0.238-0.066-2.061,3.897-1.11,5.165c0.951,1.268,0.951,1.268,0.951,1.268
			l0.159-0.634c0,0,0.507,1.585,0.491,1.902c0,0,2.331-3.329,0.777-6.816L125.408,278.79z"/>
	</g>
	<g>
		<path style="fill:#1F234F;" d="M369.351,394.428v-8.117c0-2.398,1.945-4.343,4.343-4.343h65.575c2.398,0,4.343,1.944,4.343,4.343
			v8.117H369.351z"/>
		<path style="fill:#1F234F;" d="M378.319,384.93v-3.855c0-2.015,1.634-3.649,3.649-3.649h50.495c2.015,0,3.649,1.634,3.649,3.649
			v2.727L378.319,384.93z"/>
		<path style="fill:#1F234F;" d="M415.687,388.198h-16.501c-5.977,0-10.867-4.89-10.867-10.867v0c0-5.977,4.89-10.867,10.867-10.867
			h16.501c5.977,0,10.867,4.89,10.867,10.867v0C426.554,383.307,421.664,388.198,415.687,388.198z"/>
		<path style="fill:#1E4A89;" d="M388.442,375.791h8.128c5.453,0,9.989-4.075,10.744-9.328h-8.128
			C393.733,366.464,389.197,370.539,388.442,375.791z"/>
		<g>
			<polygon style="fill:#1F234F;" points="421.376,366.263 415.042,364.073 439.924,292.092 400.839,229.122 356.569,223.559 
				357.404,216.91 404.847,222.872 447.3,291.268 			"/>
		</g>
		<polygon style="fill:#1E4A89;" points="417.434,362.533 442.316,290.552 403.231,227.582 358.96,222.019 359.568,217.181 
			357.404,216.91 356.569,223.559 400.839,229.122 439.924,292.092 415.042,364.073 421.376,366.263 422.107,364.149 		"/>
		<path style="fill:#FEF3C4;" d="M350.94,266.776L350.94,266.776c-5.772,0-10.495-4.723-10.495-10.495v-1.873
			c0-5.772,4.723-10.495,10.495-10.495l0,0c5.772,0,10.495,4.723,10.495,10.495v1.873
			C361.435,262.053,356.712,266.776,350.94,266.776z"/>
		<path style="fill:#FFB84E;" d="M350.94,243.913c-5.772,0-10.495,4.723-10.495,10.495v1.873c0,1.72,0.427,3.342,1.168,4.779
			c1.747-3.384,5.274-5.716,9.326-5.716c4.052,0,7.579,2.332,9.326,5.716c0.742-1.436,1.169-3.059,1.169-4.779v-1.873
			C361.435,248.636,356.712,243.913,350.94,243.913z"/>
		<path style="fill:#1F234F;" d="M362.226,234.911c0.042-0.396,0.064-0.797,0.064-1.204v-15.868c0-6.337-5.185-11.521-11.521-11.521
			s-11.521,5.185-11.521,11.521v15.868c0,0.406,0.023,0.808,0.064,1.204c-6.131,2.682-10.445,8.811-10.445,15.902v0.116
			c0,1.895,1.536,3.431,3.431,3.431h36.942c1.895,0,3.431-1.536,3.431-3.431v-0.116
			C372.671,243.722,368.357,237.592,362.226,234.911z"/>
		<path style="fill:#1E4A89;" d="M362.226,234.911c0.042-0.396,0.064-0.797,0.064-1.204v-15.868c0-5.797-4.343-10.616-9.933-11.398
			c-1.525,1.954-2.444,4.401-2.444,7.056v15.868c0,0.407,0.023,0.808,0.064,1.204c-6.131,2.682-10.445,8.811-10.445,15.902v0.116
			c0,1.895,1.536,3.431,3.431,3.431h29.677C372.332,243.268,368.126,237.491,362.226,234.911z"/>
		<path style="fill:#4480D6;" d="M358.27,233.467L358.27,233.467c-0.706,0-1.283-0.577-1.283-1.283v-16.826
			c0-0.706,0.577-1.283,1.283-1.283l0,0c0.706,0,1.283,0.577,1.283,1.283v16.826C359.553,232.889,358.975,233.467,358.27,233.467z"
			/>
		<path style="fill:#4480D6;" d="M352.708,247.954h-2.738c-0.659,0-1.198-0.539-1.198-1.198l0,0c0-0.659,0.539-1.198,1.198-1.198
			h2.738c0.659,0,1.198,0.539,1.198,1.198l0,0C353.906,247.415,353.367,247.954,352.708,247.954z"/>
		<path style="fill:#4480D6;" d="M367.868,247.954h-8.401c-0.659,0-1.198-0.539-1.198-1.198l0,0c0-0.659,0.539-1.198,1.198-1.198
			h8.401c0.659,0,1.198,0.539,1.198,1.198l0,0C369.066,247.415,368.527,247.954,367.868,247.954z"/>
		<path style="fill:#1E4A89;" d="M402.75,234.679L402.75,234.679c-4.775,0-8.682-3.907-8.682-8.682v0
			c0-4.775,3.907-8.682,8.682-8.682l0,0c4.775,0,8.682,3.907,8.682,8.682v0C411.431,230.772,407.525,234.679,402.75,234.679z"/>
		<path style="fill:#1F234F;" d="M405.864,231.438L405.864,231.438c-3.947,0-7.176-3.229-7.176-7.176l0,0
			c0-3.236,2.172-5.986,5.128-6.873c-0.35-0.044-0.705-0.073-1.067-0.073l0,0c-4.775,0-8.682,3.907-8.682,8.682
			c0,4.775,3.907,8.682,8.682,8.682l0,0c3.489,0,6.507-2.09,7.884-5.077C409.362,230.738,407.693,231.438,405.864,231.438z"/>
		<path style="fill:#4480D6;" d="M406.151,224.569L406.151,224.569c-1.004,0-1.825-0.821-1.825-1.825v-0.685
			c0-1.004,0.821-1.825,1.825-1.825l0,0c1.004,0,1.825,0.821,1.825,1.825v0.685C407.976,223.748,407.155,224.569,406.151,224.569z"
			/>
		<path style="fill:#1E4A89;" d="M443.11,300.733L443.11,300.733c-4.775,0-8.682-3.907-8.682-8.682l0,0
			c0-4.775,3.907-8.682,8.682-8.682l0,0c4.775,0,8.682,3.907,8.682,8.682l0,0C451.791,296.826,447.885,300.733,443.11,300.733z"/>
		<path style="fill:#1F234F;" d="M445.934,297.223c-3.947,0-7.176-3.229-7.176-7.176v0c0-3.018,1.891-5.611,4.544-6.667
			c-0.064-0.001-0.127-0.01-0.192-0.01h0c-4.775,0-8.681,3.907-8.681,8.682c0,4.775,3.907,8.682,8.681,8.682h0
			c3.847,0,7.127-2.538,8.258-6.021C450.049,296.245,448.102,297.223,445.934,297.223z"/>
		<path style="fill:#4480D6;" d="M445.891,292.257L445.891,292.257c-1.459,0-2.652-1.194-2.652-2.652l0,0
			c0-1.459,1.193-2.652,2.652-2.652l0,0c1.459,0,2.652,1.194,2.652,2.652l0,0C448.543,291.063,447.35,292.257,445.891,292.257z"/>
		<path style="fill:#1E4A89;" d="M418.209,373.85L418.209,373.85c-4.775,0-8.682-3.907-8.682-8.682l0,0
			c0-4.775,3.907-8.682,8.682-8.682l0,0c4.775,0,8.682,3.907,8.682,8.682l0,0C426.891,369.944,422.984,373.85,418.209,373.85z"/>
		<path style="fill:#1F234F;" d="M423.342,369.391c-4.775,0-8.682-3.907-8.682-8.682c0-1.363,0.327-2.65,0.893-3.801
			c-3.486,1.129-6.026,4.41-6.026,8.26c0,4.775,3.907,8.682,8.682,8.682l0,0c3.412,0,6.372-2,7.789-4.881
			C425.159,369.241,424.268,369.391,423.342,369.391z"/>
		<path style="fill:#4480D6;" d="M421.665,363.623L421.665,363.623c-1.223,0-2.224-1.001-2.224-2.224l0,0
			c0-1.223,1.001-2.224,2.224-2.224l0,0c1.223,0,2.224,1.001,2.224,2.224l0,0C423.889,362.622,422.888,363.623,421.665,363.623z"/>
		<path style="fill:#1E4A89;" d="M430.831,380.05v-2.624h-48.863c-2.015,0-3.649,1.634-3.649,3.649l0,0L430.831,380.05z"/>
		<path style="fill:#1E4A89;" d="M436.573,386.31v-4.343h-62.878c-2.399,0-4.343,1.945-4.343,4.343l0,0H436.573z"/>
		<path style="fill:#FFFFFF;" d="M352.603,264.722h-4.744c-0.909,0-1.653-0.744-1.653-1.653v-0.357c0-0.909,0.744-1.653,1.653-1.653
			h4.744c0.909,0,1.653,0.744,1.653,1.653v0.357C354.256,263.979,353.512,264.722,352.603,264.722z"/>
	</g>
	<g>
		<path style="fill:#F0F0F0;" d="M308.057,395.192h-81.182v-14.643h73.86c4.027,0,7.322,3.295,7.322,7.322V395.192z"/>
		<path style="fill:#F0F0F0;" d="M305.658,395.192h81.182v-14.643h-73.86c-4.027,0-7.322,3.295-7.322,7.322V395.192z"/>
		<path style="fill:none;stroke:#1E4A89;stroke-width:4.3884;stroke-linecap:round;stroke-miterlimit:10;" d="M226.899,395.192
			h71.253c0,0,11.992,6.714,18.707,0h71.439"/>
	</g>
	<g>
		<path style="fill:#292E68;" d="M354.659,414.507c0,0,1.796,8.597,3.608,10.541c1.812,1.944,4.804,6.686,2.092,9.565
			c-2.711,2.88-8.894-3.386-10.486-6.079c-1.592-2.693-4.635-8.08-7.212-10.458c-2.577-2.378,4.145-9.829,4.145-9.829
			S354.82,402.06,354.659,414.507z"/>
		<path style="fill:#292E68;" d="M328.973,413.767c0,0,3.13,8.206,5.225,9.84c2.095,1.634,5.798,5.844,3.575,9.116
			c-2.223,3.271-9.317-1.941-11.314-4.349c-1.997-2.409-5.851-7.247-8.771-9.189c-2.919-1.942,2.543-10.36,2.543-10.36
			S327.169,401.45,328.973,413.767z"/>
		<path style="fill:#9B5B2E;" d="M353.995,403.589c0,0-0.854,7.729-2.036,9.068c-1.182,1.34-7.71,1.031-5.174-11.838
			C349.32,387.951,353.995,403.589,353.995,403.589z"/>
		<path style="fill:#F5B399;" d="M362.844,327.291c0,0,7.04,10.964,6.79,16.118c-0.25,5.155-10.162,2.216-10.618,1.244
			c-0.456-0.972-5.11-10.165-4.142-13.524C355.841,327.77,360.909,325.413,362.844,327.291z"/>
		<path style="fill:#FFC7B1;" d="M369.672,342.37c0,0-4.671-8.602-13.665-4.859c-8.994,3.742-17.286,5.866-17.27,7.393
			c0.016,1.527,1.285,4.568,3.975,4.54C345.403,349.415,372.076,351.433,369.672,342.37z"/>
		<path style="fill:#FEF3C4;" d="M345.102,309.793c0,0,9.047,0.102,13.661,5.896c4.615,5.795,6.654,11.697,8.371,12.985
			c1.717,1.288,5.718,14.892,2.506,16.854c-3.212,1.962-13.398-0.577-13.774-4.191c-0.376-3.614-4.44-9.336-4.44-9.336
			s-4.685-3.049-5.059-5.817C345.993,323.416,341.794,309.3,345.102,309.793z"/>
		<path style="fill:#FEF3C4;" d="M370.642,343.887c0,0-2.972-7.368-7.372-7.32c-4.4,0.049-7.526-0.487-9.658,1.122
			s-16.832,2.553-14.587,8.681c2.245,6.128,8.902,3.784,11.474,3.497c2.572-0.286,16.353,1.021,20.142-5.525"/>
		<path style="fill:#6175BF;" d="M351.297,358.256c0,0,15.32,22.576-11.957,22.81c-21.402,0.184-26.037-7.695-25.533-10.132
			c0.504-2.437,2.499-14.508,2.499-14.508L351.297,358.256z"/>
		<path style="fill:#9B5B2E;" d="M340.408,304.143c0,0-0.254,5.2,0,6.132c0.255,0.932-2.393,17.222-7.763,17.222
			c-4.378,0-8.145-15.226-8.272-17.222c-0.127-1.996,1.527-8.359,1.527-8.359S340.408,298.011,340.408,304.143z"/>
		<path style="fill:#F5B399;" d="M304.499,334.11c0,0-3.982,12.028-2.527,18.76c1.455,6.732,10.124,4.578,10.34,3.186
			c0.216-1.392,2.595-14.644,0.862-18.834C311.441,333.031,305.944,331.163,304.499,334.11z"/>
		<path style="fill:#FFB84E;" d="M327.043,316.198c0,0,5.661,6.952,5.46,9.979c-0.2,3.027,1.521,44.074,1.415,47.128
			c-0.106,3.054-19.262-0.255-19.941-6.364c-0.679-6.109,2.109-38.044,0.509-40.764c-4.796-8.157,1.008-10.01,8.681-14.951
			C323.167,311.226,324.327,316.088,327.043,316.198z"/>
		<path style="fill:#9B5B2E;" d="M321.35,290.783c0,0-2.449-5.898-3.595-4.828c-1.145,1.07-0.075,9.337,3.208,9.276
			C324.245,295.17,321.35,290.783,321.35,290.783z"/>
		<path style="fill:#9B5B2E;" d="M344.339,290.783c0,0,2.449-5.898,3.595-4.828c1.145,1.07,0.075,9.337-3.207,9.276
			C341.444,295.17,344.339,290.783,344.339,290.783z"/>
		<path style="fill:#FFB84E;" d="M337.863,316.696c0,0-5.661,6.952-5.461,9.979c0.2,3.027-0.111,43.575-0.005,46.63
			c0.106,3.054,18.22,1.638,18.899-4.471c0.679-6.109-1.555-39.077-0.876-42.159c0.679-3.082,0.413-10.508-7.26-15.449
			C343.16,311.226,340.578,316.587,337.863,316.696z"/>
		<path style="fill:#AF7B57;" d="M345.753,284.734c0,0,0.339,13.636-1.188,16.545c-1.527,2.908-4.666,6.692-9.757,8.055
			c-5.091,1.363-11.539-5.527-12.811-7.207c-1.273-1.679-2.461-14.339-1.697-17.393C321.064,281.68,340.917,277.862,345.753,284.734
			z"/>
		<path style="fill:#312014;" d="M330.78,295.47l0.073-1.651c0,0-4.439-0.457-5.382-0.237c-0.944,0.22-1.965,1.317-1.746,1.605
			c0.219,0.288,2.145-1.022,2.89-0.589C327.36,295.031,330.78,295.47,330.78,295.47z"/>
		<path style="fill:#312014;" d="M336.258,295.166l-0.126-1.648c0,0,4.421-0.601,5.372-0.412c0.951,0.189,2.007,1.252,1.797,1.547
			c-0.209,0.295-2.177-0.952-2.908-0.495C339.662,294.616,336.258,295.166,336.258,295.166z"/>
		<path style="fill:none;stroke:#9B5B2E;stroke-width:0.6305;stroke-linecap:round;stroke-miterlimit:10;" d="M335.487,294.516
			l-1.188,1.859c0,0,0.679,5.243,0.594,5.667c-0.085,0.424-1.169,1.188-1.942,1.188s-2.13-0.527-2.13-0.527"/>
		<path style="fill:#312014;" d="M337.354,296.061c0,0.285,0.461,0.515,1.03,0.515c0.569,0,1.03-0.231,1.03-0.515
			c0-0.285-0.461-0.515-1.03-0.515C337.815,295.546,337.354,295.777,337.354,296.061z"/>
		<path style="fill:#312014;" d="M327.606,296.375c0,0.284,0.461,0.515,1.03,0.515c0.569,0,1.03-0.231,1.03-0.515
			c0-0.285-0.461-0.515-1.03-0.515C328.067,295.86,327.606,296.091,327.606,296.375z"/>
		<path style="fill:none;stroke:#9B5B2E;stroke-width:0.6305;stroke-linecap:round;stroke-miterlimit:10;" d="M336.717,304.143
			c0,0-2.33,2.036-7.051,0.509"/>
		<path style="fill:#FFFFFF;" d="M347.929,360.064c0,0,2.927-15.507,1.944-16.366c-0.983-0.859-25.058-0.215-26.542,0
			s3.788,18.113,3.943,18.822c0.154,0.709,18.505-0.579,19.471-0.901C347.71,361.298,347.763,360.965,347.929,360.064z"/>
		<path style="fill:#FFC7B1;" d="M301.833,353.497c0,0,2.521-5.23,12.086-3.391c9.566,1.84,18.117,2.237,18.411,3.735
			c0.294,1.499-0.024,3.807-2.664,4.325C327.026,358.685,301.317,362.86,301.833,353.497z"/>
		<path style="fill:#AF7B57;" d="M327.606,354.603c0,0-1.197-3.236,1.03-4.736c2.227-1.5,5.282-3.918,5.791-4.3
			c0.509-0.382,2.453,2.169,0,3.436c-2.453,1.267-1.145,1.909-1.145,1.909s4.803-0.945,5.456-1.045
			c0.653-0.1,8.188-3.463,8.107-1.882c-0.081,1.581-2.109,2.081-2.109,2.081s5.087-1.497,4.834-0.453
			c-0.253,1.045-2.726,2.572-2.726,2.572s1.345,1.909,0,2.418c-1.345,0.509-5.352,3.309-9.266,3.563
			c-3.915,0.255-6.181-0.127-7.911,0C327.936,358.294,327.606,354.603,327.606,354.603z"/>
		<path style="fill:#292E68;" d="M343.972,360.861c0,0,12.11-5.586,18.219-1.868c6.109,3.718,6.915,24.558-16.405,22.073
			C322.465,378.581,339.943,362.301,343.972,360.861z"/>
		<path style="fill:#292E68;" d="M335.644,368.649c0,0,7.275-9.541,0.303-10.111c-12.456-1.017-19.6,2.275-21.97,8.402
			c-2.891,7.477,2.203,14.129,10.389,15.395C335.428,384.048,340.391,377.632,335.644,368.649z"/>
		<path style="fill:#1E4A89;" d="M359.123,357.99c0,0,8.935,0.202,6.576,13.156c-2.556,14.035-8.72,36.879-10.456,36.582
			c-1.735-0.297-8.2,4.09-8.809-4.8c-0.602-8.779,3.562-19.348,2.822-30.004c-0.74-10.656,9.07-14.53,9.07-14.53L359.123,357.99z"/>
		<path style="fill:#63438F;" d="M345.763,293.084c-0.314,0.16-0.439,0.544-0.279,0.858c0.16,0.314,0.544,0.439,0.858,0.279
			c0.314-0.16,0.439-0.544,0.279-0.858C346.461,293.049,346.077,292.924,345.763,293.084z"/>
		
			<rect x="335.947" y="294.604" transform="matrix(-1 -1.224647e-16 1.224647e-16 -1 679.4587 592.7504)" style="fill:none;stroke:#292E68;stroke-width:1.2609;stroke-miterlimit:10;" width="7.566" height="3.541"/>
		
			<rect x="323.49" y="294.604" transform="matrix(-1 -1.224647e-16 1.224647e-16 -1 654.5467 592.7504)" style="fill:none;stroke:#292E68;stroke-width:1.2609;stroke-miterlimit:10;" width="7.566" height="3.541"/>
		<path style="fill:none;stroke:#292E68;stroke-width:1.2609;stroke-miterlimit:10;" d="M335.947,296.375c0,0-2.335-1.996-4.89,0"/>
		<polyline style="fill:none;stroke:#292E68;stroke-width:1.2609;stroke-miterlimit:10;" points="323.331,296.577 321.494,296.577 
			319.49,287.603 		"/>
		<polyline style="fill:none;stroke:#292E68;stroke-width:1.2609;stroke-miterlimit:10;" points="343.488,296.061 345.211,295.86 
			347.642,287.375 		"/>
		<path style="fill:#FEF3C4;" d="M323.167,311.226c0,0-13.322,5.108-15.584,10.259c-2.262,5.151-3.55,8.156-4.408,10.517
			c-0.858,2.361-3.39,9.67-2.929,13.528c0.461,3.857-0.184,7.584,1.58,8.587c1.764,1.003,11.282,1.346,11.946-2.223
			c0.664-3.57-0.687-9.038,1.05-12.488c3.727-7.405-0.341-16.847,0.947-19.422C317.056,317.406,323.167,311.226,323.167,311.226z"/>
		<path style="fill:#FEF3C4;" d="M300.819,351.254c0,0-0.543,0.923,3.535-0.902c4.078-1.824,5.366-1.932,7.19-1.395
			c1.824,0.536,5.547,2.146,8.515,1.395c2.968-0.751,5.948,0.467,5.907,1.682c-0.041,1.215,0.901,7.976,0,8.03
			c-0.9,0.054-1.714-0.582-4.473,0.97c-2.759,1.552-18.213-1.301-19.668-3.554C300.37,355.227,300.819,351.254,300.819,351.254z"/>
		<path style="fill:#FEF7D9;" d="M325.58,351.254h1.693c0,0,4.769,5.999,2.837,7.002c-1.932,1.003-5.745,1.291-5.745,1.291
			L325.58,351.254z"/>
		<path style="fill:#FEF3C4;" d="M324.735,307.102c0,0-0.815,7.407,2.871,9.124c3.685,1.717,6.224,5.887,5.586,7.57
			c-0.637,1.683,1.167,2.136-0.689,2.38c-1.856,0.245-0.89-5.121-5.612-6.087c-4.722-0.966-8.818-3.704-8.54-5.876
			c0.277-2.172,3.06-5.447,3.06-5.447S323.974,305.813,324.735,307.102z"/>
		<path style="fill:#FEF3C4;" d="M340.299,307.678c0,0,1.675-0.619,2.861,0.5c0,0,2.585,1.436,2.892,3.541
			c0.307,2.105-1.561,5.58-3.493,6.332c-1.932,0.751-8.577,5.766-9.367,7.195c-0.79,1.429-1.129-1.937,0.31-3.547
			c1.438-1.61,0.879-3.249,3.949-5.219C340.52,314.509,340.195,309.763,340.299,307.678z"/>
		<path style="fill:#9B5B2E;" d="M328.573,403.589c0,0-0.854,7.729-2.036,9.068c-1.182,1.34-7.71,1.031-5.174-11.838
			C323.898,387.951,328.573,403.589,328.573,403.589z"/>
		<path style="fill:#1E4A89;" d="M333.701,357.99c0,0,8.935,0.202,6.576,13.156c-2.556,14.035-8.72,36.879-10.456,36.582
			c-1.736-0.297-8.2,4.09-8.809-4.8c-0.602-8.779,3.562-19.348,2.821-30.004c-0.74-10.656,9.069-14.53,9.069-14.53L333.701,357.99z"
			/>
		<path style="fill:#312014;" d="M318.49,284.802c0,0.263,0.138,0.485,0.337,0.627c-0.071,0.118-0.123,0.249-0.123,0.396
			c0,0.191,0.077,0.36,0.19,0.496c-0.114,0.136-0.19,0.305-0.19,0.496c0,0.268,0.143,0.492,0.347,0.634
			c-0.125,0.139-0.206,0.318-0.206,0.52c0,0.239,0.113,0.446,0.282,0.59c-0.042,0.096-0.066,0.201-0.066,0.313
			c0,0.289,0.164,0.532,0.397,0.668c-0.109,0.135-0.183,0.299-0.183,0.486c0,0.336,0.213,0.617,0.509,0.729
			c-0.03,0.042-0.067,0.077-0.088,0.126c-0.171,0.393,0.007,0.848,0.395,1.026c0.039,0.199,0.16,0.38,0.36,0.467
			c0.323,0.141,0.699-0.007,0.84-0.33c0.047-0.109,0.049-0.221,0.033-0.33c0.072-0.014,0.144-0.01,0.215-0.038
			c0.635-0.248,0.948-0.964,0.7-1.599c-0.054-0.137-0.138-0.252-0.23-0.357c0.29-0.335,0.402-0.807,0.23-1.249
			c-0.038-0.098-0.105-0.172-0.163-0.253c0.02-0.007,0.04-0.003,0.06-0.01c0.43-0.168,0.693-0.555,0.754-0.981
			c0.323,0.439,0.895,0.64,1.426,0.432c0.143-0.056,0.264-0.142,0.372-0.24c0.009,0.029,0.004,0.059,0.015,0.088
			c0.248,0.635,0.964,0.948,1.599,0.7c0.109-0.043,0.195-0.115,0.284-0.183c0.311,0.485,0.912,0.715,1.469,0.498
			c0.186-0.073,0.334-0.193,0.459-0.333c0.002,0.006,0.001,0.012,0.003,0.018c0.248,0.635,0.964,0.948,1.599,0.7
			c0.209-0.082,0.366-0.225,0.497-0.388c0.286,0.556,0.937,0.828,1.532,0.596c0.282-0.11,0.487-0.321,0.621-0.568
			c0.332,0.391,0.876,0.557,1.38,0.36c0.187-0.073,0.335-0.195,0.46-0.335c0.334,0.374,0.87,0.529,1.364,0.335
			c0.186-0.073,0.334-0.193,0.458-0.332c0.33,0.243,0.761,0.335,1.171,0.175c0.327-0.128,0.564-0.382,0.688-0.684
			c0.196,0.131,0.418,0.225,0.67,0.225c0.604,0,1.083-0.442,1.19-1.014c0.219,0.196,0.5,0.323,0.816,0.323
			c0.425,0,0.782-0.229,1.004-0.556c0.178,0.1,0.373,0.172,0.592,0.172c0.061,0,0.113-0.026,0.171-0.035
			c0.029,0.276,0.133,0.546,0.347,0.756c0.105,0.103,0.229,0.174,0.356,0.232c-0.128,0.425-0.036,0.901,0.302,1.234
			c0.075,0.073,0.166,0.114,0.252,0.164c-0.015,0.014-0.035,0.019-0.05,0.034c-0.477,0.487-0.47,1.268,0.016,1.745
			c0.264,0.259,0.613,0.362,0.954,0.337c0.412,1.673,0.77,2.948,0.861,2.81c0.052-0.078,0.118-0.364,0.191-0.766
			c0.215,0.108,0.471,0.128,0.702,0.011c0.386-0.197,0.54-0.669,0.344-1.055c-0.024-0.048-0.064-0.08-0.096-0.121
			c0.289-0.13,0.485-0.423,0.465-0.758c-0.011-0.186-0.095-0.346-0.212-0.474c0.225-0.15,0.374-0.401,0.357-0.69
			c-0.007-0.111-0.037-0.215-0.085-0.308c0.16-0.154,0.26-0.367,0.246-0.606c-0.012-0.201-0.104-0.375-0.237-0.507
			c0.195-0.154,0.324-0.386,0.309-0.654c-0.012-0.191-0.098-0.355-0.22-0.484c0.105-0.143,0.172-0.316,0.16-0.507
			c-0.009-0.147-0.068-0.275-0.146-0.388c0.19-0.154,0.315-0.383,0.299-0.647c-0.009-0.149-0.07-0.277-0.149-0.392
			c0.151-0.153,0.244-0.362,0.23-0.593c-0.018-0.308-0.216-0.558-0.483-0.67c0.16-0.318,0.248-0.677,0.225-1.058
			c-0.025-0.423-0.177-0.808-0.412-1.124c-0.004-0.193-0.04-0.377-0.095-0.554c0.029-0.144,0.047-0.291,0.038-0.445
			c-0.042-0.707-0.506-1.288-1.131-1.517c-0.052-1.206-0.829-2.216-1.912-2.611c-0.023-1.175-0.979-2.121-2.16-2.121
			c-0.026,0-0.051,0.007-0.077,0.008c-0.1-0.504-0.344-0.986-0.736-1.377c-0.802-0.803-1.984-0.988-2.967-0.565
			c-0.158-0.7-0.754-1.234-1.502-1.234c-0.201,0-0.389,0.046-0.566,0.114c-0.309-0.347-0.746-0.575-1.247-0.575
			c-0.485,0-0.915,0.211-1.222,0.539c-0.535-0.54-1.276-0.876-2.096-0.876c-1.035,0-1.942,0.535-2.468,1.341
			c-0.373-0.403-0.902-0.659-1.495-0.659c-0.839,0-1.558,0.507-1.873,1.23c-0.276,0.041-0.51,0.212-0.614,0.462
			c-0.021-0.001-0.04-0.006-0.06-0.006c-0.886,0-1.665,0.453-2.121,1.139c-0.08-0.016-0.155-0.048-0.24-0.048
			c-0.466,0-0.857,0.27-1.063,0.653c-0.991,0.224-1.733,1.106-1.733,2.165c0,0.19,0.031,0.372,0.076,0.548
			c-0.669,0.238-1.15,0.87-1.15,1.621c0,0.277,0.072,0.536,0.188,0.768c-0.326,0.369-0.529,0.848-0.529,1.379
			c0,0.382,0.11,0.734,0.288,1.043c-0.259,0.128-0.442,0.389-0.442,0.698c0,0.232,0.105,0.435,0.265,0.579
			C318.543,284.521,318.49,284.653,318.49,284.802z M322.663,286.343c-0.032-0.044-0.051-0.098-0.088-0.137
			c0.049-0.027,0.094-0.057,0.139-0.089C322.689,286.19,322.674,286.266,322.663,286.343z"/>
	</g>
	<g>
		<path style="fill:#F5B399;" d="M106.367,133.615c0,0,8.731-10.446,9.497-11.699c0.766-1.253-9.667-23.072-8.208-25.24
			c1.458-2.169,4.28-2.633,4.52-1.599c0.24,1.035,13.934,29.705,13.464,30.704c-0.471,0.998-11.607,16.652-13.784,18.133
			C109.678,145.396,103.089,137.559,106.367,133.615z"/>
		<path style="fill:#D19740;" d="M98.01,137.647c0,0,3.585-7.602,9.319-11.948c5.734-4.346,3.346-4.418,5.734-4.346
			c2.388,0.072-4.225-3.285-4.93-9.047c-0.704-5.762-2.53-12.103-1.694-12.04c0.837,0.063,4.599-3.722,7.141-3.954
			c2.541-0.232,5.922,10.392,7.531,12.324c1.61,1.932,8.532,13.2,7.727,17.707c-0.805,4.507-12.244,22.716-17.793,25.282
			C105.497,154.191,98.01,137.647,98.01,137.647z"/>
		<path style="fill:#FFDDD0;" d="M102.121,88.704c0,0-1.747-1.157-2.582-2.367c-0.835-1.21-3.808-2.47-4.176-3.119
			c-0.368-0.649,0.034-1.107,1.343-0.806c1.31,0.301,3.42,1.643,3.972,2.019c0.552,0.376,3.6,3.643,3.6,3.643
			S103.226,89.542,102.121,88.704z"/>
		<path style="fill:#FFDDD0;" d="M102.588,87.39c0,0-1.747-1.157-2.582-2.367c-0.835-1.21-3.808-2.47-4.176-3.119
			c-0.368-0.649,0.034-1.107,1.343-0.806c1.31,0.301,3.42,1.643,3.972,2.019c0.552,0.376,3.6,3.643,3.6,3.643
			S103.694,88.229,102.588,87.39z"/>
		<path style="fill:#FFDDD0;" d="M104.283,86.591c0,0-1.747-1.157-2.582-2.367c-0.835-1.21-3.808-2.47-4.176-3.119
			c-0.368-0.649,0.034-1.107,1.343-0.806c1.31,0.301,3.42,1.643,3.972,2.019c0.552,0.376,3.6,3.643,3.6,3.643
			S105.388,87.429,104.283,86.591z"/>
		<g>
			<path style="fill:#1F234F;" d="M68.713,59.722L68.713,59.722c0.398-0.443,1.017-0.613,1.585-0.436l22.799,7.116
				c0.463,0.144,0.829,0.501,0.986,0.96l9.154,26.769l-0.47,0.233c-0.585,0.29-1.29,0.174-1.752-0.287L68.769,61.814
				C68.198,61.242,68.173,60.324,68.713,59.722z"/>
			<path style="fill:#1E4A89;" d="M83.986,79.616L71.131,64.713c-0.993-1.15,0.126-2.885,1.583-2.452
				c7.183,2.135,19.631,5.886,19.678,6.259c0.046,0.37,4.708,13.335,7.447,20.931c0.53,1.469-1.235,2.679-2.422,1.665L84.15,79.779
				C84.091,79.729,84.037,79.674,83.986,79.616z"/>
			<path style="fill:#1F234F;" d="M76.629,67.714c3.608,0.849,16.269,4.667,20.02,17.088c0.163,0.541-0.006,1.134-0.414,1.526
				l-2.5,2.399c-0.725,0.696-1.901,0.512-2.386-0.369c-1.166-2.119-3.774-5.506-9.08-7.241c-0.394-0.129-0.731-0.399-0.91-0.773
				c-0.742-1.546-3.101-5.822-7.301-7.772c-0.886-0.411-1.156-1.54-0.553-2.309l1.574-2.008
				C75.447,67.787,76.049,67.578,76.629,67.714z"/>
			<path style="fill:#1F234F;" d="M71.937,59.32l1.053,21.333c0,0,1.056,0.371,1.009-0.579c-0.047-0.95-1.027-20.805-1.027-20.805
				L71.937,59.32z"/>
			<path style="fill:#1F234F;" d="M73.591,81.452L73.591,81.452c-0.363,0.018-0.675-0.264-0.692-0.627l0,0
				c-0.018-0.363,0.264-0.675,0.627-0.692l0,0c0.363-0.018,0.674,0.264,0.692,0.627l0,0C74.237,81.123,73.954,81.435,73.591,81.452z
				"/>
			<path style="fill:#1F234F;" d="M73.356,80.379c-0.16-0.036-1.244,2.663-0.569,3.477c0.675,0.813,0.675,0.813,0.675,0.813
				l0.085-0.427c0,0,0.39,1.039,0.39,1.251c0,0,1.443-2.294,0.293-4.565L73.356,80.379z"/>
		</g>
		<path style="fill:#FFDDD0;" d="M107.152,97.859c0,0-4.852-1.966-5.331-2.765c-0.48-0.799,0.654-3.899-0.089-6.266
			c-0.743-2.367,4.052-4.702,4.548-4.782c0.495-0.08,4.767,9.879,4.767,9.879S109.253,97.236,107.152,97.859z"/>
		<path style="fill:#1F234F;" d="M115.317,202.831c0,0-7.917,3.675-12.329,2.549c-4.412-1.127,9.915-21.892,9.915-21.892
			S119.985,197.385,115.317,202.831z"/>
		<path style="fill:#F5B399;" d="M85.351,294.392l0.642,5.602c0,0,5.076,4.164,8.096,0.425l-1.081-6.924L85.351,294.392z"/>
		<path style="fill:#F5B399;" d="M108.683,292.617l0.642,5.602c0,0,5.076,4.164,8.096,0.425l-1.082-6.924L108.683,292.617z"/>
		<path style="fill:#292E68;" d="M81.105,203.411c0,0-1.228,15.554,6.298,17.751c7.527,2.197,20.061,2.067,21.894-1.029
			c1.833-3.097,2.242-18.337,2.242-18.337L81.105,203.411z"/>
		<path style="fill:#292E68;" d="M81.09,203.688l-2.232,42.48l5.349,48.163c0,0,3.128,6.289,12.013,0.631
			c0,0-3.313-42.489-3.141-46.377c0.172-3.888,3.285-31.866,3.285-31.866L81.09,203.688z"/>
		<path style="fill:#292E68;" d="M111.539,201.796c0,0,7.129,45.675,6.615,50.636c-0.514,4.96-0.448,40.796-0.448,40.796
			s-3.504,4.071-11.091,2.281l-1.764-41.85c0,0-5.837-32.442-6.52-33.392C97.648,219.317,111.539,201.796,111.539,201.796z"/>
		<path style="fill:#292E68;" d="M109.238,297.462c0,0-1.748,6.166-0.43,8.184c1.318,2.018,10.47,2.686,11.465,2.297
			c0.995-0.389,13.238,2.369,15.953,1.036c2.715-1.332-3.349-5.131-6.038-6.943c-2.689-1.812-13.171-5.981-13.171-5.981
			S111.194,299.271,109.238,297.462z"/>
		<path style="fill:#292E68;" d="M85.847,298.717c0,0,5.218,1.593,7.939-0.238c0,0,3.245,8.358,1.72,10.087
			c-1.525,1.729-4.433,1.437-4.067,2.431c0.365,0.993-6.502,4.53-11.66,2.032C74.621,310.531,80.272,307.317,85.847,298.717z"/>
		<path style="fill:#F5B399;" d="M63.431,174.478c0,0-0.71,20.159,2.262,22.108c2.973,1.95,8.126-3.308,8.324-22.381
			C74.216,155.132,63.431,174.478,63.431,174.478z"/>
		<path style="fill:#292E68;" d="M67.435,150.783c0,0-6.696,15.051-3.723,24.763c0,0,4.757,4.166,11.099,1.885
			c0,0,1.665-7.674,1.824-8.842C76.793,167.42,67.435,150.783,67.435,150.783z"/>
		<path style="fill:#FFC7B1;" d="M82.63,133.924l0.955,12.702c0,0,3.98,2.421,7.005,1.313c3.025-1.108,3.184-1.729,3.184-1.729
			l-2.706-13.78L82.63,133.924z"/>
		<path style="fill:#FFDDD0;" d="M73.237,120.012c0,0-2.229-6.208,0-11.744c2.229-5.536,18.467-6.476,20.696-1.389
			c2.229,5.087,2.229,8.253,2.229,8.253s2.547-3.202,4.298,0c1.751,3.201-2.547,6.287-2.547,6.287s1.273,15.54-8.119,16.814
			c-9.393,1.274-15.442-11.86-15.442-11.86s-3.502,0.203-4.617-2.406C68.62,121.359,69.416,118.347,73.237,120.012z"/>
		<path style="fill:#312014;" d="M88.998,115.545c0,0,3.423-0.43,4.059-0.412c0.637,0.018,1.99,0.968,2.229,1.527
			c0.239,0.56-1.433-0.307-1.91-0.391s-3.98,1.085-4.378,0.898C88.6,116.981,87.899,115.678,88.998,115.545z"/>
		<path style="fill:#312014;" d="M82.98,115.737c0,0-3.322,0.929-3.902,1.192s-1.46,1.663-1.463,2.271
			c-0.003,0.609,1.202-0.838,1.61-1.1c0.408-0.263,4.089-0.542,4.384-0.868C83.903,116.907,84.044,115.434,82.98,115.737z"/>
		<path style="fill:none;stroke:#F5B399;stroke-width:0.6647;stroke-linecap:round;stroke-miterlimit:10;" d="M88.409,117.509
			c0,0-0.525,0.791-0.207,1.962c0.318,1.171,2.866,6.425,2.229,6.903c-0.637,0.478-2.229,1.751-3.264,0.318"/>
		<path style="fill:#312014;" d="M83.608,119.971c0,0.531-0.43,0.961-0.961,0.961c-0.53,0-0.961-0.43-0.961-0.961
			c0-0.53,0.43-0.961,0.961-0.961C83.178,119.011,83.608,119.441,83.608,119.971z"/>
		<path style="fill:#312014;" d="M93.169,119.256c0,0.53-0.43,0.961-0.961,0.961c-0.53,0-0.96-0.43-0.96-0.961
			c0-0.53,0.43-0.96,0.96-0.96C92.739,118.296,93.169,118.726,93.169,119.256z"/>
		<path style="fill:#FFFFFF;" d="M83.234,141.96c0,0-0.706,3.14,5.176,2.517c5.882-0.623,4.336-3.497,4.336-3.497
			s7.171-8.551,14.583-1.492c5.041,4.801,4.368,24.071,3.704,28.214c-0.664,4.143,0.255,34.032,0.255,34.032
			s-10.546,10.959-30.307,3.487c0,0-1.879-23.051-3.54-26.372c-1.66-3.321-11.998-24.294-10.006-28.066
			C69.427,147.011,83.234,141.96,83.234,141.96z"/>
		<path style="fill:#292E68;" d="M107.329,147.206"/>
		<path style="fill:#F5B399;" d="M63.855,190.624c0,0-0.221,22.307,3.325,30.658c3.546,8.351,5.498-4.225,4.995-5.6
			c-0.503-1.375-0.234-25.058-0.234-25.058S64.925,185.098,63.855,190.624z"/>
		<path style="fill:#FFDDD0;" d="M72.254,216.233c0,0,3.624,4.815,3.624,5.888c0,1.073-2.956,3.462-3.624,6.238
			c-0.669,2.777-6.786,2.24-7.322,2.025c-0.536-0.215,1.148-12.574,1.148-12.574S69.811,215.604,72.254,216.233z"/>
		<path style="fill:#FFDDD0;" d="M75.702,221.516c0,0,1.464,3.717,1.464,5.756c0,2.039,0,5.473,0,5.473s-2.039,0.751-2.039-1.288
			s-0.67-5.581-1.354-6.118C73.088,224.804,74.131,220.804,75.702,221.516z"/>
		<path style="fill:#FFDDD0;" d="M71.796,228.251c0,0,1.038,2.177,1.146,3.866c0.107,1.689,2.295,4.694,2.274,5.553
			c-0.021,0.859-0.689,1.073-1.804,0c-1.114-1.073-2.402-3.648-2.724-4.346s-1.395-5.728-1.395-5.728S71.201,226.768,71.796,228.251
			z"/>
		<path style="fill:#FFDDD0;" d="M70.556,229.27c0,0,1.039,2.177,1.146,3.866c0.107,1.689,2.295,4.694,2.274,5.553
			c-0.021,0.858-0.689,1.073-1.804,0c-1.115-1.073-2.402-3.648-2.724-4.346s-1.395-5.728-1.395-5.728S69.962,227.788,70.556,229.27z
			"/>
		<path style="fill:#FFDDD0;" d="M68.41,229.055c0,0,1.039,2.177,1.146,3.866c0.107,1.689,2.295,4.694,2.274,5.553
			c-0.021,0.859-0.689,1.073-1.804,0c-1.115-1.073-2.402-3.648-2.724-4.346c-0.322-0.698-1.395-5.728-1.395-5.728
			S67.815,227.573,68.41,229.055z"/>
		<path style="fill:#FFDDD0;" d="M67.43,226.755c0,0,0.215,2.371-0.232,4.003c-0.447,1.632,0.513,5.129,0.219,5.936
			c-0.294,0.807-0.95,0.811-1.586-0.537c-0.636-1.348-0.942-4.171-1.002-4.927c-0.059-0.757,0.61-5.841,0.61-5.841
			S67.383,225.174,67.43,226.755z"/>
		<path style="fill:#FFB84E;" d="M96.765,121.835c0.191-0.491-0.176-4.413-0.433-6.895c-0.105,0.114-0.17,0.192-0.17,0.192
			s0-3.166-2.229-8.253c-2.229-5.087-18.467-4.146-20.696,1.389c-2.229,5.536,0,11.744,0,11.744s1.354,1.34,1.675,3.191
			c0.322,1.851,1.724,1.449,1.724,1.449s-1.515-8.372-1.7-8.492c-0.185-0.12,1.264-5.915,1.264-5.915s4.525-4.266,9.144-3.058
			c0,0,5.191-1.455,7.164-0.215c0,0,2.489,3.712,3.191,8.161C96.402,119.581,96.483,122.559,96.765,121.835z"/>
		<path style="fill:#837972;" d="M72.817,109.515c-1.482,5.18,0.42,10.498,0.42,10.498s1.354,1.34,1.675,3.191
			c0.322,1.851,1.724,1.449,1.724,1.449s-1.515-8.372-1.7-8.492c-0.185-0.12,1.264-5.915,1.264-5.915s0.018-0.017,0.051-0.047
			c-1.898,0.281-3.07,0.369-3.07,0.369L72.817,109.515z"/>
		<path style="fill:#837972;" d="M96.161,115.133c0,0-0.005-1.898-1.034-5.106c-0.004-0.002-0.447-0.186-1.188-0.431
			c0.684,1.464,1.425,3.413,1.761,5.536c0.702,4.449,0.783,7.427,1.065,6.703c0.191-0.491-0.176-4.413-0.433-6.895
			C96.226,115.054,96.161,115.133,96.161,115.133z"/>
		<path style="fill:#312014;" d="M97.394,106.703c-0.296-4.507-4.453-6.6-4.453-6.6l1.851-0.08
			c-3.542-2.576-8.049-1.771-8.049-1.771l1.664-0.393c-4.694-1.842-10.276,1.198-10.276,1.198l1.851-1.69
			c-3.944,0.483-6.802,5.714-6.802,5.714l-1.214-2.414v4.588l-1.214-1.712l2.064,5.972l0.364,1.052c0,0,1.172-0.087,3.07-0.369
			c0.505-0.456,4.757-4.145,9.093-3.012c0,0,5.191-1.455,7.164-0.215c0,0,0.681,1.021,1.431,2.625
			c0.742,0.245,1.184,0.429,1.188,0.431l0.001,0.001c1.463-3.276,0.18-5.014,0.18-5.014L97.394,106.703z"/>
		<path style="fill:#1E4A89;" d="M83.174,140.329c0,0-2.529,5.262-0.003,10.367c2.527,5.104,9.388,20.075,9.338,29.572
			c-0.05,9.497,1.27,26.416-1.977,27.561c-3.246,1.145-11.664,2.296-12.917-6.033c-1.254-8.329,0.504-24.748-3.594-28.611
			c-4.098-3.863-8.817-18.834-6.538-23.341S83.174,140.329,83.174,140.329z"/>
		<path style="fill:#1E4A89;" d="M92.509,139.059c0,0,6.872,5.331,6.55,12.565c-0.322,7.234,13.361,42.487,14.166,47.558
			c0.805,5.071,1.016,3.783,3.808,3.139c2.792-0.644,3.275-9.014,2.47-16.58c-0.805-7.566-6.6-33.807-8.693-41.13
			C108.717,137.288,100.929,132.459,92.509,139.059z"/>
		<path style="fill:#D19740;" d="M82.948,138.157c0,0-4.241,5.93-0.544,10.459c0,0-0.292-2.376,0.897-5.765L82.948,138.157z"/>
		<path style="fill:#1E4A89;" d="M64.827,215.504c0,0,0.669,2.834,0.347,4.525c-0.322,1.69,7.917-1.923,8.385-2.491
			c0.468-0.568-0.98-2.66-0.98-4.673C72.578,210.853,64.827,215.504,64.827,215.504z"/>
		<path style="fill:#D19740;" d="M92.192,138.157l0.734,3.735c0,0,3.106,1.355,5.102,4.372
			C98.028,146.264,97.076,139.911,92.192,138.157z"/>
		<path style="fill:#D19740;" d="M67.482,149.844c0,0-8.819,3.641-6.413,19.602s1.178,32.308,2.784,42.78
			c1.606,10.472,10.016,3.026,10.591-1.696c0.576-4.722-0.58-20.407,0.772-24.897C76.568,181.144,81.837,160.2,67.482,149.844z"/>
		<path style="fill:#FFDDD0;" d="M106.04,87.866c0,0-1.22-1.67-1.616-3.085c-0.397-1.415-2.675-3.591-2.817-4.323
			c-0.142-0.732,0.345-1.029,1.421-0.309c1.076,0.72,2.566,2.685,2.949,3.222c0.383,0.537,2.157,4.623,2.157,4.623
			S106.783,89.022,106.04,87.866z"/>
		<path style="fill:#FFDDD0;" d="M102.222,95.466c0,0-2.752-2.114-3.664-3.633c-0.911-1.519-2.447-4.076-2.447-4.076
			s1.183-1.471,2.094,0.048c0.911,1.519,2.994,3.858,3.744,3.951C102.699,91.849,103.711,95.294,102.222,95.466z"/>
		<path style="fill:#1E4A89;" d="M107.429,100.748c0,0-0.287-2.057-1.248-2.888c-0.961-0.831,3.733-4.681,4.865-6.369
			c1.132-1.688,1.324,3.745,2.073,5.777C113.868,99.299,107.429,100.748,107.429,100.748z"/>
		<path style="fill:none;stroke:#F5B399;stroke-width:0.6647;stroke-linecap:round;stroke-miterlimit:10;" d="M83.384,128.334
			c0,0,1.931,2.715,4.793,1.533"/>
	</g>
	<g>
		<path style="fill:#292E68;" d="M268.202,162.294c0,0-3.486,2.826-14.321,7.574c-9.917,4.346-17.893,11.008-13.32,14.022
			c4.574,3.014,21.03-3.642,21.03-3.642S269.163,167.953,268.202,162.294z"/>
		<g>
			<path style="fill:#FFC7B1;" d="M207.456,249.709c0,0-8.197,8.379-10.123,8.658c-1.926,0.279-17.021,8.341-16.014,10.047
				c1.008,1.706,4.183,1.224,4.183,1.224s4.522,1.186,6.728-0.781c2.207-1.967,9.768-3.762,12.541-3.629
				c2.773,0.133,6.118-2.578,5.554-6.001c-0.564-3.423,2.313-8.008,2.313-8.008S210.345,245.437,207.456,249.709z"/>
			<path style="fill:#4B6EA1;" d="M259.74,207.874c0,0-15.367-16.768-19.993-14.68c-4.627,2.088-8.331,19.702-5.902,22.506
				C236.274,218.504,263.945,217.755,259.74,207.874z"/>
			<path style="fill:#FFC7B1;" d="M303.674,219.188c0,0-0.582,4.859,2.696,5.005c3.277,0.146,8.844,2.152,11.471,0.511
				c0,0,8.868,1.605,8.012,0.357c-0.857-1.248-12.101-2.763-16.97-8.129C304.014,211.566,303.674,219.188,303.674,219.188z"/>
			<path style="fill:#312014;" d="M260.495,126.71c0,0-1.329,5.143,0.027,6.277c1.356,1.133,2.269,11.746-5.363,18.332
				c0,0,3.155,1.055,6.755-5.311c3.6-6.366,4.314-12.358,4.488-15.979c0.174-3.62-2.234-5.957-2.234-5.957L260.495,126.71z"/>
			<path style="fill:#312014;" d="M270.463,134.321c-0.097-3.734-1.366-7.104-3.16-9.829c-0.019,0.008-0.033,0.02-0.052,0.028
				c-1.22,0.544-2.458,0.884-3.712,1.123c-0.404,0.346-0.952,0.706-1.178,0.953c-0.064,0.069-0.102,0.109-0.141,0.149
				c-0.181,0.258-0.331,0.532-0.416,0.836c-0.174,0.357-0.32,0.73-0.469,1.101c1.996,5.004,0.696,10.718,0.795,14.163
				c0.169,5.876-6.15,21.007-6.15,21.007s7.214,0.106,11.224-2.411c4.01-2.517,4.447-5.409,4.513-6.899
				C271.784,153.051,270.702,143.481,270.463,134.321z"/>
			<path style="fill:#292E68;" d="M286.922,155.547l6.523,4.25c2.267,1.477,3.287,4.262,2.512,6.854
				c-1.9,6.35-5.817,17.901-10.572,23.355c-6.748,7.74,5.529,26.292,3.997,28.911c-1.531,2.618-35.426,0.66-34.894-4.23
				s8.836-24.166,8.252-27.771c-0.584-3.604-5.775-6.159-4.085-12.963c1.69-6.804,12.859-16.633,12.859-16.633
				S280.642,151.456,286.922,155.547z"/>
			<path style="fill:#F5B399;" d="M280.664,140.191c0.389,0.751-0.329,8.504,2.944,14.92c3.273,6.416-10.811,15.442-13.351,13.722
				c-2.539-1.719,1.887-11.758-0.599-19.838C267.172,140.916,278.254,135.54,280.664,140.191z"/>
			<path style="fill:#312014;" d="M264.768,120.914c0,0,2.981-2.815,10.814-1.924c8.798,1.001,12.773,7.072,13.012,16.232
				c0.239,9.16,1.322,18.73,1.255,20.221c-0.066,1.49-0.503,4.382-4.513,6.899c-4.01,2.517-11.224,2.411-11.224,2.411
				s6.319-15.131,6.15-21.007C280.093,137.87,280.128,125.201,264.768,120.914z"/>
			<path style="fill:#FFC7B1;" d="M259.948,128.189c0,0-0.981,3.433-0.959,6.813c0.022,3.38-0.784,5.191-0.84,8.402
				c-0.056,3.211,2.28,8.325,5.027,10.79c2.747,2.464,8.907,0.232,13.21-2.683c4.303-2.915,4.237-6.943,4.237-6.943
				s0.548,1.185,2.403-0.803c1.854-1.988,3.823-7.727,1.191-8.976c-2.632-1.248-2.592,0.171-2.592,0.171s1.971-11.289-10.455-13.607
				C263.591,119.94,260.676,124.579,259.948,128.189z"/>
			<path style="fill:none;stroke:#F5B399;stroke-width:0.7748;stroke-linecap:round;stroke-miterlimit:10;" d="M264.734,135.427
				c0,0,0.281,1.719-0.417,3.429c-0.699,1.71-1.865,5.918-1.969,6.582c-0.104,0.664,2.623,2.229,3.338,0.665"/>
			<path style="fill:none;stroke:#F5B399;stroke-width:0.7748;stroke-linecap:round;stroke-miterlimit:10;" d="M262.769,148.802
				c0.155,0.151,2.922,1.8,5.341-0.578"/>
			<path style="fill:#292E68;" d="M268.239,135.638c0,0,3.612-0.078,4.461,0.094c0.85,0.172,2.607,1.38,2.661,0.978
				c0.054-0.402-2.19-1.695-3.122-2.084c-0.933-0.39-3.991-0.225-3.991-0.225S267.767,134.949,268.239,135.638z"/>
			<path style="fill:#292E68;" d="M263.489,135.573c0,0-2.601-0.557-3.203-0.505c-0.601,0.053-1.794,0.985-1.856,0.59
				s1.475-1.345,2.123-1.597c0.648-0.252,2.856,0.315,2.856,0.315S263.789,134.97,263.489,135.573z"/>
			<path style="fill:#292E68;" d="M270.286,138.288c-0.188,0.513,0.074,1.081,0.587,1.27c0.513,0.188,1.081-0.075,1.269-0.587
				c0.188-0.513-0.074-1.081-0.587-1.27C271.043,137.512,270.475,137.775,270.286,138.288z"/>
			<path style="fill:#292E68;" d="M261.513,137.5c-0.188,0.513,0.074,1.081,0.587,1.27c0.513,0.188,1.081-0.075,1.269-0.587
				c0.188-0.513-0.074-1.081-0.587-1.269C262.27,136.725,261.702,136.988,261.513,137.5z"/>
			<path style="fill:none;stroke:#F5B399;stroke-width:0.5165;stroke-linecap:round;stroke-miterlimit:10;" d="M284.646,139.607
				c0,0,0.398-2.991-1.43-3.242c-1.828-0.25-1.35,3.672-1.35,3.672s1.226-0.533,1.344,0.166c0.118,0.699-0.838,0.863-0.838,0.863
				s-0.764,0.796-0.11,1.13c0.655,0.334,1.222-0.444,1.222-0.444"/>
			<path style="fill:#312014;" d="M268.677,120.524c0,0-11.173-1.063-10.485,11.047c0,0,10.311,2.679,22.552-0.049
				C280.744,131.522,284.012,121.772,268.677,120.524z"/>
			<path style="fill:#312014;" d="M275.727,128.524c0,0-0.283,5.305,1.271,6.147c1.554,0.842,4.554,11.063-1.621,19.032
				c0,0,3.302,0.408,5.568-6.545c2.266-6.953,1.777-12.968,1.229-16.551c-0.548-3.583-3.371-5.396-3.371-5.396L275.727,128.524z"/>
			<path style="fill:#292E68;" d="M284.913,165.285c0,0,3.626-6.28,8.382-5.219c4.757,1.061,9.539,32.995,9.539,32.995
				s7.939,22.394,7.132,24.122c-0.807,1.728-6.563,4.083-8.365,3.518c-1.802-0.565-4.683-25.98-5.708-27.522
				C294.868,191.636,284.532,173.843,284.913,165.285z"/>
			<path style="fill:#1E4A89;" d="M233.396,220.972c0,0,0.718-16.117,28.318-11.564c19.833,3.271,27.283,6.007,27.669,9.509
				c0.386,3.502,2.972,6.288-7.164,6.812C272.082,226.253,231.9,228.047,233.396,220.972z"/>
			<path style="fill:#1E4A89;" d="M239.315,211.837c0,0-5.668,0.833-8.878,3.219c-3.209,2.386-30.26,36.21-28.701,39.442
				c1.559,3.232,7.434,1.866,12.928,0.577c5.494-1.29,29.433-28.609,32.234-31.404C249.699,220.876,246.189,214.027,239.315,211.837
				z"/>
			<path style="fill:#FFC7B1;" d="M227.202,233.356c0,0-4.198,10.944-5.855,11.965c-1.657,1.021-12.313,14.412-10.711,15.578
				c1.602,1.166,4.326-0.537,4.326-0.537s4.621-0.706,5.866-3.387c1.245-2.681,7.473-7.33,10.071-8.309
				c2.598-0.979,4.593-4.795,2.716-7.713c-1.877-2.918-1.056-8.269-1.056-8.269S228.158,228.289,227.202,233.356z"/>
			<path style="fill:#4B6EA1;" d="M249.246,201.006c0,0-1.882-6.89-8.151-8.14c-6.269-1.251-20.366,37.384-19.336,43.94
				c0,0,3.309,3.278,13.391,1.49C245.23,236.509,248.264,206.659,249.246,201.006z"/>
		</g>
		<path style="fill:#292E68;" d="M245.262,179.736c0,0,0.409-3.728-1.139-10.834c-1.548-7.106-2.59-13.823-2.59-13.823
			s-7.435-1.297-7.413,1.047c0.022,2.344,3.103,25.29,5.592,27.367C242.2,185.571,245.406,184.488,245.262,179.736z"/>
		<g>
			<path style="fill:#FFC7B1;" d="M241.242,156.1c0,0,1.105-5.191,0.707-6.048c-0.399-0.857-3.646-1.666-5.211-3.635
				c-1.565-1.969-6.25,0.732-6.599,1.103c-0.349,0.371,5.587,9.614,5.587,9.614S239.525,157.51,241.242,156.1z"/>
			<path style="fill:#FFC7B1;" d="M242.033,150.601c0,0-0.212-3.512-0.969-5.14c-0.757-1.628-2.033-4.37-2.033-4.37
				s-1.907,0.158-1.15,1.786c0.757,1.628,1.538,4.705,1.191,5.388C238.724,148.947,241.043,151.753,242.033,150.601z"/>
			<path style="fill:#FFC7B1;" d="M236.412,146.675c0,0,0.021-2.124-0.521-3.513c-0.542-1.389,0.089-4.601-0.247-5.278
				c-0.335-0.678-0.949-0.601-1.44,0.67c-0.491,1.271-0.563,3.805-0.561,4.482c0.002,0.677,1.014,5.092,1.014,5.092
				S236.488,148.079,236.412,146.675z"/>
			<path style="fill:#FFC7B1;" d="M235.044,146.321c0,0,0.021-2.124-0.521-3.513c-0.542-1.389,0.089-4.601-0.247-5.278
				c-0.335-0.678-0.949-0.601-1.44,0.67c-0.491,1.271-0.563,3.805-0.561,4.482c0.002,0.677,1.014,5.092,1.014,5.092
				S235.12,147.725,235.044,146.321z"/>
			<path style="fill:#FFC7B1;" d="M233.41,147.29c0,0,0.021-2.124-0.521-3.513c-0.542-1.389,0.089-4.601-0.247-5.278
				c-0.335-0.678-0.949-0.601-1.44,0.67c-0.491,1.271-0.563,3.805-0.561,4.482c0.002,0.677,1.014,5.092,1.014,5.092
				S233.486,148.694,233.41,147.29z"/>
			<path style="fill:#FFC7B1;" d="M233.482,149.49c0,0-0.709-1.973-1.672-3.11c-0.963-1.137-1.496-4.286-2.03-4.821
				c-0.534-0.535-1.06-0.295-1.067,1.018c-0.007,1.313,0.797,3.68,1.031,4.306c0.234,0.626,2.657,4.437,2.657,4.437
				S234.031,150.77,233.482,149.49z"/>
		</g>
	</g>
</g>
<g id="DESIGNED_BY_FREEPIK">
	<g>
		<g id="XMLID_24_">
			<g id="XMLID_209_">
				<path id="XMLID_277_" style="fill:#112129;" d="M260.104,469.465c-0.432,0.443-0.803,0.931-1.108,1.453l-0.465-0.241
					c-0.067-0.298-0.349-0.503-0.659-0.466c-0.331,0.039-0.568,0.339-0.529,0.67s0.339,0.568,0.67,0.529
					c0.065-0.008,0.127-0.026,0.184-0.052l0.451,0.234c-0.251,0.554-0.433,1.139-0.539,1.744l0.746,0.132
					c0.23-1.306,0.85-2.507,1.792-3.473L260.104,469.465z"/>
				<path id="XMLID_265_" style="fill:#112129;" d="M265.592,467.163c-0.171,0-0.341,0.006-0.51,0.017l-0.074-0.626
					c0.188-0.149,0.296-0.389,0.266-0.645c-0.046-0.393-0.402-0.674-0.795-0.628s-0.674,0.402-0.628,0.795
					c0.03,0.254,0.189,0.461,0.405,0.564l0.073,0.624c-0.714,0.116-1.403,0.332-2.06,0.646l0.327,0.684
					c0.934-0.447,1.942-0.673,2.995-0.673c0.496,0,0.993,0.053,1.475,0.158l0.161-0.741
					C266.693,467.222,266.142,467.163,265.592,467.163z"/>
				<path id="XMLID_264_" style="fill:#112129;" d="M272.194,469.711c0.331-0.04,0.566-0.341,0.525-0.672
					c-0.04-0.331-0.341-0.566-0.672-0.526c-0.309,0.038-0.535,0.304-0.53,0.609l-0.416,0.363c-0.418-0.43-0.89-0.813-1.408-1.139
					l-0.404,0.641c1.134,0.715,2.021,1.726,2.563,2.925l0.691-0.313c-0.251-0.554-0.568-1.072-0.942-1.545l0.402-0.351
					C272.065,469.716,272.129,469.719,272.194,469.711z"/>
				<path id="XMLID_263_" style="fill:#112129;" d="M265.044,477.372c-0.386,0.023-0.775,0.035-1.157,0.035
					c-0.88,0-1.733-0.061-2.478-0.179c-0.39-0.062-0.846-0.155-1.27-0.292c1.046,1.861,3.069,3.125,5.388,3.125
					c2.855,0,5.262-1.916,5.95-4.504c-0.682,0.449-1.505,0.825-2.459,1.123C267.839,477.047,266.464,477.286,265.044,477.372z"/>
				<path id="XMLID_210_" style="fill:#112129;" d="M265.592,468.68c-3.352,0-6.08,2.666-6.08,5.943
					c0,0.426,0.046,0.849,0.137,1.261c0.674,0.483,2.706,0.89,5.348,0.731c2.879-0.173,5.297-0.957,6.672-2.159
					c-0.005-0.195-0.021-0.39-0.045-0.582C271.244,470.913,268.65,468.68,265.592,468.68z M263.432,475.194
					c-1.02,0-1.85-0.83-1.85-1.85c0-1.02,0.83-1.85,1.85-1.85c1.02,0,1.85,0.83,1.85,1.85
					C265.282,474.365,264.452,475.194,263.432,475.194z M268.17,474.286c-0.75,0-1.36-0.61-1.36-1.36s0.61-1.361,1.36-1.361
					c0.75,0,1.361,0.61,1.361,1.361S268.92,474.286,268.17,474.286z"/>
			</g>
			<path id="XMLID_183_" style="fill:#112129;" d="M281.595,470.547c-0.295-0.116-0.806-0.309-1.382-0.237
				c-0.551,0.069-0.844,0.341-0.844,1.007v0.866h2.228v1.717h-2.228v5.455h-1.932v-5.455h-1.34v-1.717h1.34v-0.888
				c0-1.68,0.896-2.783,2.568-2.783c0.642,0,1.157,0.122,1.59,0.308L281.595,470.547z"/>
			<path id="XMLID_173_" style="fill:#112129;" d="M286.298,473.879c-0.177-0.03-0.358-0.046-0.526-0.046
				c-0.896,0-1.51,0.548-1.51,1.614v3.908h-1.932v-7.172h1.873v0.785c0.451-0.673,1.14-0.977,2.021-0.977
				c0.414,0,0.848,0.128,1.094,0.337L286.298,473.879z"/>
			<path id="XMLID_138_" style="fill:#112129;" d="M293.965,475.757c0,0.222-0.015,0.489-0.037,0.651h-5.085
				c0.207,1.036,0.933,1.488,1.843,1.488c0.622,0,1.295-0.252,1.813-0.688l1.132,1.243c-0.814,0.748-1.85,1.088-3.057,1.088
				c-2.198,0-3.723-1.495-3.723-3.753c0-2.258,1.48-3.797,3.627-3.797C292.544,471.99,293.958,473.522,293.965,475.757z
				 M288.851,475.091h3.175c-0.177-0.918-0.733-1.436-1.562-1.436C289.554,473.655,289.021,474.203,288.851,475.091z"/>
			<path id="XMLID_69_" style="fill:#112129;" d="M301.618,475.757c0,0.222-0.015,0.489-0.037,0.651h-5.085
				c0.207,1.036,0.932,1.488,1.843,1.488c0.622,0,1.295-0.252,1.813-0.688l1.132,1.243c-0.814,0.748-1.85,1.088-3.057,1.088
				c-2.198,0-3.723-1.495-3.723-3.753c0-2.258,1.48-3.797,3.627-3.797C300.197,471.99,301.611,473.522,301.618,475.757z
				 M296.504,475.091h3.175c-0.178-0.918-0.733-1.436-1.562-1.436C297.207,473.655,296.674,474.203,296.504,475.091z"/>
			<path id="XMLID_325_" style="fill:#112129;" d="M309.964,475.764c0,2.154-1.495,3.775-3.471,3.775
				c-0.962,0-1.643-0.378-2.109-0.933v3.708h-1.924v-10.133h1.887v0.792c0.466-0.585,1.155-0.984,2.139-0.984
				C308.469,471.99,309.964,473.61,309.964,475.764z M304.287,475.764c0,1.132,0.747,1.976,1.843,1.976
				c1.14,0,1.85-0.881,1.85-1.976c0-1.095-0.71-1.976-1.85-1.976C305.035,473.788,304.287,474.632,304.287,475.764z"/>
			<path id="XMLID_35_" style="fill:#112129;" d="M313.068,469.836c0,0.696-0.54,1.229-1.236,1.229
				c-0.696,0-1.229-0.533-1.229-1.229c0-0.696,0.533-1.243,1.229-1.243C312.527,468.592,313.068,469.14,313.068,469.836z
				 M312.809,479.354h-1.932v-7.172h1.932V479.354z"/>
			<path id="XMLID_25_" style="fill:#112129;" d="M316.032,474.736l2.702-2.554h2.368l-3.479,3.375l3.501,3.797h-2.376l-2.716-2.901
				v2.901H314.1v-10.658h1.932V474.736z"/>
		</g>
		<g>
			<path style="fill:#112129;" d="M184.412,479.289v-1.055c-0.527,0.718-1.391,1.23-2.387,1.23c-1.846,0-3.149-1.406-3.149-3.706
				c0-2.256,1.289-3.721,3.149-3.721c0.952,0,1.816,0.469,2.387,1.245v-3.765h1.099v9.77H184.412z M184.412,477.37v-3.208
				c-0.395-0.615-1.245-1.143-2.124-1.143c-1.421,0-2.27,1.172-2.27,2.739c0,1.567,0.85,2.724,2.27,2.724
				C183.168,478.483,184.017,477.986,184.412,477.37z"/>
			<path style="fill:#112129;" d="M186.932,475.744c0-2.051,1.465-3.706,3.486-3.706c2.139,0,3.398,1.67,3.398,3.794v0.279h-5.727
				c0.088,1.333,1.025,2.446,2.549,2.446c0.805,0,1.626-0.322,2.182-0.894l0.527,0.718c-0.703,0.703-1.655,1.084-2.812,1.084
				C188.44,479.465,186.932,477.956,186.932,475.744z M190.403,472.947c-1.509,0-2.256,1.274-2.314,2.358h4.643
				C192.718,474.25,192.015,472.947,190.403,472.947z"/>
			<path style="fill:#112129;" d="M194.607,478.351l0.571-0.791c0.469,0.542,1.362,1.011,2.329,1.011c1.084,0,1.67-0.513,1.67-1.216
				c0-1.714-4.38-0.659-4.38-3.281c0-1.098,0.952-2.036,2.636-2.036c1.201,0,2.051,0.454,2.622,1.026l-0.513,0.762
				c-0.424-0.513-1.201-0.894-2.109-0.894c-0.967,0-1.567,0.483-1.567,1.113c0,1.552,4.38,0.527,4.38,3.281
				c0,1.187-0.952,2.138-2.783,2.138C196.306,479.465,195.325,479.113,194.607,478.351z"/>
			<path style="fill:#112129;" d="M201.477,470.471c0-0.41,0.337-0.747,0.732-0.747c0.41,0,0.747,0.337,0.747,0.747
				c0,0.41-0.337,0.732-0.747,0.732C201.814,471.203,201.477,470.881,201.477,470.471z M201.667,479.289v-7.075h1.099v7.075H201.667
				z"/>
			<path style="fill:#112129;" d="M204.582,481.105l0.556-0.82c0.586,0.703,1.289,0.967,2.3,0.967c1.172,0,2.27-0.571,2.27-2.124
				v-1.011c-0.513,0.718-1.377,1.26-2.373,1.26c-1.845,0-3.149-1.377-3.149-3.662c0-2.27,1.289-3.677,3.149-3.677
				c0.952,0,1.802,0.469,2.373,1.245v-1.069h1.098v6.87c0,2.344-1.641,3.076-3.369,3.076
				C206.237,482.16,205.417,481.926,204.582,481.105z M209.709,477.253v-3.091c-0.381-0.615-1.23-1.143-2.109-1.143
				c-1.421,0-2.27,1.128-2.27,2.695c0,1.553,0.849,2.695,2.27,2.695C208.478,478.41,209.328,477.868,209.709,477.253z"/>
			<path style="fill:#112129;" d="M217.413,479.289v-4.629c0-1.245-0.63-1.641-1.582-1.641c-0.865,0-1.685,0.527-2.095,1.099v5.17
				h-1.099v-7.075h1.099v1.025c0.498-0.586,1.464-1.201,2.519-1.201c1.48,0,2.256,0.747,2.256,2.285v4.966H217.413z"/>
			<path style="fill:#112129;" d="M219.932,475.744c0-2.051,1.465-3.706,3.486-3.706c2.139,0,3.398,1.67,3.398,3.794v0.279h-5.727
				c0.088,1.333,1.025,2.446,2.549,2.446c0.806,0,1.626-0.322,2.183-0.894l0.527,0.718c-0.703,0.703-1.655,1.084-2.812,1.084
				C221.441,479.465,219.932,477.956,219.932,475.744z M223.404,472.947c-1.509,0-2.256,1.274-2.314,2.358h4.643
				C225.718,474.25,225.015,472.947,223.404,472.947z"/>
			<path style="fill:#112129;" d="M233.35,479.289v-1.055c-0.527,0.718-1.392,1.23-2.388,1.23c-1.846,0-3.149-1.406-3.149-3.706
				c0-2.256,1.289-3.721,3.149-3.721c0.952,0,1.817,0.469,2.388,1.245v-3.765h1.098v9.77H233.35z M233.35,477.37v-3.208
				c-0.396-0.615-1.245-1.143-2.124-1.143c-1.421,0-2.27,1.172-2.27,2.739c0,1.567,0.849,2.724,2.27,2.724
				C232.105,478.483,232.954,477.986,233.35,477.37z"/>
			<path style="fill:#112129;" d="M239.692,479.289v-9.77h1.098v3.765c0.572-0.776,1.421-1.245,2.388-1.245
				c1.845,0,3.149,1.465,3.149,3.721c0,2.299-1.304,3.706-3.149,3.706c-0.996,0-1.86-0.513-2.388-1.23v1.055H239.692z
				 M242.9,478.483c1.436,0,2.285-1.157,2.285-2.724c0-1.568-0.85-2.739-2.285-2.739c-0.864,0-1.728,0.527-2.109,1.143v3.208
				C241.171,477.986,242.036,478.483,242.9,478.483z"/>
			<path style="fill:#112129;" d="M247.528,481.061c0.161,0.073,0.425,0.117,0.601,0.117c0.483,0,0.805-0.161,1.055-0.747
				l0.469-1.069l-2.959-7.148h1.187l2.358,5.8l2.344-5.8h1.201l-3.545,8.51c-0.425,1.025-1.143,1.421-2.08,1.435
				c-0.234,0-0.601-0.044-0.805-0.103L247.528,481.061z"/>
		</g>
	</g>
</g>
</svg>
