<?xml version="1.0" encoding="utf-8"?>
<!-- Generator: Adobe Illustrator 27.5.0, SVG Export Plug-In . SVG Version: 6.00 Build 0)  -->
<svg version="1.1" xmlns="http://www.w3.org/2000/svg" xmlns:xlink="http://www.w3.org/1999/xlink" x="0px" y="0px"
	 viewBox="0 0 500 500" style="enable-background:new 0 0 500 500;" xml:space="preserve">
<g id="BACKGROUND">
	<rect style="fill:#FFFFFF;" width="500" height="500"/>
</g>
<g id="OBJECTS">
	<rect y="321.299" style="fill:#D8D8D8;" width="500" height="178.701"/>
	<g style="opacity:0.5;">
		
			<ellipse transform="matrix(0.7071 -0.7071 0.7071 0.7071 -112.7803 253.8219)" style="fill:#D8D8D8;" cx="250" cy="263.049" rx="198.448" ry="198.448"/>
		<g>
			<g>
				<path style="fill:#D8D8D8;" d="M244.951,478.263c0.014-2.201,1.821-3.984,4.024-3.969l0,0c2.201,0.013,3.967,1.805,3.953,4.006
					l0,0c0.003,2.201-1.805,3.982-4.007,3.97l0,0c-0.016,0-0.031-0.001-0.063-0.001l0,0
					C246.689,482.223,244.939,480.431,244.951,478.263z M231.085,481.454c-2.198-0.189-3.817-2.121-3.629-4.319l0,0
					c0.189-2.198,2.121-3.817,4.319-3.628l0,0c2.198,0.19,3.817,2.121,3.628,4.319l0,0c-0.187,2.103-1.974,3.693-4.048,3.65l0,0
					C231.26,481.474,231.181,481.456,231.085,481.454z M262.491,477.97c-0.162-2.205,1.473-4.117,3.678-4.28l0,0
					c2.189-0.162,4.117,1.473,4.281,3.678l0,0c0.162,2.189-1.49,4.103-3.678,4.28l0,0l0,0l0,0c-0.128-0.003-0.256,0.01-0.383,0.008
					l0,0C264.346,481.613,262.656,480.031,262.491,477.97z M213.374,479.207L213.374,479.207L213.374,479.207
					c-2.178-0.365-3.635-2.437-3.271-4.598l0,0c0.364-2.178,2.436-3.636,4.599-3.272l0,0c2.178,0.364,3.636,2.42,3.271,4.598l0,0
					c-0.344,1.972-2.063,3.355-4.009,3.315l0,0C213.756,479.246,213.565,479.242,213.374,479.207z M279.948,476.256
					c-0.354-2.177,1.14-4.22,3.301-4.575l0,0c2.177-0.339,4.221,1.14,4.574,3.316l0,0c0.339,2.177-1.14,4.221-3.316,4.575l0,0
					c0,0,0,0,0-0.016l0,0c-0.241,0.043-0.481,0.054-0.703,0.049l0,0C281.907,479.566,280.259,478.193,279.948,476.256z
					 M195.901,475.496c-2.143-0.538-3.423-2.702-2.884-4.846l0,0c0.539-2.126,2.719-3.421,4.845-2.867l0,0
					c2.143,0.538,3.422,2.702,2.883,4.846l0,0c-0.468,1.824-2.136,3.035-3.939,2.998l0,0
					C196.504,475.62,196.202,475.583,195.901,475.496z M297.196,473.117c-0.515-2.148,0.79-4.307,2.923-4.821l0.016,0
					c2.133-0.531,4.292,0.79,4.805,2.922l0,0c0.531,2.133-0.774,4.292-2.923,4.823l0,0l0,0l0,0
					c-0.337,0.088-0.688,0.114-1.022,0.107l0,0C299.224,476.111,297.638,474.897,297.196,473.117z M178.776,470.389c0,0,0,0,0.015,0
					l0,0c-2.09-0.729-3.193-3.001-2.48-5.078l0,0c0.714-2.09,2.986-3.193,5.077-2.48l0,0c2.074,0.73,3.193,3.003,2.464,5.077l0,0
					c-0.577,1.678-2.162,2.732-3.853,2.697l0,0C179.601,470.598,179.187,470.525,178.776,470.389z M314.137,468.569
					c-0.706-2.09,0.425-4.348,2.513-5.054l0,0c2.088-0.691,4.347,0.424,5.054,2.529l0,0c0.691,2.088-0.44,4.33-2.513,5.038l0,0l0,0
					l0,0c-0.45,0.15-0.914,0.22-1.362,0.211l0,0C316.204,471.259,314.679,470.207,314.137,468.569z M162.142,463.856
					c-2.024-0.888-2.933-3.236-2.046-5.26l0,0c0.887-2.007,3.236-2.917,5.259-2.029l0,0c2.008,0.872,2.933,3.236,2.046,5.243l0,0
					c-0.669,1.518-2.172,2.412-3.735,2.38l0,0C163.157,464.179,162.632,464.073,162.142,463.856z M330.628,462.638
					c-0.867-2.028,0.074-4.37,2.102-5.237l0,0c2.012-0.868,4.37,0.075,5.238,2.102l0,0c0.867,2.012-0.074,4.37-2.102,5.237l0,0
					c-0.531,0.229-1.093,0.328-1.65,0.316l0,0C332.701,465.026,331.268,464.119,330.628,462.638z M146.095,455.994
					c-1.942-1.045-2.658-3.468-1.612-5.408l0,0c1.045-1.942,3.468-2.657,5.409-1.612l0,0c1.941,1.06,2.657,3.484,1.596,5.409l0,0
					c-0.73,1.356-2.134,2.125-3.585,2.095l0,0C147.282,456.465,146.663,456.309,146.095,455.994z M346.589,455.373
					c-1.029-1.936-0.293-4.362,1.659-5.391l0,0c1.951-1.029,4.362-0.292,5.391,1.66l0,0c1.029,1.951,0.276,4.36-1.658,5.389l0,0
					c-0.63,0.339-1.287,0.485-1.94,0.471l0,0C348.637,457.474,347.295,456.697,346.589,455.373z M130.744,446.823L130.744,446.823
					L130.744,446.823c-1.842-1.202-2.365-3.669-1.162-5.511l0,0c1.202-1.842,3.686-2.366,5.528-1.162l0,0
					c1.841,1.218,2.349,3.685,1.147,5.527l0,0c-0.774,1.198-2.096,1.823-3.42,1.796l0,0
					C132.12,447.457,131.39,447.253,130.744,446.823z M361.89,446.834c-1.175-1.86-0.645-4.321,1.214-5.512l0,0
					c1.86-1.19,4.321-0.645,5.511,1.215l0,0c1.191,1.843,0.645,4.321-1.213,5.495l0,0c-0.679,0.449-1.465,0.655-2.23,0.639l0,0
					C363.894,448.646,362.647,447.998,361.89,446.834z M116.201,436.457c-1.743-1.36-2.058-3.872-0.698-5.598l0,0
					c1.344-1.744,3.855-2.058,5.582-0.698l0,0c1.743,1.343,2.058,3.855,0.714,5.599l0,0c-0.803,1.02-2.027,1.554-3.238,1.529l0,0
					C117.732,437.27,116.907,436.998,116.201,436.457z M376.467,437.051c-1.337-1.751-0.997-4.249,0.752-5.584l0,0
					c1.751-1.336,4.249-0.997,5.586,0.752l0,0c1.335,1.768,0.996,4.265-0.754,5.601l0,0c-0.745,0.559-1.628,0.828-2.505,0.81l0,0
					C378.38,438.607,377.228,438.056,376.467,437.051z M102.558,424.928c-1.629-1.502-1.735-4.025-0.251-5.638l0,0
					c1.486-1.629,4.009-1.736,5.638-0.252l0,0c1.612,1.485,1.736,4.025,0.234,5.637l0,0c-0.799,0.878-1.909,1.318-3.009,1.295l0,0
					C104.228,425.952,103.294,425.596,102.558,424.928z M390.189,426.135c-1.482-1.643-1.351-4.161,0.292-5.642l0,0
					c1.641-1.467,4.159-1.335,5.64,0.308l0,0c1.467,1.641,1.335,4.159-0.306,5.624l0,0c-0.781,0.718-1.778,1.049-2.75,1.029l0,0
					C391.996,427.433,390.953,426.98,390.189,426.135z M89.895,412.318c-1.498-1.611-1.415-4.13,0.211-5.628l0,0
					c1.611-1.498,4.13-1.398,5.628,0.213l0,0c1.498,1.609,1.399,4.145-0.212,5.644l0,0c-0.781,0.718-1.793,1.079-2.797,1.058l0,0
					C91.687,413.583,90.66,413.147,89.895,412.318z M402.96,414.129c-1.595-1.516-1.655-4.038-0.155-5.651l0,0
					c1.518-1.595,4.038-1.656,5.651-0.155l0,0c1.597,1.516,1.656,4.038,0.155,5.651l0,0l0,0l0,0
					c-0.815,0.845-1.908,1.252-2.992,1.23l0,0C404.661,415.184,403.712,414.83,402.96,414.129z M78.289,398.74
					c-1.352-1.734-1.061-4.248,0.674-5.601l0,0c1.735-1.368,4.234-1.063,5.602,0.673l0,0c1.353,1.736,1.061,4.235-0.674,5.603l0,0
					c-0.746,0.59-1.66,0.858-2.538,0.84l0,0C80.189,400.232,79.066,399.715,78.289,398.74z M414.731,401.114
					c-1.71-1.377-1.994-3.886-0.601-5.614l0,0.017c1.375-1.728,3.885-1.995,5.597-0.618l0,0c1.726,1.376,1.994,3.885,0.618,5.597
					l0,0c-0.803,1.004-1.994,1.522-3.19,1.497l0,0C416.309,401.975,415.453,401.687,414.731,401.114z M67.834,384.246
					c0,0,0,0,0,0.017l0,0c-1.206-1.845-0.708-4.323,1.135-5.53l0,0c1.828-1.223,4.306-0.709,5.529,1.119l0,0
					c1.207,1.845,0.709,4.323-1.134,5.529l0,0c-0.696,0.464-1.498,0.67-2.28,0.654l0,0C69.824,386.01,68.592,385.394,67.834,384.246
					z M425.405,387.198c-1.81-1.234-2.301-3.717-1.067-5.542l0,0c1.234-1.826,3.717-2.301,5.542-1.067l0,0
					c1.826,1.234,2.301,3.701,1.067,5.527l0,0c-0.791,1.165-2.08,1.792-3.388,1.765l0,0
					C426.826,387.866,426.066,387.642,425.405,387.198z M58.609,368.963c-1.061-1.919-0.357-4.346,1.58-5.406l0,0
					c1.92-1.062,4.347-0.357,5.408,1.579l0,0c1.061,1.92,0.357,4.346-1.579,5.406l0,0c-0.63,0.355-1.318,0.499-1.988,0.486l0,0
					C60.641,370.999,59.316,370.27,58.609,368.963z M434.914,372.445c-1.924-1.093-2.592-3.515-1.515-5.439l0,0
					c1.076-1.925,3.515-2.591,5.424-1.516l0,0c1.924,1.077,2.607,3.516,1.53,5.424l0,0c0,0,0,0-0.016,0l0,0
					c-0.746,1.326-2.132,2.062-3.552,2.033l0,0C436.149,372.933,435.513,372.777,434.914,372.445z M50.658,352.989
					c-0.9-2.013-0.006-4.372,2.007-5.271l0,0c2.013-0.901,4.372-0.007,5.271,2.006l0,0c0.901,2.013,0.006,4.372-2.007,5.271l0,0
					c-0.564,0.244-1.14,0.36-1.714,0.348l0,0C52.716,355.313,51.314,354.438,50.658,352.989z M443.18,356.948
					c-2.008-0.919-2.885-3.281-1.966-5.272l0,0c0.92-2.008,3.283-2.885,5.289-1.966l0,0c2.008,0.92,2.885,3.283,1.966,5.29l0,0
					c-0.685,1.486-2.171,2.348-3.718,2.317l0,0C444.224,357.304,443.684,357.198,443.18,356.948z M44.044,336.403
					c-0.723-2.089,0.361-4.364,2.45-5.086l0,0c2.074-0.739,4.348,0.361,5.071,2.434l0,0c0.738,2.074-0.361,4.347-2.434,5.087l0,0
					c-0.466,0.166-0.93,0.236-1.409,0.226l0,0C46.112,339.031,44.617,338.011,44.044,336.403z M450.147,340.85
					c-2.074-0.761-3.144-3.049-2.399-5.107l0,0c0.761-2.073,3.049-3.143,5.107-2.4l0,0c2.074,0.761,3.144,3.048,2.398,5.107l0,0l0,0
					l0,0c-0.607,1.647-2.175,2.668-3.834,2.633l0,0C450.988,341.075,450.56,341.002,450.147,340.85z M38.828,319.321
					c-0.563-2.134,0.71-4.31,2.844-4.872l0,0c2.134-0.562,4.309,0.711,4.871,2.845l0,0c0.547,2.133-0.727,4.309-2.86,4.871l0,0
					c-0.353,0.104-0.721,0.145-1.087,0.137l0,0C40.857,322.266,39.286,321.085,38.828,319.321z M455.739,324.23
					c-2.126-0.587-3.372-2.766-2.786-4.892l0,0c0.57-2.126,2.765-3.389,4.892-2.802l0,0c2.126,0.57,3.372,2.766,2.802,4.892l0,0
					c-0.5,1.809-2.151,2.971-3.937,2.934l0,0C456.39,324.355,456.072,324.316,455.739,324.23z M35.023,301.868L35.023,301.868
					L35.023,301.868c-0.386-2.178,1.061-4.238,3.239-4.624l0,0c2.177-0.37,4.237,1.076,4.607,3.254l0,0
					c0.386,2.162-1.06,4.221-3.237,4.607l0,0c-0.257,0.043-0.512,0.07-0.767,0.064l0,0
					C36.999,305.132,35.351,303.773,35.023,301.868z M459.968,307.198c-2.162-0.396-3.603-2.467-3.192-4.645l0,0
					c0.397-2.162,2.467-3.587,4.645-3.191l0,0c2.162,0.396,3.587,2.483,3.192,4.645l0,0l0,0l0,0
					c-0.36,1.955-2.079,3.308-3.992,3.268l0,0C460.396,307.271,460.189,307.25,459.968,307.198z M32.66,284.158L32.66,284.158
					L32.66,284.158c-0.194-2.189,1.425-4.134,3.615-4.328l0,0c2.19-0.21,4.136,1.409,4.33,3.599l0,0
					c0.209,2.19-1.41,4.135-3.6,4.345l0,0c-0.16,0.012-0.303,0.009-0.447,0.006l0,0C34.549,287.739,32.857,286.204,32.66,284.158z
					 M462.764,289.897c-2.18-0.22-3.783-2.184-3.563-4.381l0,0c0.221-2.181,2.184-3.784,4.382-3.563l0,0
					c2.181,0.237,3.785,2.184,3.563,4.381l0,0l0,0l0,0c-0.217,2.07-1.99,3.629-4.047,3.586l0,0
					C462.988,289.918,462.876,289.899,462.764,289.897z M31.768,266.318c-0.018-2.202,1.742-4,3.944-4.019l0,0
					c2.203-0.018,4.001,1.742,4.035,3.944l0,0c0.018,2.202-1.757,4-3.96,4.034l0,0c-0.032,0-0.08-0.001-0.112-0.002l0,0
					C33.522,270.232,31.787,268.489,31.768,266.318z M460.258,268.339c0.045-2.2,1.868-3.95,4.069-3.905l0,0
					c2.201,0.045,3.95,1.868,3.905,4.069l0,0l0,0l0,0c-0.046,2.202-1.868,3.95-4.069,3.905l0,0
					C461.962,272.363,460.212,270.54,460.258,268.339z M36.004,252.733c-2.198-0.157-3.85-2.058-3.709-4.257l0,0c0,0,0,0,0.017,0
					l0,0c0.14-2.199,2.057-3.85,4.256-3.694l0,0c2.182,0.157,3.85,2.058,3.694,4.256l0,0c-0.155,2.119-1.944,3.741-4.048,3.698l0,0
					C36.132,252.736,36.068,252.734,36.004,252.733z M460.129,255.222l-0.016,0c-0.082-2.203,1.631-4.051,3.834-4.149l0,0
					c2.203-0.082,4.052,1.615,4.15,3.819l0,0l0,0l0,0c0.082,2.203-1.633,4.066-3.836,4.149l0,0
					c-0.079-0.002-0.159,0.013-0.239,0.011l0,0C461.933,259.009,460.213,257.346,460.129,255.222z M37.625,235.281
					c-2.179-0.348-3.684-2.373-3.336-4.552l0,0c0.332-2.179,2.357-3.669,4.536-3.336l0,0c2.179,0.332,3.669,2.357,3.337,4.536l0,0
					c-0.297,2.005-2.049,3.436-4.011,3.396l0,0C37.975,235.32,37.799,235.3,37.625,235.281z M458.728,238.075
					c-0.274-2.192,1.283-4.186,3.457-4.444l0,0c2.191-0.274,4.186,1.283,4.459,3.474l0,0c0.259,2.175-1.298,4.169-3.473,4.444l0,0
					c-0.192,0.012-0.384,0.023-0.575,0.019l0,0C460.634,241.528,458.974,240.074,458.728,238.075z M40.661,218.001
					c-2.144-0.507-3.471-2.656-2.964-4.799l0,0c0.523-2.143,2.672-3.471,4.816-2.965l0,0c2.143,0.523,3.454,2.673,2.947,4.815l0,0
					c-0.437,1.858-2.122,3.1-3.956,3.062l0,0C41.218,218.108,40.947,218.071,40.661,218.001z M455.919,221.089
					c-0.449-2.147,0.949-4.256,3.096-4.706l0,0c2.164-0.45,4.273,0.933,4.722,3.096l0,0c0.434,2.147-0.949,4.257-3.096,4.707l0,0
					c-0.304,0.073-0.608,0.099-0.894,0.093l0,0C457.928,224.242,456.312,222.948,455.919,221.089z M45.111,201.038
					c-2.091-0.681-3.242-2.938-2.561-5.031l0,0c0.698-2.091,2.955-3.241,5.046-2.544l0,0c2.093,0.681,3.227,2.922,2.545,5.03l0,0
					c-0.562,1.696-2.163,2.779-3.87,2.744l0,0C45.889,201.229,45.492,201.157,45.111,201.038z M451.732,204.41
					c-0.626-2.118,0.583-4.327,2.702-4.953l0,0c2.102-0.628,4.327,0.583,4.954,2.686l0,0c0.626,2.119-0.583,4.328-2.703,4.954l0,0
					c-0.401,0.12-0.801,0.175-1.215,0.166l0,0C453.78,207.229,452.239,206.112,451.732,204.41z M50.941,184.485
					c-2.024-0.855-2.981-3.204-2.126-5.229l0,0c0.856-2.024,3.205-2.981,5.229-2.126l0,0c2.025,0.856,2.982,3.189,2.125,5.229l0,0
					c-0.654,1.55-2.173,2.46-3.768,2.428l0,0C51.924,184.777,51.431,184.687,50.941,184.485z M446.18,188.119
					c-0.787-2.059,0.235-4.367,2.292-5.154l0,0c2.043-0.803,4.352,0.217,5.154,2.276l0,0c0.788,2.059-0.233,4.367-2.275,5.155l0,0
					c-0.5,0.197-1.028,0.282-1.522,0.272l0,0C448.25,190.634,446.786,189.678,446.18,188.119z M58.131,168.472
					c-1.957-1.03-2.721-3.438-1.692-5.38l0,0c1.014-1.957,3.423-2.721,5.38-1.692l0,0c1.958,1.013,2.706,3.422,1.693,5.38l0,0
					c-0.731,1.389-2.167,2.173-3.634,2.143l0,0C59.287,168.911,58.684,168.755,58.131,168.472z M439.326,172.341l0,0.017
					c-0.964-1.982-0.133-4.374,1.85-5.339l0,0c1.981-0.964,4.358-0.134,5.321,1.848l0,0c0.964,1.982,0.134,4.375-1.848,5.322l0,0
					c-0.581,0.292-1.205,0.422-1.811,0.41l0,0C441.386,174.57,440,173.744,439.326,172.341z M66.601,153.091
					c-1.874-1.171-2.43-3.623-1.243-5.497l0,0c1.171-1.859,3.64-2.414,5.498-1.243l0,0c1.857,1.187,2.414,3.64,1.243,5.514l0,0
					c-0.775,1.212-2.113,1.87-3.452,1.843l0,0C67.945,153.693,67.23,153.503,66.601,153.091z M431.183,157.192
					c-1.125-1.89-0.484-4.349,1.406-5.459l0,0c1.89-1.126,4.35-0.5,5.458,1.405l0,0l0,0l0,0c1.126,1.89,0.501,4.334-1.404,5.459l0,0
					c-0.663,0.385-1.384,0.562-2.102,0.547l0,0C433.201,159.117,431.907,158.42,431.183,157.192z M76.3,138.47
					c-1.76-1.312-2.123-3.825-0.795-5.568l0,0c1.329-1.775,3.825-2.123,5.585-0.794l0,0c1.76,1.329,2.107,3.825,0.794,5.584l0,0
					c-0.803,1.068-2.043,1.617-3.271,1.592l0,0C77.798,139.266,76.991,138.995,76.3,138.47z M421.828,142.753
					c-1.272-1.797-0.837-4.293,0.961-5.564l0,0c1.796-1.272,4.277-0.837,5.564,0.96l0,0c1.27,1.798,0.837,4.293-0.96,5.549l0,0
					c-0.729,0.512-1.563,0.749-2.377,0.732l0,0C423.788,144.404,422.588,143.821,421.828,142.753z M87.145,124.701
					c-1.628-1.469-1.784-3.993-0.33-5.638l0,0c1.47-1.646,3.993-1.784,5.638-0.331l0,0c1.645,1.47,1.801,3.994,0.331,5.639l0,0
					c-0.816,0.909-1.943,1.364-3.059,1.341l0,0C88.8,125.693,87.898,125.355,87.145,124.701z M411.341,129.104
					c-1.417-1.689-1.19-4.189,0.499-5.606l0,0c1.689-1.417,4.205-1.19,5.605,0.498l0,0c1.417,1.689,1.189,4.205-0.499,5.622l0,0
					c-0.763,0.638-1.71,0.938-2.635,0.919l0,0C413.194,130.514,412.104,130.028,411.341,129.104z M99.088,111.849
					c-1.515-1.595-1.463-4.114,0.132-5.629l0,0c1.595-1.53,4.115-1.478,5.645,0.117l0,0c1.515,1.595,1.463,4.115-0.132,5.645l0,0
					c-0.798,0.749-1.826,1.127-2.831,1.106l0,0C100.882,113.067,99.853,112.647,99.088,111.849z M399.75,116.372l0.015,0
					c-1.547-1.563-1.527-4.084,0.037-5.632l0,0c1.563-1.547,4.084-1.527,5.63,0.037l0,0c1.547,1.563,1.529,4.084-0.035,5.631l0,0
					c-0.798,0.798-1.844,1.175-2.88,1.154l0,0C401.512,117.541,400.514,117.137,399.75,116.372z M112.047,100.023
					c-1.4-1.72-1.125-4.234,0.579-5.619l0,0c1.72-1.385,4.22-1.126,5.62,0.594l0,0c1.384,1.704,1.109,4.219-0.595,5.604l0,0
					c-0.762,0.622-1.678,0.907-2.586,0.889l0,0C113.932,101.466,112.81,100.964,112.047,100.023z M387.18,104.61L387.18,104.61
					c-1.662-1.439-1.849-3.947-0.411-5.624l0,0c1.438-1.661,3.947-1.849,5.624-0.411l0,0c1.663,1.438,1.851,3.947,0.411,5.624l0,0
					c-0.8,0.941-1.96,1.412-3.107,1.388l0,0C388.804,105.569,387.917,105.247,387.18,104.61z M125.91,89.268
					c-1.255-1.813-0.773-4.291,1.039-5.53l0,0c1.812-1.255,4.292-0.789,5.546,1.04l0,0c1.24,1.813,0.773,4.292-1.04,5.547l0,0
					c-0.712,0.479-1.53,0.702-2.327,0.686l0,0C127.869,90.984,126.669,90.385,125.91,89.268z M373.696,93.913L373.696,93.913
					c-1.776-1.297-2.172-3.794-0.874-5.57l0,0c1.297-1.776,3.793-2.171,5.569-0.874l0,0l0,0l0,0
					c1.777,1.297,2.172,3.794,0.874,5.571l0,0c-0.803,1.1-2.044,1.665-3.304,1.638l0,0
					C375.164,94.662,374.371,94.422,373.696,93.913z M140.594,79.696c-1.093-1.906-0.421-4.348,1.499-5.425l0,0
					c1.905-1.093,4.349-0.437,5.426,1.483l0,0c1.093,1.906,0.436,4.349-1.485,5.442l0,0c-0.646,0.369-1.351,0.531-2.052,0.516l0,0
					C142.627,81.684,141.317,80.971,140.594,79.696z M359.374,84.349c-1.874-1.139-2.478-3.592-1.323-5.467l0,0
					c1.139-1.891,3.593-2.479,5.484-1.323l0,0c0,0,0,0,0-0.016l0,0c1.874,1.156,2.462,3.608,1.322,5.484l0,0
					c-0.76,1.261-2.114,1.935-3.484,1.907l0,0C360.687,84.919,360.005,84.729,359.374,84.349z M156.019,71.366
					c-0.933-1.998-0.069-4.373,1.927-5.305l0,0l0,0l0,0c1.998-0.932,4.373-0.069,5.305,1.929l0,0
					c0.932,1.997,0.07,4.372-1.928,5.305l0,0c-0.58,0.259-1.173,0.39-1.762,0.378l0,0C158.077,73.642,156.691,72.784,156.019,71.366
					z M344.326,75.997L344.326,75.997c-1.974-0.982-2.769-3.375-1.772-5.349l0,0c0.982-1.974,3.375-2.754,5.349-1.772l0,0
					c1.974,0.982,2.754,3.375,1.772,5.35l0,0c-0.715,1.421-2.151,2.237-3.651,2.206l0,0
					C345.45,76.419,344.864,76.281,344.326,75.997z M172.07,64.311c-0.771-2.059,0.297-4.349,2.355-5.121l0,0l0,0l0,0
					c2.074-0.755,4.365,0.297,5.12,2.371l0,0c0.772,2.058-0.281,4.35-2.355,5.121l0,0c-0.482,0.165-0.979,0.251-1.457,0.241l0,0
					C174.139,66.89,172.66,65.902,172.07,64.311z M328.63,68.91c-2.041-0.824-3.029-3.142-2.207-5.183l0,0
					c0.824-2.041,3.143-3.03,5.184-2.206l0,0c2.041,0.824,3.029,3.141,2.205,5.182l0,0c-0.623,1.583-2.174,2.524-3.769,2.492l0,0
					C329.565,69.185,329.089,69.094,328.63,68.91z M188.652,58.606c-0.594-2.119,0.647-4.31,2.782-4.905l0,0l0,0l0,0
					c2.118-0.594,4.31,0.647,4.905,2.766l0,0c0.595,2.134-0.647,4.326-2.781,4.92l0,0c-0.369,0.105-0.769,0.16-1.136,0.153l0,0
					C190.699,61.504,189.142,60.354,188.652,58.606z M312.429,63.135L312.429,63.135c-2.108-0.65-3.292-2.876-2.642-4.984l0,0
					c0.667-2.108,2.892-3.275,5.001-2.625l0,0c2.091,0.649,3.275,2.875,2.625,4.984l0,0c-0.547,1.744-2.165,2.843-3.888,2.808l0,0
					C313.159,63.31,312.792,63.255,312.429,63.135z M205.652,54.298c-0.418-2.163,0.998-4.256,3.176-4.673l0,0c0,0,0,0-0.016,0l0,0
					c2.179-0.418,4.255,1.013,4.673,3.176l0,0c0.418,2.162-0.996,4.239-3.159,4.657l-0.016,0c-0.273,0.058-0.56,0.084-0.831,0.079
					l0,0C207.645,57.498,206.013,56.171,205.652,54.298z M295.799,58.724c-2.16-0.475-3.52-2.609-3.029-4.753l0,0
					c0.475-2.16,2.593-3.504,4.754-3.029l0,0c2.143,0.475,3.503,2.609,3.029,4.753l0,0c-0.422,1.89-2.108,3.163-3.973,3.124l0,0
					C296.323,58.814,296.053,58.777,295.799,58.724z M222.944,51.383c-0.227-2.191,1.346-4.152,3.536-4.394l0,0
					c2.191-0.226,4.168,1.362,4.394,3.553l0,0c0.242,2.191-1.346,4.153-3.537,4.378l0,0c-0.176,0.028-0.352,0.025-0.511,0.021l0,0
					C224.849,54.901,223.157,53.398,222.944,51.383z M278.853,55.694L278.853,55.694c-2.18-0.3-3.716-2.31-3.418-4.49l0,0
					c0.301-2.195,2.327-3.717,4.506-3.417l0,0l0,0l0,0c2.18,0.3,3.703,2.31,3.402,4.49l0,0c-0.282,2.036-2.035,3.484-4.028,3.443
					l0,0C279.157,55.717,279.014,55.714,278.853,55.694z M240.428,49.909c-0.067-2.203,1.679-4.033,3.881-4.084l0,0l0,0l0,0
					c2.204-0.067,4.034,1.679,4.084,3.881l0,0c0.051,2.203-1.679,4.034-3.881,4.084l0,0c-0.064-0.001-0.128-0.003-0.191-0.004l0,0
					C242.199,53.742,240.48,52.048,240.428,49.909z M257.963,49.839c0.125-2.199,1.995-3.883,4.194-3.759l0,0
					c2.199,0.126,3.883,2.011,3.774,4.211l0,0c-0.125,2.199-2.011,3.883-4.21,3.757l0,0
					C259.522,53.924,257.838,52.055,257.963,49.839z"/>
			</g>
		</g>
	</g>
	<g>
		<ellipse style="fill:#B7B7B7;" cx="250.44" cy="367.807" rx="219.057" ry="14.506"/>
		<g>
			<g>
				<path style="fill:#2D3E50;" d="M417.595,152.362v180.851c0,7.456-6.044,13.5-13.5,13.5H95.883c-7.456,0-13.5-6.044-13.5-13.5
					V152.362c0-7.456,6.044-13.5,13.5-13.5h308.213C411.551,138.862,417.595,144.906,417.595,152.362z"/>
				<path style="fill:#1D2333;" d="M417.595,242.786v90.427c0,7.456-6.044,13.5-13.5,13.5H95.883c-7.456,0-13.5-6.044-13.5-13.5
					v-90.427H417.595z"/>
				<path style="fill:#E6E6E6;" d="M402.704,161.007V313.19c0,4.478-3.873,8.109-8.654,8.109H105.932
					c-2.555,0-4.853-1.038-6.438-2.691c-1.381-1.433-2.219-3.336-2.219-5.418V161.007c0-4.478,3.877-8.109,8.657-8.109H394.05
					c1.599,0,3.095,0.405,4.379,1.115C400.987,155.421,402.704,158.028,402.704,161.007z"/>
				<g>
					<rect x="122.006" y="178.515" style="fill:#FFFFFF;" width="258.186" height="128.588"/>
					<rect x="122.006" y="178.515" style="fill:#B7B7B7;" width="258.186" height="11.04"/>
					<g>
						<path style="fill:#EDB92B;" d="M358.873,184.035c0,1.265-1.026,2.29-2.29,2.29c-1.265,0-2.29-1.025-2.29-2.29
							c0-1.265,1.025-2.29,2.29-2.29C357.848,181.745,358.873,182.77,358.873,184.035z"/>
						<path style="fill:#3BC161;" d="M366.296,184.035c0,1.265-1.026,2.29-2.29,2.29c-1.265,0-2.29-1.025-2.29-2.29
							c0-1.265,1.025-2.29,2.29-2.29C365.27,181.745,366.296,182.77,366.296,184.035z"/>
						<path style="fill:#DC4131;" d="M373.36,184.035c0,1.265-1.025,2.29-2.29,2.29c-1.265,0-2.29-1.025-2.29-2.29
							c0-1.265,1.025-2.29,2.29-2.29C372.334,181.745,373.36,182.77,373.36,184.035z"/>
					</g>
					<g>
						<circle style="fill:#4173F7;" cx="251.099" cy="246.426" r="39.304"/>
						<polygon style="fill:#FFFFFF;" points="237.275,267.094 237.275,225.757 272.594,246.426 						"/>
					</g>
					<g style="opacity:0.3;">
						<rect x="136.688" y="287.926" style="fill:#686868;" width="41.389" height="5.541"/>
						<rect x="136.688" y="275.277" style="fill:#686868;" width="41.389" height="5.541"/>
						<rect x="136.688" y="262.628" style="fill:#686868;" width="41.389" height="5.541"/>
						<rect x="136.688" y="249.98" style="fill:#686868;" width="41.389" height="5.541"/>
						<rect x="136.688" y="237.331" style="fill:#686868;" width="41.389" height="5.541"/>
						<rect x="136.688" y="224.682" style="fill:#686868;" width="41.389" height="5.541"/>
						<rect x="136.688" y="212.033" style="fill:#686868;" width="41.389" height="5.541"/>
						<rect x="136.688" y="199.384" style="fill:#686868;" width="41.389" height="5.541"/>
					</g>
					<g style="opacity:0.3;">
						<rect x="322.617" y="287.926" style="fill:#686868;" width="41.389" height="5.541"/>
						<rect x="322.617" y="275.277" style="fill:#686868;" width="41.389" height="5.541"/>
						<rect x="322.617" y="262.628" style="fill:#686868;" width="41.389" height="5.541"/>
						<rect x="322.617" y="249.98" style="fill:#686868;" width="41.389" height="5.541"/>
						<rect x="322.617" y="237.331" style="fill:#686868;" width="41.389" height="5.541"/>
						<rect x="322.617" y="224.682" style="fill:#686868;" width="41.389" height="5.541"/>
						<rect x="322.617" y="212.033" style="fill:#686868;" width="41.389" height="5.541"/>
						<rect x="322.617" y="199.384" style="fill:#686868;" width="41.389" height="5.541"/>
					</g>
				</g>
			</g>
			<path style="fill:#2D3E50;" d="M448.908,339.485v1.156c0,5.753-1.845,11.073-4.978,15.4c-4.777,6.608-12.551,10.907-21.33,10.907
				H77.378c-8.778,0-16.553-4.299-21.33-10.907c-3.133-4.327-4.978-9.647-4.978-15.4v-1.156H448.908z"/>
			<path style="fill:#D8D8D8;" d="M205.4,339.485v0.264c0,2.083,1.395,3.772,3.115,3.772h81.217c1.72,0,3.115-1.688,3.115-3.772
				v-0.264H205.4z"/>
			<path style="fill:#D8D8D8;" d="M408.591,348.34h-22.244c-0.561,0-1.015-0.454-1.015-1.015v-1.222c0-0.56,0.454-1.015,1.015-1.015
				h22.244c0.561,0,1.015,0.454,1.015,1.015v1.222C409.606,347.885,409.152,348.34,408.591,348.34z"/>
			<path style="fill:#1D2333;" d="M443.93,356.041c-4.777,6.608-12.551,10.907-21.33,10.907H77.378
				c-8.778,0-16.553-4.299-21.33-10.907H443.93z"/>
			<g>
				<path style="fill:#B7B7B7;" d="M402.704,161.555v9.585H97.274v-9.585c0-1.845,0.575-3.551,1.561-4.953
					c1.561-2.24,4.157-3.704,7.096-3.704H394.05c2.939,0,5.535,1.464,7.092,3.704C402.129,158.004,402.704,159.71,402.704,161.555z"
					/>
				<g>
					<path style="fill:#EDB92B;" d="M380.23,164.309c0,1.265-1.026,2.29-2.29,2.29c-1.265,0-2.29-1.025-2.29-2.29
						c0-1.265,1.025-2.29,2.29-2.29C379.205,162.019,380.23,163.045,380.23,164.309z"/>
					<path style="fill:#3BC161;" d="M387.653,164.309c0,1.265-1.026,2.29-2.29,2.29c-1.265,0-2.29-1.025-2.29-2.29
						c0-1.265,1.026-2.29,2.29-2.29C386.628,162.019,387.653,163.045,387.653,164.309z"/>
					<path style="fill:#DC4131;" d="M394.717,164.309c0,1.265-1.026,2.29-2.29,2.29c-1.265,0-2.29-1.025-2.29-2.29
						c0-1.265,1.025-2.29,2.29-2.29C393.691,162.019,394.717,163.045,394.717,164.309z"/>
				</g>
				<path style="fill:#FFFFFF;" d="M328.163,164.91H167.691c-0.832,0-1.512-0.681-1.512-1.512v-1.821
					c0-0.832,0.681-1.512,1.512-1.512h160.472c0.832,0,1.513,0.681,1.513,1.512v1.821
					C329.675,164.229,328.994,164.91,328.163,164.91z"/>
				<polygon style="fill:#2D3E50;" points="127.137,162.486 127.137,165.442 124.578,163.964 122.018,162.486 124.578,161.009 
					127.137,159.531 				"/>
				<polygon style="fill:#2D3E50;" points="135.231,162.486 135.231,165.442 137.791,163.964 140.35,162.486 137.791,161.009 
					135.231,159.531 				"/>
			</g>
			<path style="opacity:0.2;" d="M401.143,156.602H98.836c1.561-2.24,4.157-3.704,7.096-3.704H394.05
				C396.989,152.898,399.585,154.362,401.143,156.602z"/>
			<path style="opacity:0.2;fill:#FFFFFF;" d="M402.704,161.01v150.588c0,4.431-3.873,8.024-8.654,8.024H105.932
				c-2.555,0-4.853-1.027-6.438-2.663l298.936-162.87C400.987,155.481,402.704,158.061,402.704,161.01z"/>
		</g>
	</g>
	<g>
		<path style="fill:#B7B7B7;" d="M205.65,425.005l-26.003-29.072H38.632c-2.212,0.89-3.15,3.744-1.581,5.803l15.857,20.808
			c4.211,5.526,10.761,8.77,17.709,8.77h132.212C206.1,431.314,207.831,427.443,205.65,425.005z"/>
		<g>
			<g>
				<g>
					<path style="fill:#EDB92B;" d="M37.242,383.986c1.836,6.766,23.663,29.413,28.334,34.203c3.112,3.96,7.89,6.552,13.268,6.716
						c0.085,0.008,0.171,0.012,0.258,0.012h107.376c1.372,0,2.494-1.122,2.494-2.492c0-1.372-1.122-2.492-2.494-2.492H79.381
						c-6.929-0.002-12.566-5.638-12.566-12.566s5.638-12.566,12.566-12.566h107.097c1.372,0,2.494-1.122,2.494-2.492
						c0-1.372-1.122-2.494-2.494-2.494h-0.156l0.418-0.847l-44.945-23.981H51.551C51.551,364.987,32.691,367.221,37.242,383.986z"/>
				</g>
			</g>
			<path style="opacity:0.2;" d="M67.187,401.872c0.048-0.102,0.098-0.202,0.15-0.302c2.107-4.051,6.237-6.631,10.782-6.762
				c0.414-0.042,0.833-0.062,1.257-0.062h107.102c1.347,0,2.446-1.07,2.496-2.384H79.377
				C73.506,392.362,68.557,396.415,67.187,401.872z"/>
			<g>
				<path style="fill:#FFFFFF;" d="M78.486,419.933h107.993v-25.132H78.486c-4.688,0-8.986,2.609-11.148,6.768l0,0
					c-1.89,3.634-1.89,7.961,0,11.595v0C69.5,417.324,73.798,419.933,78.486,419.933z"/>
			</g>
			<g>
				<g>
					<g>
						<path style="fill:#D8D8D8;" d="M186.479,402.397H79.837c-0.463,0-0.838-0.375-0.838-0.838c0-0.463,0.375-0.838,0.838-0.838
							h106.643V402.397z"/>
					</g>
				</g>
				<g>
					<g>
						<path style="fill:#D8D8D8;" d="M186.479,408.205H79.837c-0.463,0-0.838-0.376-0.838-0.838c0-0.463,0.375-0.838,0.838-0.838
							h106.643V408.205z"/>
					</g>
				</g>
				<g>
					<g>
						<path style="fill:#D8D8D8;" d="M186.479,414.013H79.837c-0.463,0-0.838-0.375-0.838-0.838c0-0.463,0.375-0.838,0.838-0.838
							h106.643V414.013z"/>
					</g>
				</g>
			</g>
		</g>
		<g>
			<g>
				<g>
					<path style="fill:#4173F7;" d="M36.98,348.678c1.928,7.093,25.832,31.653,28.888,34.771c3.117,3.756,7.765,6.196,12.976,6.354
						c0.085,0.008,0.171,0.012,0.258,0.012h107.376c1.372,0,2.494-1.122,2.494-2.492c0-1.372-1.122-2.492-2.494-2.492H79.381
						c-6.929-0.002-12.566-5.638-12.566-12.566c0-6.928,5.638-12.566,12.566-12.566h107.097c1.372,0,2.494-1.122,2.494-2.492
						c0-1.372-1.122-2.494-2.494-2.494h-0.521l0.521-1.053l-44.945-23.981H51.288C51.288,329.679,32.429,331.913,36.98,348.678z"/>
				</g>
			</g>
			<path style="opacity:0.2;" d="M67.192,366.761c0.046-0.1,0.096-0.196,0.146-0.293c2.128-4.091,6.318-6.683,10.917-6.764
				c0.371-0.033,0.743-0.05,1.122-0.05h107.102c1.347,0,2.446-1.068,2.496-2.384H79.377
				C73.512,357.27,68.568,361.317,67.192,366.761z"/>
			<g>
				<path style="fill:#FFFFFF;" d="M78.486,384.831h107.993v-25.132H78.486c-4.688,0-8.986,2.609-11.148,6.768v0
					c-1.89,3.634-1.89,7.961,0,11.595l0,0C69.5,382.221,73.798,384.831,78.486,384.831z"/>
			</g>
			<g>
				<g>
					<g>
						<path style="fill:#D8D8D8;" d="M186.479,367.295H79.837c-0.463,0-0.838-0.375-0.838-0.838c0-0.463,0.375-0.838,0.838-0.838
							h106.642V367.295z"/>
					</g>
				</g>
				<g>
					<g>
						<path style="fill:#D8D8D8;" d="M186.479,373.103H79.837c-0.463,0-0.838-0.375-0.838-0.838c0-0.463,0.375-0.838,0.838-0.838
							h106.642V373.103z"/>
					</g>
				</g>
				<g>
					<g>
						<path style="fill:#D8D8D8;" d="M186.479,378.911H79.837c-0.463,0-0.838-0.375-0.838-0.838s0.375-0.838,0.838-0.838h106.642
							V378.911z"/>
					</g>
				</g>
			</g>
		</g>
		<g>
			<g>
				<path style="fill:#FFFFFF;" d="M78.486,349.728h107.993v-25.132H78.486c-4.688,0-8.986,2.609-11.148,6.768l0,0
					c-1.89,3.634-1.89,7.961,0,11.595l0,0C69.5,347.119,73.798,349.728,78.486,349.728z"/>
			</g>
			<g>
				<path style="fill:#DC4131;" d="M38.494,315.15c1.305,4.788,12.576,17.487,20.724,26.221c0.072,0.072,0.144,0.154,0.226,0.236
					c0.113,0.123,0.226,0.236,0.329,0.349c2.527,2.702,4.706,4.973,6.144,6.452c0.021,0.031,0.051,0.051,0.082,0.082
					c0.853,0.884,1.428,1.469,1.624,1.675c0.031,0.031,0.062,0.062,0.072,0.072c0.01,0.01,0.01,0.01,0.01,0.01
					c2.98,2.671,6.874,4.326,11.138,4.449c0.082,0.01,0.175,0.021,0.257,0.021h107.379c1.377,0,2.497-1.12,2.497-2.497
					c0-1.366-1.12-2.497-2.497-2.497H79.377c-5.363,0-9.946-3.37-11.754-8.117c-0.524-1.377-0.812-2.877-0.812-4.449
					c0-1.233,0.175-2.425,0.514-3.545c0-0.01,0-0.021,0.01-0.031c1.541-5.189,6.36-8.99,12.042-8.99h107.102
					c1.346,0,2.445-1.069,2.497-2.384v-0.103c0-0.801-0.39-1.51-0.976-1.973l-0.01-0.01c-0.226-0.164-0.473-0.298-0.74-0.39
					l-0.031-0.01l-44.17-23.57H52.807C52.807,296.152,33.943,298.382,38.494,315.15z"/>
			</g>
			<path style="opacity:0.2;" d="M66.811,334.774c0,0.247,0.01,0.493,0.021,0.74c0.01,0.061,0.01,0.103,0.01,0.103
				c0.092-0.73,0.257-1.397,0.483-2.004c0-0.01,0-0.021,0.01-0.031c1.541-5.189,6.36-8.99,12.042-8.99h107.102
				c1.346,0,2.445-1.069,2.497-2.384H79.377C72.452,322.208,66.811,327.849,66.811,334.774z"/>
			<g>
				<g>
					<g>
						<path style="fill:#D8D8D8;" d="M186.479,332.193H79.837c-0.463,0-0.838-0.375-0.838-0.838c0-0.463,0.375-0.838,0.838-0.838
							h106.643V332.193z"/>
					</g>
				</g>
				<g>
					<g>
						<path style="fill:#D8D8D8;" d="M186.479,338H79.837c-0.463,0-0.838-0.375-0.838-0.838c0-0.463,0.375-0.838,0.838-0.838
							h106.643V338z"/>
					</g>
				</g>
				<g>
					<g>
						<path style="fill:#D8D8D8;" d="M186.479,343.809H79.837c-0.463,0-0.838-0.375-0.838-0.838c0-0.463,0.375-0.838,0.838-0.838
							h106.643V343.809z"/>
					</g>
				</g>
			</g>
		</g>
		<g>
			<path style="fill:#2956D7;" d="M62.993,258.345v52.353c34.411,10.267,68.759,10.305,103.043,0v-52.353H62.993z"/>
			<polygon style="fill:#4173F7;" points="116.719,272.56 20.422,252.398 116.719,226.414 208.893,252.398 			"/>
			<g>
				<path style="fill:#EDB92B;" d="M171.682,321.259c-0.565,0-1.023-0.458-1.023-1.023v-58.868l-56.355-11.799
					c-0.553-0.116-0.907-0.658-0.791-1.211c0.116-0.553,0.658-0.906,1.211-0.792l57.168,11.969c0.474,0.099,0.813,0.517,0.813,1.001
					v59.699C172.705,320.802,172.247,321.259,171.682,321.259z"/>
			</g>
			<ellipse style="fill:#2956D7;" cx="114.998" cy="248.568" rx="8.978" ry="3.182"/>
			<g>
				<g>
					<path style="fill:#EDB92B;" d="M179.202,340.444c-0.607,0.283-1.214,0.532-1.821,0.743c-0.416,0.15-0.832,0.28-1.248,0.392
						c-0.985,0.276-1.967,0.46-2.952,0.556c-0.416,0.041-0.835,0.065-1.251,0.075c-1.292,0.024-2.588-0.102-3.88-0.382
						c-0.447-0.095-0.89-0.208-1.333-0.344c-0.91-0.269-1.821-0.617-2.731-1.04c-0.392-0.181-0.593-0.627-0.457-1.04l5.942-18.117
						c0.672-2.049,3.57-2.049,4.241,0l5.946,18.117C179.795,339.817,179.594,340.263,179.202,340.444z"/>
					<path style="fill:#ED9B06;" d="M168.05,341.828c-0.447-0.095-0.89-0.208-1.333-0.344l1.04-4.214L168.05,341.828z"/>
					<path style="fill:#ED9B06;" d="M177.381,341.187c-0.416,0.15-0.832,0.28-1.248,0.392l-1.047-9.226L177.381,341.187z"/>
					<path style="fill:#ED9B06;" d="M173.181,342.135c-0.416,0.041-0.835,0.065-1.251,0.075l0.29-5.568L173.181,342.135z"/>
				</g>
				<path style="fill:#ED9B06;" d="M174.889,320.961c0,1.82-1.476,3.296-3.296,3.296s-3.296-1.476-3.296-3.296
					c0-1.82,1.475-3.296,3.296-3.296S174.889,319.14,174.889,320.961z"/>
			</g>
		</g>
	</g>
	<g>
		<path style="fill:#FFFFFF;" d="M337.182,391.873c0,0,1.906,6.863,3.67,8.338c1.765,1.474,7.298,8.71,12.689,9.845
			c5.391,1.135,7.52-4.567,0.851-10.039c-5.315-4.361-9.922-11.284-9.922-11.284S341.963,391.425,337.182,391.873z"/>
		<g>
			<g>
				<path style="fill:#AD1931;" d="M297.237,265.005c0,0,13.052,15.58,18.534,18.14c2.406,1.124,4.783,1.52,6.538,1.582
					c0.589,0.022,2.122-0.103,2.206-0.104c0.008,0,0.013,0.002,0.013,0.002c6.512-0.807,14.167-2.767,23.745-6.667l-1.428-4.436
					c0,0-5.755,1.223-12.806,1.726c-2.6,0.183-8.598,0.458-10.816,0.816c-0.55-0.246-1.09-0.514-1.618-0.802
					c-9.732-5.253-16.156-15.948-16.156-15.948C302.37,260.469,298.833,262.629,297.237,265.005z"/>
			</g>
			<g>
				<g>
					<g>
						<path style="fill:#EAB287;" d="M346.604,273.169c0,0,1.334-3.368,3.148-4.33c1.814-0.962,6.978-4.346,8.08-3.333
							c1.102,1.013,0.874,5.876-3.755,9.942c-2.949,2.59-5.919,2.48-5.919,2.48L346.604,273.169z"/>
					</g>
					<g>
						<g>
							<path style="fill:#1D2333;" d="M358.162,268.6l-7.621,7.12c-0.286,0.269-0.804,0.347-1.157,0.175l-4.671-2.258
								c-0.145-0.071-0.24-0.172-0.28-0.287l-0.011-0.037l-0.229-0.781l1.239-0.47l11.991-4.555l0.65-0.245l0.244,0.825l0.019,0.057
								c0.003,0.007,0.004,0.013,0.002,0.021C358.364,268.31,358.306,268.467,358.162,268.6z"/>
						</g>
						<g>
							<g>
								<path style="fill:#2D3E50;" d="M349.151,275.104l-4.673-2.26c-0.352-0.17-0.406-0.525-0.121-0.792l7.622-7.12
									c0.286-0.267,0.803-0.345,1.155-0.175l4.673,2.26c0.352,0.17,0.406,0.525,0.121,0.792l-7.622,7.12
									C350.02,275.196,349.503,275.275,349.151,275.104z"/>
							</g>
						</g>
						<g style="opacity:0.2;">
							<path style="fill:#FFFFFF;" d="M349.717,273.828l-3.62-1.751c-0.352-0.17-0.406-0.525-0.12-0.792l5.928-5.538
								c0.286-0.267,0.803-0.345,1.155-0.175l3.62,1.751c0.352,0.17,0.406,0.525,0.121,0.792l-5.928,5.538
								C350.587,273.92,350.07,273.999,349.717,273.828z"/>
						</g>
					</g>
					<g>
						<path style="fill:#EAB287;" d="M349.621,267.135c0,0,1.086,0.169,1.196,1.103c0.11,0.934-0.899,0.562-1.549,0.357
							c-0.65-0.205-1.234,0.001-1.324,0.106C347.661,269.035,347.71,266.859,349.621,267.135z"/>
					</g>
					<g>
						<path style="fill:#EAB287;" d="M354.475,272.204c0,0,1.704-2.8,3.009-4.329c0.87-1.019,1.314,0.459,0.718,1.489
							C357.607,270.395,356.433,272.494,354.475,272.204z"/>
					</g>
				</g>
			</g>
		</g>
		<g>
			<g>
				<g>
					<g>
						<path style="fill:#2956D7;" d="M298.117,320.69c0,0,17.646-32.979,28.966-29.276c7.548,2.469,25.744,38.92,25.744,38.92
							c-1.663,2.389-5.268,2.334-8.135,0.419c0,0-13.508-11.294-18.298-24.089c0,0-14.351,33.302-33.418,33.302
							C291.737,339.967,295.008,324.01,298.117,320.69z"/>
					</g>
				</g>
			</g>
			<path style="fill:#FFFFFF;" d="M344.692,330.754c0,0-0.473,0.658-0.476,2.019c-0.002,1.361,0.123,6.057,0.123,6.057l22.926,0.039
				c0,0,0.09-3.57-2.811-5.481c-2.901-1.911-7.367-0.052-11.627-3.054C352.827,330.334,351.684,331.375,344.692,330.754z"/>
		</g>
		<g>
			<g>
				<path style="fill:#DC4131;" d="M288.075,248.866c0,0-8.225,0.041-11.975,3.431c-3.75,3.39-0.171,10.277,3.897,11.16
					s16.768-0.623,18.089-2.8C299.406,258.48,298.568,249.033,288.075,248.866z"/>
			</g>
			<g>
				<g>
					<path style="fill:#DC4131;" d="M275.103,322.682l-3.999-25.783l0.867-35.567l9.566-3.235l0.514-0.174l2.147-0.726l1.704-0.576
						l10.1,1.391l1.643,0.225l0.58,0.08l7.225,0.995c0.068,22.859-2.126,27.796,2.099,46.391
						C306.485,314.784,301.874,337.555,275.103,322.682z"/>
				</g>
			</g>
			<g>
				<g>
					<path style="fill:#AD1931;" d="M288.76,263.556c-7.237-0.027-8.916-6.404-8.932-6.469c-0.036-0.143,0.051-0.288,0.194-0.324
						c0.142-0.037,0.288,0.051,0.324,0.194c0.063,0.248,1.604,6.04,8.414,6.065c0.038,0,0.074,0,0.112,0
						c0.143,0.007,0.268,0.118,0.268,0.266c0.001,0.147-0.118,0.268-0.266,0.268C288.837,263.556,288.798,263.556,288.76,263.556z"
						/>
				</g>
			</g>
			<g>
				<g>
					<path style="fill:#AD1931;" d="M295.559,262.557c-0.145-0.001-0.264-0.117-0.266-0.263c-0.002-0.147,0.115-0.268,0.263-0.271
						c0.095-0.002,2.199-0.087,2.743-2.931c0.027-0.144,0.166-0.24,0.312-0.212c0.145,0.028,0.24,0.168,0.212,0.312
						c-0.628,3.288-3.232,3.365-3.258,3.365C295.563,262.557,295.561,262.557,295.559,262.557z"/>
				</g>
			</g>
			<g>
				<path style="fill:#AD1931;" d="M283.875,298.641c0,0-1.175,8.972,1.218,13.363c0,0,11.901,0.833,20.554-2.569
					c0,0-2.162-6.263-2.195-12.378L283.875,298.641z"/>
			</g>
			<g>
				<path style="fill:#FFFFFF;" d="M290.23,289.145c-0.007,0-0.015,0-0.023-0.001c-0.147-0.013-0.255-0.143-0.242-0.29
					c0.599-6.652-1.894-23.445-1.919-23.614c-0.022-0.146,0.079-0.282,0.225-0.303c0.146-0.022,0.282,0.079,0.303,0.225
					c0.025,0.169,2.527,17.026,1.923,23.741C290.484,289.041,290.368,289.146,290.23,289.145z"/>
			</g>
			<g>
				<path style="fill:#FFFFFF;" d="M299.033,287.842c-0.008,0-0.016,0-0.023-0.001c-0.147-0.013-0.255-0.143-0.242-0.29
					c0.599-6.652-1.978-23.576-2.004-23.747c-0.022-0.146,0.078-0.282,0.223-0.304c0.146-0.023,0.282,0.078,0.305,0.224
					c0.026,0.171,2.612,17.16,2.008,23.875C299.287,287.738,299.17,287.843,299.033,287.842z"/>
			</g>
		</g>
		<g>
			<g>
				<g>
					<path style="fill:#1D2333;" d="M309.889,233.774c0,0,2.019,2.26-0.017,6.408c-2.036,4.149-3.854,4.168-3.854,4.168
						S306.021,233.971,309.889,233.774z"/>
				</g>
			</g>
			<g>
				<g>
					<path style="fill:#EAB287;" d="M294.843,252.072l-1.942,5.4l-0.89,2.475c-3.86,1.399-8.045-3.353-8.045-3.353l2.112-8.737
						c1.757-0.551,5.046,1.825,7.125,3.129C294.184,251.601,294.843,252.072,294.843,252.072z"/>
				</g>
			</g>
			<g>
				<g>
					<path style="fill:#DE9367;" d="M294.843,252.072l-2.423,6.74c-4.361-2.047-4.557-9.377-4.557-9.377l5.341,1.551
						C294.184,251.601,294.843,252.072,294.843,252.072z"/>
				</g>
			</g>
			<g>
				<g>
					<path style="fill:#EAB287;" d="M309.088,241.053c-0.053,0.19-0.106,0.381-0.166,0.575c-0.506,1.702-1.18,3.551-1.912,5.387
						c-0.154,0.384-0.311,0.768-0.47,1.149c-0.137,0.328-0.273,0.657-0.412,0.982c-0.289,0.674-0.579,1.341-0.865,1.983
						c-0.199,0.447-0.394,0.884-0.589,1.308c-0.137,0.298-0.292,0.58-0.462,0.847c-0.537,0.838-1.238,1.525-2.037,2.04
						c-1.938,1.249-4.466,1.485-6.694,0.387c-1.822-0.899-3.822-1.94-5.66-3.017c-0.091-0.052-0.18-0.103-0.27-0.157
						c-1.471-0.87-2.828-1.762-3.896-2.622c-0.098-0.266-0.189-0.536-0.272-0.807c-0.731-2.361-0.885-4.832-0.712-7.305
						c0.071-0.986,0.191-1.974,0.351-2.953c0.013-0.079,0.016-0.156,0.02-0.232c1.277-4.801,2.8-9.438,2.8-9.438
						c6.986-5.137,20.962,1.289,21.926,6.656C309.99,237.062,309.685,238.922,309.088,241.053z"/>
				</g>
			</g>
			<g>
				<g>
					<path style="fill:#1D2333;" d="M285.382,249.107c-0.731-2.361-0.884-4.834-0.71-7.306c0.697,0.194,1.553,0.648,2.596,1.512
						C287.268,243.314,286.618,246.852,285.382,249.107z"/>
				</g>
			</g>
			<g>
				<g>
					<path style="fill:#1D2333;" d="M285.588,236.624c0,0,2.744-0.904,3.995,2.338l1.533,0.406c0,0,0.746-3.173,1.943-4.684
						c1.197-1.511,4.12-0.69,5.092-2.589c0,0,6.481,5.861,11.66,4.047c5.796-2.031-7.847-13.254-16.198-11.558
						C287.061,225.914,285.894,230.967,285.588,236.624z"/>
				</g>
			</g>
			<g>
				<g>
					<g>
						<path style="fill:#EAB287;" d="M289.582,238.962c0,0-1.594-3.465-3.995-2.338c-2.645,1.242-2.617,7.837,1.819,8.862
							L289.582,238.962z"/>
					</g>
				</g>
			</g>
			<g>
				<g>
					<path style="fill:#1D2333;" d="M302.89,226.414c0,0,4.239,1.889,8.546,1.248c4.615-0.687,4.721,7.977-0.711,8.191
						C305.292,236.067,302.89,226.414,302.89,226.414z"/>
				</g>
			</g>
		</g>
		<g>
			<g>
				<g>
					<path style="fill:#4173F7;" d="M299.391,326.978c0,0,20.963,6.944,29.562,15.185c8.599,8.241,15.518,46.569,15.518,46.569
						c-1.172,2.665-3.807,3.447-7.289,3.14c0,0-11.857-21.42-16.794-38.616c0,0-56.895-10.568-45.285-30.575
						C276.096,320.97,291.337,324.717,299.391,326.978z"/>
				</g>
			</g>
		</g>
		<g>
			<path style="fill:#EAB287;" d="M264.763,331.684c0,0,2.964,4.018,2.719,6.098s-2.928,5.997-5.073,6.186
				c-2.145,0.189,2.465-5.035,1.377-4.866c-1.317,0.204-10.205,7.496-12.08,7.496c-1.876,0,2.207-3.389,3.797-4.246
				c0,0-4.205,1.881-5.184,2.859c-0.978,0.979-1.689-1.12,3.204-4.097c0,0-4.488,2.547-4.794,2.588
				c-0.998,0.133,1.85-3.206,4.302-4.414c0,0-3.597,1.752-3.963,1.759c-0.506,0.011,0.579-1.167,3.249-2.646
				c2.402-1.331,6.338-7.445,6.338-7.445L264.763,331.684z"/>
			<path style="fill:#AD1931;" d="M271.971,261.332c0,0-9.974,19.158-12.246,39.197l-1.07,30.428c0,0,1.025,2.169,6.108,0.727
				l3.553-28.247l3.873-15.764C272.189,287.673,275.159,270.208,271.971,261.332z"/>
		</g>
	</g>
	<g>
		<ellipse style="fill:#B7B7B7;" cx="225.525" cy="436.313" rx="58.095" ry="14.794"/>
		<g>
			<g>
				<path style="fill:#1D2333;" d="M178.014,360.021c8.128,2.427,15.137,3.829,25.722,1.627c1.318-5.233,6.653-22.027,7.467-29.956
					c0.195-1.898-0.316-5.716-0.866-7.499c-1.302-4.226-5.143-9.022-13.972-9.342c-10.417-0.378-16.233,9.582-15.973,20.756
					C180.547,342.201,178.585,356.063,178.014,360.021z"/>
			</g>
			<path style="fill:#ED9B06;" d="M227.894,403.241c-17.317-23.282-24.334-49.142-24.334-49.142l0.025,22.477
				c0,0,14.771,24.737,19.913,30.249C225.548,406.824,227.894,405.901,227.894,403.241z"/>
			<g>
				<g>
					<g>
						<path style="fill:#2956D7;" d="M196.651,410.568c0,0,24.263-10.798,35.277-8.125c11.014,2.673,35.321,27.772,35.321,27.772
							c0.309,2.753-1.485,4.656-4.497,6.067c0,0-19.993-11.962-32.272-23.753c0,0-21.062,11.432-32.667,7.778
							C196.688,419.953,193.693,413.728,196.651,410.568z"/>
					</g>
				</g>
				<path style="fill:#E6E6E6;" d="M262.528,436.243c0,0,0.208,0.743,1.218,1.553c1.01,0.811,4.576,3.507,4.576,3.507l13.649-17.019
					c0,0-2.601-2.188-5.744-1.167c-3.144,1.021-4.415,5.445-9.178,6.829C267.049,429.947,267.144,431.415,262.528,436.243z"/>
			</g>
			<g>
				<g>
					<path style="fill:#EAB287;" d="M196.874,347.75l-0.459,2.576l-0.517,2.912l-0.445,2.516c-1.481,0.839-3.201,0.617-4.684,0.088
						c-1.995-0.712-3.568-1.981-3.568-1.981l0.016-0.203l0.078-0.954l0.523-6.427l0.107-1.348c0.804-0.41,2.069-0.115,3.406,0.396
						c1.315,0.496,2.703,1.208,3.794,1.655C196.162,347.409,196.874,347.75,196.874,347.75z"/>
				</g>
				<g>
					<path style="fill:#DE9367;" d="M196.872,347.752l-0.975,5.487c-3.633-1.314-6.139-6.869-6.139-6.869l5.367,0.611
						C196.164,347.409,196.872,347.752,196.872,347.752z"/>
				</g>
				<g>
					<path style="fill:#EAB287;" d="M202.752,350.117c-2.139,0.672-4.302,0.637-6.336,0.21c-1.942-0.406-3.765-1.164-5.352-2.011
						c-1.253-0.669-2.356-1.395-3.248-2.039c-0.722-0.521-1.31-0.995-1.722-1.342c-0.445-0.379-0.689-0.615-0.689-0.615
						s-0.089-1.382-0.062-3.388c0.03-2.131,0.185-4.968,0.708-7.592c0.629-3.141,1.782-5.979,3.877-6.947l3.422,0.031l16.209,0.15
						c0,0,0.021,0.244,0.047,0.682c0.054,0.955,0.129,2.836,0.074,5.13c-0.003,0.172-0.009,0.345-0.016,0.523
						C209.458,339.283,208.187,348.414,202.752,350.117z"/>
				</g>
				<g>
					<path style="fill:#1D2333;" d="M187.245,347.629c-0.447-0.379-1.84-3.309-1.84-3.309s-0.088-1.382-0.06-3.388l1.458,0.816
						C186.802,341.748,188.812,346.469,187.245,347.629z"/>
				</g>
				<g>
					<g>
						<g>
							<path style="fill:#EAB287;" d="M188.767,335.326c0,0-1.99-3.292-4.256-1.481c-2.497,1.995-1.375,9.015,3.604,8.975
								L188.767,335.326z"/>
						</g>
					</g>
				</g>
				<g>
					<path style="fill:#1D2333;" d="M209.605,327.257c-0.05,2.093-3.717,4.187-17.111,4.307c0,0-0.005,6.172-2.642,5.61
						c-0.627-0.134-1.245-3.666-3.799-3.836c0.628-3.14,1.782-5.978,3.877-6.945l19.631,0.181
						C209.56,326.574,209.58,326.818,209.605,327.257z"/>
				</g>
				<g>
					<path style="fill:#1D2333;" d="M193.789,327.133c0,0-1.581,9.235-2.459,18.192c-0.098,1.003-0.189,2.006-0.265,2.99
						c-0.178,2.268-1.887,4.852-3.849,5.342l0.601-7.381c-0.724-0.521-1.311-0.995-1.723-1.343
						c-0.447-0.379-0.691-0.615-0.691-0.615s-0.086-1.38-0.06-3.388c0.027-2.131,0.183-4.967,0.708-7.592
						c0.628-3.14,1.782-5.978,3.878-6.946l3.423,0.031C193.726,326.762,193.789,327.133,193.789,327.133z"/>
				</g>
			</g>
			<g>
				<g>
					<g>
						<path style="fill:#4173F7;" d="M176.74,412.43c0,0,30.298-2.571,41.529-1.051c11.231,1.52,38.002,23.973,38.002,23.973
							c0.592,2.706-0.996,4.785-3.846,6.499c0,0-21.122-9.831-34.554-20.29c0,0-23.223,11.936-35.311,10.556
							C173.049,431.031,174.196,416.394,176.74,412.43z"/>
					</g>
				</g>
				<path style="fill:#FFFFFF;" d="M252.198,441.835c0,0,0.283,0.717,1.372,1.419c1.089,0.702,4.913,3.015,4.913,3.015
					l11.817-18.338c0,0-2.813-1.907-5.834-0.567c-3.021,1.341-3.829,5.873-8.423,7.741
					C256.044,435.105,256.29,436.556,252.198,441.835z"/>
			</g>
			<g>
				<path style="fill:#EDB92B;" d="M202.83,391.562c-0.455,7.924,1.005,12.518,3.271,19.324
					c-13.387,4.752-19.511,6.583-30.591,4.789c-0.39-6.511-1.481-17.846-1.292-24.671c0.566-20.292,2.871-33.321,2.871-33.321
					l5.572-2.153l5.709-2.207l9.686,0.492l2.038,0.105l3.466,0.178c0,0,0.443,9.885,3.509,18.369
					c2.494,6.899-0.367,8.285-1.93,9.928c-0.062,0.064-0.119,0.127-0.176,0.193c-0.221,0.254-0.404,0.517-0.531,0.812
					c-0.039,0.09-0.076,0.187-0.115,0.289c-0.094,0.258-0.189,0.549-0.275,0.863C203.287,387.237,202.83,391.562,202.83,391.562z"/>
				<g>
					<path style="fill:#ED9B06;" d="M205.139,382.395c-0.062,0.064-0.119,0.127-0.176,0.193c-0.221,0.254-0.404,0.517-0.531,0.812
						c-0.039,0.09-0.076,0.187-0.115,0.289c-2.424,1.054-7.561,2.842-14.47,2.842c-0.312,0-0.628-0.002-0.947-0.01
						c-0.228-0.006-0.406-0.193-0.402-0.42c0.006-0.223,0.189-0.4,0.41-0.4h0.01C197.582,385.906,203.718,383.109,205.139,382.395z"
						/>
				</g>
				<path style="fill:#EAB287;" d="M198.056,353.816c-0.374,3.654-0.318,9.779-4.922,9.899c-5.534,0.144-9.24-5.845-10.473-8.185
					l5.709-2.207L198.056,353.816z"/>
			</g>
			<g>
				<path style="fill:#ED9B06;" d="M217.619,406.004c-7.107-3.961-22.297-12.803-22.297-12.803s-8.485-10.537-18.234-35.517
					c0,0-4.937,4.408-2.054,17.725c2.883,13.313,15.189,25.618,15.189,25.618s16.612,8.258,23.977,8.805L217.619,406.004z"/>
			</g>
			<g>
				<path style="fill:#E6E6E6;" d="M246.879,409.756l-48.362,4.838c-1.064,0.107-2.013-0.67-2.12-1.734l-0.009-0.095
					c-0.107-1.064,0.67-2.013,1.734-2.12l48.362-4.838c1.064-0.106,2.013,0.67,2.12,1.734l0.009,0.095
					C248.719,408.7,247.943,409.65,246.879,409.756z"/>
				<g>
					<g>
						<polygon style="fill:#FFFFFF;" points="248.805,409.563 206.087,413.695 216.74,389.221 259.458,385.089 						"/>
						<polygon style="fill:#E6E6E6;" points="246.149,409.821 246.146,409.829 203.428,413.961 214.08,389.486 216.737,389.229 
							206.087,413.695 						"/>
					</g>
					<path style="opacity:0.5;fill:#2D3E50;" d="M236.032,399.066c0.15,1.503-0.946,2.843-2.449,2.993
						c-1.503,0.15-2.843-0.946-2.993-2.449c-0.15-1.503,0.946-2.843,2.449-2.993C234.542,396.467,235.882,397.563,236.032,399.066z"
						/>
				</g>
			</g>
		</g>
	</g>
	<g>
		<g>
			<path style="fill:#DC4131;" d="M166.682,124.189l1.791-52.106c0,0-4.579-1.22-10.354-1.851c-0.37-0.039-0.742-0.076-1.121-0.111
				c-3.608-0.335-7.578-0.404-11.144,0.202l-0.54,0.091l-11.462,1.952l1.215,51.822H166.682z"/>
		</g>
		<g>
			<g>
				<g>
					<path style="fill:#EAB287;" d="M155.484,62.428v7.81c-0.143,0.062-0.284,0.123-0.426,0.178c-2.754,1.1-5.495,1.053-8.22-0.178
						v-7.81H155.484z"/>
					<path style="fill:#DE9367;" d="M155.484,64.32v5.918c-0.143,0.062-0.284,0.123-0.426,0.178
						c-3.224-0.344-6.263-1.981-8.22-3.274V64.32H155.484z"/>
				</g>
				<path style="fill:#DE9367;" d="M141.457,49.672c0,0-0.951-2.239-2.854-2.686c-1.903-0.448-1.847,4.309-0.672,7.779
					c1.175,3.47,4.141,2.127,4.141,2.127L141.457,49.672z"/>
				<path style="fill:#DE9367;" d="M160.83,49.672c0,0,0.951-2.239,2.854-2.686c1.903-0.448,1.847,4.309,0.672,7.779
					c-1.175,3.47-4.142,2.127-4.142,2.127L160.83,49.672z"/>
				<path style="fill:#EAB287;" d="M151.125,65.915L151.125,65.915c-5.772,0-10.452-6.2-10.452-11.66V41.905h20.903v12.349
					C161.577,59.715,156.897,65.915,151.125,65.915z"/>
				<path style="fill:#1D2333;" d="M140.673,50.888c0,0-3.572-5.373-1.087-8.983c0,0-1.525-3.084,0-6.022
					c1.525-2.938,7.97-6.319,16.953-4.556c8.982,1.763,7.285,8.395,6.161,10.242c0,0,2.234,4.113-1.124,9.319
					c0,0-1.968-2.687-1.362-8.395c0,0-9.999,2.854-18.142-0.588C142.073,41.905,143.192,48.537,140.673,50.888z"/>
			</g>
		</g>
		<g>
			<path style="fill:#AD1931;" d="M133.852,72.358c0,0-8.206,11.655-11.327,21.513c0,0,4.27,5.067,7.146,6.148l5.233-13.83
				C134.904,86.189,137.457,78.119,133.852,72.358z"/>
			<path style="fill:#AD1931;" d="M129.67,100.02c0,0,3.87,6.509,11.173,17.834l-4.066,2.925l-13.431-15.022
				c-1.915-1.659-2.936-4.334-2.32-6.792l1.498-5.093C122.524,93.871,127.944,95.899,129.67,100.02z"/>
		</g>
		<g>
			<path style="fill:#AD1931;" d="M168.474,72.082c0,0,8.206,11.655,11.327,21.513c0,0-4.27,5.067-7.146,6.148l-5.254-13.554
				C167.401,86.189,164.868,77.843,168.474,72.082z"/>
			<path style="fill:#AD1931;" d="M172.655,99.743c0,0-3.87,6.509-11.173,17.834l4.066,2.925l13.431-15.022
				c1.915-1.659,2.936-4.334,2.32-6.791l-1.498-5.093C179.801,93.595,174.381,95.622,172.655,99.743z"/>
		</g>
		<path style="fill:#ED9B06;" d="M151.164,135.803c-0.129-1.269,0.094-2.549,0.324-3.804c0.817-4.464,3.435-13.546,11.134-12.479
			c10.162,1.409,6.974,20.726,6.974,20.726l-5.98,47.489c-2.266,0.328-4.733,0.286-7.333,0
			C156.283,187.736,153.643,160.133,151.164,135.803z"/>
		<path style="fill:#ED9B06;" d="M120.63,119.434c0,0,9.511,14.146,20.05,19.669c11.264,5.902,16.318-5.061,16.318-5.061
			S131.919,116.257,120.63,119.434z"/>
		<path style="fill:#EDB92B;" d="M166.536,114.549c0,0,0.662,8.987-2.049,11.574c-2.711,2.588-19.223,2.711-24.768,0.986
			c-5.545-1.725-4.563-13.016-4.563-13.016L166.536,114.549z"/>
		<g>
			<path style="fill:#FFFFFF;" d="M170.248,116.614h-38.87l-3.589-20.985c-0.311-1.817,1.089-3.477,2.933-3.477h40.142
				c1.844,0,3.244,1.66,2.933,3.477L170.248,116.614z"/>
			<path style="fill:#E6E6E6;" d="M167.106,121.177h-32.587c-1.735,0-3.141-1.406-3.141-3.141v-1.422h38.87v1.422
				C170.248,119.771,168.841,121.177,167.106,121.177z"/>
			<circle style="opacity:0.5;fill:#2D3E50;" cx="151.187" cy="105.248" r="3.373"/>
		</g>
		<g>
			<g>
				<g>
					<path style="fill:#2D3E50;" d="M189.151,140.676c-2.043,2.014-4.631,2.016-7.115,0.5c-1.052-0.643-2.622-1.503-4.086-2.285
						c-1.994-1.065-3.788-1.977-3.788-1.977l2.302-5.262c0,0,1.415,0.039,3.416-0.01h0.003c1.671-0.039,3.751-0.141,5.755-0.377
						c4.409-0.52,6.462-1.609,7.007,0.101C193.187,133.078,191.196,138.66,189.151,140.676z"/>
				</g>
			</g>
			<path style="fill:#EDB92B;" d="M134.239,108.635c0,0-7.627-4.592-14.074-0.115c-6.448,4.477,0.373,12.91,7.423,15.771
				c7.049,2.861,48.639,14.379,48.639,14.379c0.733-1.503,1.353-4.266,1.963-7.136c0,0-12.381-7.022-19.338-11.501
				C143.006,109.832,134.239,108.635,134.239,108.635z"/>
		</g>
		<path style="fill:#2D3E50;" d="M163.616,187.736c0,0,4.28,6.61,6.889,12.319c2.609,5.708,0.066,7.456-3.686,7.203
			c-6.245-0.42-11.136-15.165-11.136-15.165l0.583-4.357C156.266,187.736,157.673,187.886,163.616,187.736z"/>
	</g>
	<g>
		<g>
			<path style="fill:#1D2333;" d="M348.727,94.929c2.097-3.522,5.553-7.332,4.051-11.439c-0.057-0.158-0.115-0.315-0.172-0.472
				c-4.133-11.455-13.963-19.285-24.398-14.8c-8.842,3.8-10.857,10.185-10.517,14.99c0.145,2.03,1.41,5.665,2.507,7.43
				c0.878,1.413,1.733,2.775,2.563,4.09c2.531,4.01,6.444,6.688,10.769,7.747C338.973,100.745,343.985,98.067,348.727,94.929z"/>
		</g>
		
			<ellipse transform="matrix(0.9228 -0.3852 0.3852 0.9228 0.9342 136.4929)" style="fill:#1D2333;" cx="341.173" cy="65.915" rx="10.578" ry="10.578"/>
		<g>
			<g>
				<g>
					<path style="fill:#2956D7;" d="M294.959,123.039c0,0,10.581,12.965,34.015,15.77c0,0,0-0.002,0.004-0.009
						c0,0-0.002-0.002,0-0.002c3.711-4.14,7.837-13.847,10.585-21.912c1.028-3.014,1.088-4.775,0.205-6.638
						c-0.865-1.826-2.395-3.262-4.243-4.077c-0.419-0.185-0.823-0.193-1.198,0.586c-0.85,1.762-1.695,3.838-2.659,5.867
						c-2.926,6.151-5.228,11.834-6.641,15.512c0,0,0,0-0.002,0c-0.135-0.058-5.722-2.412-13.592-3.307
						c-7.807-0.886-14.131-5.945-14.131-5.945L294.959,123.039z"/>
				</g>
			</g>
		</g>
		<g>
			<g>
				<path style="fill:#4173F7;" d="M339.441,138.859c0.094-4.678,0.306-1.67-0.511-7.342c-0.025-0.222-0.053-0.449-0.082-0.674
					c-0.076-0.129-0.146-0.255-0.213-0.382c-1.252-2.217-1.92-3.5-2.352-5.114c-1.358-5.097-0.34-8.333,0.028-11.539
					c-0.298-1.479-1.339-6.481-1.67-7.954l6.534-2.521l1.361-0.525l0.081-0.031v-0.003l1.392-0.536l0.107-0.039
					c3.152-1.215,6.523-1.74,9.888-1.533c0.222,0.014,0.438,0.028,0.66,0.05l2.498,0.222l0.095,0.008l1.603,0.143l9.282,0.825
					l2.726,36.942C360.378,138.859,349.302,138.859,339.441,138.859z"/>
			</g>
			<g>
				<g>
					<path style="fill:#EAB287;" d="M358.859,101.091c-3.031,6.108-10.451,12.933-14.254,10.827
						c-2.339-1.292-3.295-5.54-3.432-8.584l1.362-0.523l0.083-0.031v-0.003l1.391-0.536l0.106-0.042
						c3.152-1.215,6.525-1.738,9.889-1.531c0.114,0.015,0.231,0.031,0.345,0.047c0.106,0.013,0.21,0.026,0.313,0.039l2.5,0.187
						l0.096,0.008L358.859,101.091z"/>
				</g>
			</g>
			<g>
				<g>
					<path style="fill:#AD1931;" d="M338.847,130.844c0.028,0.226,0.059,0.45,0.083,0.674c1.61,0.344,6.663,1.054,15.255-1.004
						c1.114-0.267,2.288-0.581,3.522-0.948c0.254-0.074,0.396-0.34,0.322-0.594c-0.076-0.25-0.343-0.395-0.593-0.319
						c-12.392,3.681-18.719,1.833-18.783,1.816c-0.007-0.002-0.011-0.004-0.018-0.006
						C338.703,130.587,338.773,130.714,338.847,130.844z"/>
				</g>
			</g>
		</g>
		<g>
			<g>
				<path style="fill:#EAB287;" d="M340.948,98.941l1.51,2.416l1.708,2.733l1.474,2.359c1.838,0.248,3.486-0.675,4.77-1.816
					c1.728-1.531,2.798-3.452,2.798-3.452l-3.707-7.415l-0.659-1.318c-0.979-0.089-2.136,0.724-3.281,1.784
					c-1.126,1.039-2.239,2.32-3.16,3.218C341.525,98.304,340.948,98.941,340.948,98.941z"/>
			</g>
			<g>
				<path style="fill:#DE9367;" d="M340.949,98.94l3.218,5.149c3.137-2.806,3.41-9.44,3.41-9.44l-5.176,2.801
					C341.525,98.306,340.949,98.94,340.949,98.94z"/>
			</g>
			<g>
				<path style="fill:#EAB287;" d="M351.145,90.808c0,0-0.152,0.335-0.45,0.9c-0.275,0.52-0.675,1.235-1.193,2.058v0.003
					c-0.64,1.012-1.462,2.195-2.453,3.38l-0.003,0.003c-1.26,1.5-2.792,3.007-4.587,4.207c-1.885,1.257-4.055,2.173-6.492,2.365
					c-6.188,0.492-11.182-8.22-13.987-14.578c-0.08-0.18-0.155-0.355-0.23-0.53c-0.99-2.292-1.675-4.22-2.01-5.207
					c-0.152-0.455-0.23-0.713-0.23-0.713l16.322-6.743l3.445-1.425c2.04,0.103,3.955,1.705,5.628,3.868
					c0.128,0.165,0.255,0.335,0.38,0.507c0.065,0.088,0.127,0.175,0.187,0.263c0.185,0.262,0.368,0.53,0.548,0.805
					c0.1,0.152,0.2,0.307,0.297,0.463c0.293,0.465,0.575,0.94,0.848,1.42c1.085,1.917,1.99,3.897,2.662,5.505
					C350.67,89.372,351.145,90.808,351.145,90.808z"/>
			</g>
			<g>
				<g>
					<path style="fill:#EAB287;" d="M344.086,83.083c0,0,0.672-4.137,3.699-3.229c3.336,1.001,5.058,8.552,0.009,10.537
						L344.086,83.083z"/>
				</g>
			</g>
			<g>
				<path style="fill:#1D2333;" d="M344.017,84.275c0.92,2.795,0.498,7.162,0.498,7.162c-1.828-4.135-3.735-7.08-4.075-7.598
					c-0.013-0.017-0.023-0.032-0.03-0.045c-0.008-0.01-0.018-0.022-0.025-0.035c-0.953-1.365-1.598-2.963-1.598-2.963
					c-13.587,5.327-18.145,4.705-19.047,2.61c-0.152-0.455-0.233-0.71-0.233-0.71l19.77-8.17c2.51,0.125,4.832,2.525,6.742,5.443
					C344.265,80.815,344.135,82.94,344.017,84.275z"/>
			</g>
		</g>
		<g>
			<g>
				<g>
					<path style="fill:#2956D7;" d="M325.028,125.453c0,0,11.626,9.692,35.059,12.497c0,0,0-0.002,0.004-0.009
						c0,0-0.002-0.002,0-0.002c3.711-4.14,7.837-13.847,10.585-21.912c1.645-4.822,0.676-10.152-2.534-14.11
						c-0.995,0.77-1.853,2.217-2.703,3.979c-0.85,1.762-1.695,3.838-2.659,5.867c-2.926,6.151-5.228,11.834-6.641,15.512
						c0,0,0,0-0.002,0c-0.134-0.059-5.722-2.412-13.592-3.307c-7.807-0.886-15.29-3.404-15.29-3.404L325.028,125.453z"/>
				</g>
			</g>
		</g>
		<path style="fill:#EAB287;" d="M327.256,120.564c0,0-6.245-5.407-9.601-4.973c-3.356,0.433-5.849,3.468-6.065,5.852
			c-0.217,2.384,2.847,2.083,5.418,1.501c2.571-0.582,8.019,2.509,8.019,2.509S326.884,123.478,327.256,120.564z"/>
		<g>
			<g>
				<path style="fill:#E6E6E6;" d="M290.215,109.249l12.039,29.494c0.427,1.05,1.449,1.732,2.579,1.732h17.994
					c1.98,0,3.329-2.004,2.579-3.836l-12.034-29.494c-0.427-1.05-1.449-1.732-2.579-1.732h-17.994
					C290.818,105.413,289.469,107.417,290.215,109.249z"/>
				<path style="fill:#FFFFFF;" d="M290.215,109.249l12.039,29.494c0.427,1.05,1.449,1.732,2.579,1.732h14.641
					c1.98,0,3.329-2.004,2.579-3.836l-12.035-29.494c-0.427-1.05-1.449-1.732-2.579-1.732h-14.641
					C290.818,105.413,289.469,107.417,290.215,109.249z"/>
				<path style="opacity:0.5;fill:#2D3E50;" d="M302.062,123.924c0.622,1.62,2.439,2.933,4.059,2.933s2.429-1.313,1.807-2.933
					c-0.622-1.62-2.439-2.933-4.059-2.933S301.44,122.304,302.062,123.924z"/>
			</g>
			<path style="fill:#EAB287;" d="M293.277,120.783c0,0-1.349-3.02,0.082-3.829l1.218,2.984c0,0,2.646-2.391,4.484-1.226
				c1.838,1.165,4.798,7.52,3.872,9.223c-0.926,1.704-6.059,3.205-7.888,1.081C293.217,126.893,292.602,122.721,293.277,120.783z"/>
		</g>
	</g>
	<g>
		<ellipse style="fill:#B7B7B7;" cx="425.319" cy="425.81" rx="44.951" ry="11.177"/>
		<g>
			<path style="fill:#2956D7;" d="M380.367,323.265c0,0,23.816-2.621,42.052-2.621c18.236,0,47.85,2.621,47.85,2.621
				s-19.316,9.745-44.951,9.745C399.684,333.01,380.367,323.265,380.367,323.265z"/>
			<g>
				<g>
					
						<rect x="394.851" y="295.196" transform="matrix(0.9973 -0.0738 0.0738 0.9973 -24.5515 30.584)" style="fill:#EDB92B;" width="13.931" height="105.024"/>
					<polygon style="fill:#EAB287;" points="404.89,294.827 390.997,295.855 394.84,285.607 396.831,280.303 399.581,285.256 					
						"/>
					
						<rect x="398.443" y="392.457" transform="matrix(0.9973 -0.0738 0.0738 0.9973 -28.1237 30.9811)" style="fill:#2D3E50;" width="13.931" height="7.631"/>
					<path style="fill:#DC4131;" d="M411.887,405.718l-11.499,0.85c-0.661,0.049-1.237-0.447-1.286-1.109l-0.36-4.868l13.893-1.027
						l0.36,4.869C413.045,405.093,412.548,405.669,411.887,405.718z"/>
					<polygon style="fill:#2D3E50;" points="399.581,285.256 394.84,285.607 396.831,280.303 					"/>
					
						<rect x="397.96" y="387.003" transform="matrix(0.9973 -0.0738 0.0738 0.9973 -27.6439 30.9286)" style="fill:#ED9B06;" width="13.931" height="5.472"/>
					<path style="fill:#ED9B06;" d="M394.833,300.758l5.736,77.563c0.043,0.586,0.554,1.026,1.14,0.983l0,0
						c0.586-0.044,1.026-0.554,0.983-1.139l-5.736-77.563c-0.044-0.586-0.554-1.026-1.14-0.983l0,0
						C395.229,299.662,394.789,300.172,394.833,300.758z"/>
					<path style="fill:#ED9B06;" d="M400.267,300.351l5.736,77.564c0.044,0.586,0.553,1.026,1.139,0.982l0,0
						c0.586-0.043,1.027-0.553,0.983-1.139l-5.736-77.563c-0.044-0.586-0.554-1.026-1.14-0.983l0,0
						C400.663,299.255,400.223,299.766,400.267,300.351z"/>
				</g>
			</g>
			<g>
				<g>
					
						<rect x="418.149" y="287.961" transform="matrix(-0.9974 -0.0726 0.0726 -0.9974 824.3801 710.9209)" style="fill:#EDB92B;" width="13.931" height="105.024"/>
					<polygon style="fill:#EAB287;" points="414.354,392.339 428.249,393.351 422.951,402.928 420.207,407.884 418.209,402.583 
											"/>
					
						<rect x="421.686" y="288.09" transform="matrix(-0.9974 -0.0726 0.0726 -0.9974 834.9708 614.1694)" style="fill:#2D3E50;" width="13.931" height="7.631"/>
					<path style="fill:#DC4131;" d="M423.62,281.615l11.499,0.838c0.661,0.048,1.158,0.623,1.11,1.284l-0.355,4.868l-13.894-1.012
						l0.355-4.869C422.384,282.064,422.959,281.567,423.62,281.615z"/>
					<polygon style="fill:#2D3E50;" points="418.209,402.583 422.951,402.928 420.207,407.884 					"/>
					
						<rect x="425.439" y="291.474" transform="matrix(0.0726 -0.9974 0.9974 0.0726 99.4336 703.8138)" style="fill:#ED9B06;" width="5.472" height="13.931"/>
					<path style="fill:#ED9B06;" d="M425.17,387.94l5.648-77.569c0.043-0.586-0.398-1.096-0.984-1.139l0,0
						c-0.586-0.042-1.096,0.398-1.138,0.984l-5.648,77.57c-0.042,0.586,0.398,1.096,0.985,1.138l0,0
						C424.618,388.966,425.127,388.526,425.17,387.94z"/>
					<path style="fill:#ED9B06;" d="M419.735,387.549l5.648-77.57c0.042-0.586-0.398-1.096-0.984-1.138l0,0
						c-0.586-0.043-1.096,0.398-1.139,0.984l-5.648,77.569c-0.042,0.586,0.398,1.096,0.984,1.139l0,0
						C419.182,388.575,419.692,388.135,419.735,387.549z"/>
				</g>
			</g>
			<g>
				<g>
					
						<rect x="444.857" y="293.706" transform="matrix(-0.977 -0.2132 0.2132 -0.977 819.4573 780.7934)" style="fill:#EDB92B;" width="13.931" height="105.024"/>
					<polygon style="fill:#EAB287;" points="433.824,396.037 447.435,399.007 440.834,407.737 437.415,412.254 436.188,406.723 
											"/>
					
						<rect x="455.238" y="294.826" transform="matrix(-0.977 -0.2132 0.2132 -0.977 850.1224 688.9446)" style="fill:#2D3E50;" width="13.931" height="7.631"/>
					<path style="fill:#DC4131;" d="M458.681,287.742l11.265,2.458c0.648,0.141,1.058,0.781,0.917,1.429l-1.041,4.769l-13.611-2.97
						l1.041-4.77C457.394,288.011,458.033,287.601,458.681,287.742z"/>
					<polygon style="fill:#2D3E50;" points="436.188,406.723 440.834,407.737 437.415,412.254 					"/>
					
						<rect x="458.071" y="298.076" transform="matrix(0.2132 -0.977 0.977 0.2132 64.5475 690.2321)" style="fill:#ED9B06;" width="5.472" height="13.931"/>
					<path style="fill:#ED9B06;" d="M445.153,393.214l16.579-75.987c0.126-0.574-0.239-1.141-0.813-1.267l0,0
						c-0.574-0.125-1.141,0.239-1.266,0.813l-16.58,75.987c-0.125,0.574,0.239,1.141,0.813,1.267l0,0
						C444.461,394.152,445.028,393.788,445.153,393.214z"/>
					<path style="fill:#ED9B06;" d="M439.828,392.057l16.58-75.988c0.125-0.574-0.239-1.141-0.813-1.266l0,0
						c-0.574-0.126-1.142,0.238-1.266,0.813l-16.58,75.987c-0.125,0.574,0.239,1.141,0.813,1.267l0,0
						C439.136,392.995,439.703,392.632,439.828,392.057z"/>
				</g>
			</g>
			<path style="fill:#4173F7;" d="M470.269,323.266c0,0,0,0.004-0.004,0.016l-13.143,100.298c-21.202,10.897-42.404,10.897-63.606,0
				l-1.483-11.32v-0.004l-11.664-88.99C410.336,334.362,440.301,334.362,470.269,323.266z"/>
			<path style="fill:#2956D7;" d="M470.265,323.281l-13.143,100.298c-21.202,10.897-42.404,10.897-63.606,0l-1.483-11.32v-0.004
				c0,0,22.81,13.252,41.791,2.299C454.569,402.583,470.009,324.525,470.265,323.281z"/>
		</g>
	</g>
</g>
<g id="DESIGNED_BY_FREEPIK">
	<g>
		<g id="XMLID_1_">
			<g id="XMLID_20_">
				<path id="XMLID_28_" style="fill:#1D262D;" d="M260.104,465.465c-0.432,0.443-0.803,0.931-1.108,1.453l-0.465-0.241
					c-0.067-0.298-0.349-0.503-0.659-0.466c-0.331,0.039-0.568,0.339-0.529,0.67c0.039,0.331,0.339,0.568,0.67,0.529
					c0.065-0.008,0.127-0.026,0.183-0.052l0.452,0.234c-0.251,0.554-0.433,1.139-0.539,1.744l0.747,0.132
					c0.23-1.306,0.85-2.507,1.792-3.473L260.104,465.465z"/>
				<path id="XMLID_27_" style="fill:#1D262D;" d="M265.592,463.163c-0.171,0-0.341,0.006-0.51,0.017l-0.074-0.626
					c0.188-0.149,0.296-0.389,0.266-0.645c-0.046-0.393-0.402-0.674-0.795-0.628c-0.393,0.046-0.674,0.402-0.628,0.795
					c0.03,0.254,0.189,0.461,0.405,0.564l0.073,0.624c-0.714,0.116-1.403,0.332-2.06,0.646l0.327,0.684
					c0.934-0.447,1.942-0.673,2.995-0.673c0.496,0,0.993,0.053,1.475,0.158l0.161-0.741
					C266.692,463.222,266.142,463.163,265.592,463.163z"/>
				<path id="XMLID_26_" style="fill:#1D262D;" d="M272.194,465.711c0.331-0.04,0.566-0.341,0.526-0.672
					c-0.04-0.331-0.341-0.566-0.672-0.526c-0.309,0.038-0.535,0.304-0.53,0.609l-0.416,0.363c-0.418-0.43-0.89-0.813-1.408-1.139
					l-0.404,0.641c1.134,0.715,2.021,1.726,2.563,2.925l0.691-0.313c-0.251-0.554-0.568-1.072-0.942-1.545l0.402-0.351
					C272.065,465.716,272.129,465.719,272.194,465.711z"/>
				<path id="XMLID_25_" style="fill:#1D262D;" d="M265.044,473.372c-0.386,0.023-0.775,0.035-1.157,0.035
					c-0.88,0-1.733-0.061-2.478-0.179c-0.39-0.062-0.846-0.155-1.27-0.292c1.046,1.861,3.069,3.125,5.388,3.125
					c2.855,0,5.262-1.916,5.95-4.504c-0.682,0.449-1.505,0.825-2.459,1.123C267.839,473.047,266.464,473.286,265.044,473.372z"/>
				<path id="XMLID_21_" style="fill:#1D262D;" d="M265.592,464.68c-3.352,0-6.08,2.666-6.08,5.943c0,0.426,0.046,0.849,0.137,1.261
					c0.673,0.483,2.706,0.89,5.348,0.731c2.879-0.173,5.297-0.957,6.672-2.159c-0.005-0.195-0.021-0.39-0.045-0.582
					C271.244,466.913,268.65,464.68,265.592,464.68z M263.432,471.194c-1.02,0-1.85-0.83-1.85-1.85c0-1.02,0.83-1.85,1.85-1.85
					c1.02,0,1.85,0.83,1.85,1.85C265.282,470.365,264.452,471.194,263.432,471.194z M268.17,470.286c-0.75,0-1.36-0.61-1.36-1.36
					s0.61-1.361,1.36-1.361c0.75,0,1.361,0.61,1.361,1.361S268.92,470.286,268.17,470.286z"/>
			</g>
			<path id="XMLID_18_" style="fill:#1D262D;" d="M281.595,466.547c-0.295-0.116-0.805-0.309-1.382-0.237
				c-0.551,0.069-0.844,0.341-0.844,1.007v0.866h2.228v1.717h-2.228v5.455h-1.932v-5.455h-1.34v-1.717h1.34v-0.888
				c0-1.68,0.896-2.783,2.568-2.783c0.643,0,1.157,0.122,1.59,0.308L281.595,466.547z"/>
			<path id="XMLID_16_" style="fill:#1D262D;" d="M286.298,469.879c-0.177-0.03-0.358-0.046-0.526-0.046
				c-0.896,0-1.51,0.548-1.51,1.614v3.908h-1.932v-7.172h1.873v0.785c0.451-0.673,1.14-0.977,2.021-0.977
				c0.414,0,0.848,0.128,1.094,0.337L286.298,469.879z"/>
			<path id="XMLID_13_" style="fill:#1D262D;" d="M293.965,471.757c0,0.222-0.015,0.489-0.037,0.651h-5.085
				c0.207,1.036,0.933,1.488,1.843,1.488c0.622,0,1.295-0.252,1.813-0.688l1.132,1.243c-0.814,0.748-1.85,1.088-3.057,1.088
				c-2.198,0-3.723-1.495-3.723-3.753c0-2.258,1.48-3.797,3.627-3.797C292.544,467.99,293.958,469.522,293.965,471.757z
				 M288.851,471.091h3.175c-0.177-0.918-0.733-1.436-1.562-1.436C289.554,469.655,289.021,470.203,288.851,471.091z"/>
			<path id="XMLID_10_" style="fill:#1D262D;" d="M301.618,471.757c0,0.222-0.015,0.489-0.037,0.651h-5.085
				c0.207,1.036,0.933,1.488,1.843,1.488c0.622,0,1.295-0.252,1.813-0.688l1.132,1.243c-0.814,0.748-1.85,1.088-3.057,1.088
				c-2.198,0-3.723-1.495-3.723-3.753c0-2.258,1.48-3.797,3.627-3.797C300.197,467.99,301.611,469.522,301.618,471.757z
				 M296.504,471.091h3.175c-0.178-0.918-0.733-1.436-1.562-1.436C297.207,469.655,296.674,470.203,296.504,471.091z"/>
			<path id="XMLID_7_" style="fill:#1D262D;" d="M309.964,471.764c0,2.154-1.495,3.775-3.471,3.775
				c-0.962,0-1.643-0.378-2.109-0.933v3.708h-1.924v-10.133h1.887v0.792c0.466-0.585,1.155-0.984,2.139-0.984
				C308.469,467.99,309.964,469.61,309.964,471.764z M304.287,471.764c0,1.132,0.747,1.976,1.843,1.976
				c1.14,0,1.85-0.881,1.85-1.976c0-1.095-0.71-1.976-1.85-1.976C305.035,469.788,304.287,470.632,304.287,471.764z"/>
			<path id="XMLID_4_" style="fill:#1D262D;" d="M313.068,465.836c0,0.696-0.54,1.229-1.236,1.229c-0.696,0-1.229-0.533-1.229-1.229
				c0-0.696,0.533-1.243,1.229-1.243C312.527,464.592,313.068,465.14,313.068,465.836z M312.809,475.354h-1.932v-7.172h1.932
				V475.354z"/>
			<path id="XMLID_2_" style="fill:#1D262D;" d="M316.032,470.736l2.701-2.554h2.368l-3.479,3.375l3.501,3.797h-2.376l-2.716-2.901
				v2.901H314.1v-10.658h1.932V470.736z"/>
		</g>
		<g>
			<path style="fill:#1D262D;" d="M184.412,475.289v-1.055c-0.527,0.718-1.391,1.23-2.387,1.23c-1.846,0-3.149-1.406-3.149-3.706
				c0-2.256,1.289-3.721,3.149-3.721c0.952,0,1.816,0.469,2.387,1.245v-3.765h1.099v9.77H184.412z M184.412,473.37v-3.208
				c-0.395-0.615-1.245-1.143-2.124-1.143c-1.421,0-2.27,1.172-2.27,2.739c0,1.567,0.85,2.724,2.27,2.724
				C183.168,474.483,184.017,473.986,184.412,473.37z"/>
			<path style="fill:#1D262D;" d="M186.932,471.744c0-2.051,1.465-3.706,3.486-3.706c2.139,0,3.398,1.67,3.398,3.794v0.279h-5.727
				c0.088,1.333,1.025,2.446,2.549,2.446c0.805,0,1.626-0.322,2.182-0.894l0.527,0.718c-0.703,0.703-1.655,1.084-2.812,1.084
				C188.44,475.465,186.932,473.956,186.932,471.744z M190.403,468.947c-1.509,0-2.256,1.274-2.314,2.358h4.643
				C192.718,470.25,192.015,468.947,190.403,468.947z"/>
			<path style="fill:#1D262D;" d="M194.607,474.351l0.571-0.791c0.469,0.542,1.362,1.011,2.329,1.011c1.084,0,1.67-0.513,1.67-1.216
				c0-1.714-4.38-0.659-4.38-3.281c0-1.098,0.952-2.036,2.636-2.036c1.201,0,2.051,0.454,2.622,1.026l-0.513,0.762
				c-0.424-0.513-1.201-0.894-2.109-0.894c-0.967,0-1.567,0.483-1.567,1.113c0,1.552,4.38,0.527,4.38,3.281
				c0,1.187-0.952,2.138-2.783,2.138C196.306,475.465,195.325,475.113,194.607,474.351z"/>
			<path style="fill:#1D262D;" d="M201.477,466.471c0-0.41,0.337-0.747,0.732-0.747c0.41,0,0.747,0.337,0.747,0.747
				c0,0.41-0.337,0.732-0.747,0.732C201.814,467.203,201.477,466.881,201.477,466.471z M201.667,475.289v-7.075h1.099v7.075H201.667
				z"/>
			<path style="fill:#1D262D;" d="M204.582,477.105l0.556-0.82c0.586,0.703,1.289,0.967,2.3,0.967c1.172,0,2.27-0.571,2.27-2.124
				v-1.011c-0.513,0.718-1.377,1.26-2.373,1.26c-1.845,0-3.149-1.377-3.149-3.662c0-2.27,1.289-3.677,3.149-3.677
				c0.952,0,1.802,0.469,2.373,1.245v-1.069h1.098v6.87c0,2.344-1.641,3.076-3.369,3.076
				C206.237,478.16,205.417,477.926,204.582,477.105z M209.709,473.253v-3.091c-0.381-0.615-1.23-1.143-2.109-1.143
				c-1.421,0-2.27,1.128-2.27,2.695c0,1.553,0.849,2.695,2.27,2.695C208.478,474.41,209.328,473.868,209.709,473.253z"/>
			<path style="fill:#1D262D;" d="M217.413,475.289v-4.629c0-1.245-0.63-1.641-1.582-1.641c-0.865,0-1.685,0.527-2.095,1.099v5.17
				h-1.099v-7.075h1.099v1.025c0.498-0.586,1.465-1.201,2.519-1.201c1.48,0,2.256,0.747,2.256,2.285v4.966H217.413z"/>
			<path style="fill:#1D262D;" d="M219.932,471.744c0-2.051,1.465-3.706,3.486-3.706c2.139,0,3.398,1.67,3.398,3.794v0.279h-5.727
				c0.088,1.333,1.025,2.446,2.549,2.446c0.806,0,1.626-0.322,2.183-0.894l0.527,0.718c-0.703,0.703-1.655,1.084-2.812,1.084
				C221.441,475.465,219.932,473.956,219.932,471.744z M223.404,468.947c-1.509,0-2.256,1.274-2.314,2.358h4.643
				C225.718,470.25,225.015,468.947,223.404,468.947z"/>
			<path style="fill:#1D262D;" d="M233.35,475.289v-1.055c-0.527,0.718-1.392,1.23-2.388,1.23c-1.846,0-3.149-1.406-3.149-3.706
				c0-2.256,1.289-3.721,3.149-3.721c0.952,0,1.817,0.469,2.388,1.245v-3.765h1.098v9.77H233.35z M233.35,473.37v-3.208
				c-0.396-0.615-1.245-1.143-2.124-1.143c-1.421,0-2.27,1.172-2.27,2.739c0,1.567,0.849,2.724,2.27,2.724
				C232.105,474.483,232.954,473.986,233.35,473.37z"/>
			<path style="fill:#1D262D;" d="M239.692,475.289v-9.77h1.098v3.765c0.572-0.776,1.421-1.245,2.388-1.245
				c1.845,0,3.149,1.465,3.149,3.721c0,2.299-1.304,3.706-3.149,3.706c-0.996,0-1.86-0.513-2.388-1.23v1.055H239.692z
				 M242.9,474.483c1.436,0,2.285-1.157,2.285-2.724c0-1.568-0.85-2.739-2.285-2.739c-0.864,0-1.728,0.527-2.109,1.143v3.208
				C241.171,473.986,242.036,474.483,242.9,474.483z"/>
			<path style="fill:#1D262D;" d="M247.528,477.061c0.161,0.073,0.425,0.117,0.601,0.117c0.483,0,0.805-0.161,1.055-0.747
				l0.469-1.069l-2.959-7.148h1.187l2.358,5.8l2.344-5.8h1.201l-3.545,8.51c-0.425,1.025-1.143,1.421-2.08,1.435
				c-0.234,0-0.601-0.044-0.806-0.103L247.528,477.061z"/>
		</g>
	</g>
</g>
</svg>
